AnekTamil-ExpandedBold.ufo
<glyph name="exclam" format="2">
  <advance width="614.4066666666668"/>
  <unicode hex="0021"/>
  <outline>
    <contour>
      <point x="457.23999999999995" y="423.98999999999995" type="line"/>
      <point x="493.4766666666667" y="1278.0" type="line"/>
      <point x="120.92999999999999" y="1278.0" type="line"/>
      <point x="158.16666666666669" y="423.98999999999995" type="line"/>
    </contour>
    <contour>
      <point x="307.2033333333333" y="-30.27" type="curve" smooth="yes"/>
      <point x="437.73333333333335" y="-30.27"/>
      <point x="497.36333333333334" y="33.45"/>
      <point x="497.36333333333334" y="135.53" type="curve" smooth="yes"/>
      <point x="497.36333333333334" y="140.2266666666667" type="line" smooth="yes"/>
      <point x="497.36333333333334" y="243.00333333333333"/>
      <point x="437.73333333333335" y="307.42"/>
      <point x="307.2033333333333" y="307.42" type="curve" smooth="yes"/>
      <point x="177.28" y="307.42"/>
      <point x="118.04333333333334" y="243.00333333333333"/>
      <point x="118.04333333333334" y="140.2266666666667" type="curve" smooth="yes"/>
      <point x="118.04333333333334" y="135.53" type="line" smooth="yes"/>
      <point x="118.04333333333334" y="33.45"/>
      <point x="177.28" y="-30.27"/>
    </contour>
  </outline>
</glyph>
<glyph name="numbersign" format="2">
  <advance width="1472.3799999999999"/>
  <unicode hex="0023"/>
  <outline>
    <contour>
      <point x="217.66" y="0.0" type="line"/>
      <point x="485.74333333333334" y="0.0" type="line"/>
      <point x="695.7433333333333" y="1278.0" type="line"/>
      <point x="427.66" y="1278.0" type="line"/>
    </contour>
    <contour>
      <point x="59.583333333333336" y="258.50333333333333" type="line"/>
      <point x="1337.19" y="258.50333333333333" type="line"/>
      <point x="1337.19" y="490.44" type="line"/>
      <point x="59.583333333333336" y="490.44" type="line"/>
    </contour>
    <contour>
      <point x="789.5133333333333" y="0.0" type="line"/>
      <point x="1059.2933333333333" y="0.0" type="line"/>
      <point x="1260.2033333333334" y="1278.0" type="line"/>
      <point x="990.4233333333333" y="1278.0" type="line"/>
    </contour>
    <contour>
      <point x="135.79666666666668" y="780.9866666666667" type="line"/>
      <point x="1412.7966666666666" y="780.9866666666667" type="line"/>
      <point x="1412.7966666666666" y="1013.2266666666667" type="line"/>
      <point x="135.79666666666668" y="1013.2266666666667" type="line"/>
    </contour>
  </outline>
</glyph>
<glyph name="dollar" format="2">
  <advance width="1464.8766666666668"/>
  <unicode hex="0024"/>
  <anchor x="728.09" y="0.0" name="bottom"/>
  <anchor x="728.09" y="1278.0" name="top"/>
  <outline>
    <contour>
      <point x="866.9799999999999" y="1135.3566666666666" type="line"/>
      <point x="866.9799999999999" y="1518.8533333333335" type="line"/>
      <point x="575.9866666666667" y="1518.8533333333335" type="line"/>
      <point x="575.9866666666667" y="1135.3566666666666" type="line"/>
    </contour>
    <contour>
      <point x="866.9799999999999" y="-240.46" type="line"/>
      <point x="866.9799999999999" y="128.56333333333333" type="line"/>
      <point x="575.9866666666667" y="128.56333333333333" type="line"/>
      <point x="575.9866666666667" y="-240.46" type="line"/>
    </contour>
    <component base="S"/>
  </outline>
</glyph>
<glyph name="percent" format="2">
  <advance width="1960.3633333333332"/>
  <unicode hex="0025"/>
  <outline>
    <contour>
      <point x="301.72999999999996" y="0.0" type="line"/>
      <point x="622.5666666666667" y="0.0" type="line"/>
      <point x="1658.15" y="1278.0" type="line"/>
      <point x="1342.4933333333333" y="1278.0" type="line"/>
    </contour>
    <contour>
      <point x="1504.79" y="-41.96666666666666" type="curve" smooth="yes"/>
      <point x="1745.6" y="-41.96666666666666"/>
      <point x="1883.2633333333333" y="83.51666666666667"/>
      <point x="1883.2633333333333" y="302.9666666666667" type="curve" smooth="yes"/>
      <point x="1883.2633333333333" y="311.36" type="line" smooth="yes"/>
      <point x="1883.2633333333333" y="529.81"/>
      <point x="1743.9033333333332" y="654.2933333333333"/>
      <point x="1504.79" y="654.2933333333333" type="curve" smooth="yes"/>
      <point x="1264.98" y="654.2933333333333"/>
      <point x="1129.7099999999998" y="526.1133333333333"/>
      <point x="1129.7099999999998" y="311.36" type="curve" smooth="yes"/>
      <point x="1129.7099999999998" y="302.9666666666667" type="line" smooth="yes"/>
      <point x="1129.7099999999998" y="83.51666666666667"/>
      <point x="1264.6766666666667" y="-41.96666666666666"/>
    </contour>
    <contour>
      <point x="1504.79" y="158.76666666666668" type="curve" smooth="yes"/>
      <point x="1417.1733333333334" y="158.76666666666668"/>
      <point x="1367.59" y="209.44"/>
      <point x="1367.59" y="302.96666666666664" type="curve" smooth="yes"/>
      <point x="1367.59" y="309.35999999999996" type="line" smooth="yes"/>
      <point x="1367.59" y="401.19"/>
      <point x="1416.1733333333334" y="454.56"/>
      <point x="1504.79" y="454.56" type="curve" smooth="yes"/>
      <point x="1594.8" y="454.56"/>
      <point x="1641.99" y="401.19"/>
      <point x="1641.99" y="309.35999999999996" type="curve" smooth="yes"/>
      <point x="1641.99" y="302.96666666666664" type="line" smooth="yes"/>
      <point x="1641.99" y="209.44"/>
      <point x="1595.1033333333335" y="158.76666666666668"/>
    </contour>
    <contour>
      <point x="452.18" y="625.4033333333333" type="curve" smooth="yes"/>
      <point x="692.6866666666666" y="625.4033333333333"/>
      <point x="830.6533333333334" y="753.5833333333334"/>
      <point x="830.6533333333334" y="969.3366666666667" type="curve" smooth="yes"/>
      <point x="830.6533333333334" y="977.73" type="line" smooth="yes"/>
      <point x="830.6533333333334" y="1196.1799999999998"/>
      <point x="692.99" y="1320.9666666666667"/>
      <point x="452.18" y="1320.9666666666667" type="curve" smooth="yes"/>
      <point x="212.76333333333332" y="1320.9666666666667"/>
      <point x="77.1" y="1196.1799999999998"/>
      <point x="77.1" y="977.73" type="curve" smooth="yes"/>
      <point x="77.1" y="969.3366666666667" type="line" smooth="yes"/>
      <point x="77.1" y="750.1899999999999"/>
      <point x="212.76333333333332" y="625.4033333333333"/>
    </contour>
    <contour>
      <point x="452.18" y="825.1366666666667" type="curve" smooth="yes"/>
      <point x="365.26000000000005" y="825.1366666666667"/>
      <point x="314.6766666666667" y="876.81"/>
      <point x="314.6766666666667" y="969.3366666666667" type="curve" smooth="yes"/>
      <point x="314.6766666666667" y="977.0333333333333" type="line" smooth="yes"/>
      <point x="314.6766666666667" y="1068.56"/>
      <point x="363.56333333333333" y="1121.2333333333333"/>
      <point x="452.18" y="1121.2333333333333" type="curve" smooth="yes"/>
      <point x="542.19" y="1121.2333333333333"/>
      <point x="589.38" y="1068.56"/>
      <point x="589.38" y="977.0333333333333" type="curve" smooth="yes"/>
      <point x="589.38" y="969.3366666666667" type="line" smooth="yes"/>
      <point x="589.38" y="876.81"/>
      <point x="542.4933333333333" y="825.1366666666667"/>
    </contour>
  </outline>
</glyph>
<glyph name="ampersand" format="2">
  <advance width="1691.8666666666666"/>
  <unicode hex="0026"/>
  <outline>
    <contour>
      <point x="1330.0966666666666" y="0.0" type="curve"/>
      <point x="1716.4066666666668" y="0.0" type="line"/>
      <point x="1716.4066666666668" y="32.449999999999996" type="line"/>
      <point x="1651.9266666666667" y="89.07666666666667"/>
      <point x="1420.1333333333334" y="285.02666666666664"/>
      <point x="1343.5633333333333" y="349.62" type="curve"/>
      <point x="1210.3133333333335" y="460.0833333333333" type="line"/>
      <point x="713.8233333333333" y="825.71" type="line" smooth="yes"/>
      <point x="648.69" y="872.9"/>
      <point x="613.68" y="907.36"/>
      <point x="613.68" y="952.7066666666666" type="curve" smooth="yes"/>
      <point x="613.68" y="955.4033333333333" type="line" smooth="yes"/>
      <point x="613.68" y="1010.2666666666668"/>
      <point x="654.2066666666666" y="1047.3666666666668"/>
      <point x="791.4733333333334" y="1047.3666666666668" type="curve" smooth="yes"/>
      <point x="941.4266666666667" y="1047.3666666666668"/>
      <point x="1110.91" y="1013.2099999999999"/>
      <point x="1245.0566666666666" y="964.8733333333333" type="curve"/>
      <point x="1202.7299999999998" y="1233.5966666666666" type="line"/>
      <point x="1090.19" y="1275.72"/>
      <point x="942.1566666666668" y="1311.5733333333333"/>
      <point x="729.5166666666667" y="1311.5733333333333" type="curve" smooth="yes"/>
      <point x="404.15666666666664" y="1311.5733333333333"/>
      <point x="243.1333333333333" y="1192.7866666666666"/>
      <point x="243.1333333333333" y="991.0333333333334" type="curve" smooth="yes"/>
      <point x="243.1333333333333" y="982.9433333333333" type="line" smooth="yes"/>
      <point x="243.1333333333333" y="880.4833333333333"/>
      <point x="289.07666666666665" y="804.9666666666667"/>
      <point x="385.96333333333337" y="732.3266666666667" type="curve"/>
      <point x="455.88666666666666" y="659.4933333333333" type="line"/>
      <point x="1017.5566666666667" y="255.17" type="line"/>
      <point x="1091.6933333333336" y="195.64" type="line"/>
      <point x="1126.5133333333333" y="166.03333333333333"/>
      <point x="1282.3100000000002" y="37.483333333333334"/>
    </contour>
    <contour>
      <point x="676.7633333333333" y="-36.269999999999996" type="curve" smooth="yes"/>
      <point x="937.6733333333334" y="-36.269999999999996"/>
      <point x="1104.8300000000002" y="36.156666666666666"/>
      <point x="1252.6166666666666" y="159.70666666666668" type="curve"/>
      <point x="1337.9666666666667" y="234.39333333333332" type="line"/>
      <point x="1478.17" y="379.2033333333333"/>
      <point x="1568.2933333333333" y="547.9666666666666"/>
      <point x="1617.8333333333335" y="781.1133333333333" type="curve"/>
      <point x="1274.5233333333333" y="781.1133333333333" type="line"/>
      <point x="1247.49" y="631.1933333333334"/>
      <point x="1197.4233333333334" y="508.15999999999997"/>
      <point x="1111.5133333333333" y="401.15999999999997" type="curve"/>
      <point x="1038.6466666666665" y="330.26" type="line"/>
      <point x="954.5466666666666" y="266.39666666666665"/>
      <point x="846.0766666666666" y="229.02666666666667"/>
      <point x="716.4499999999999" y="229.02666666666667" type="curve" smooth="yes"/>
      <point x="524.8566666666667" y="229.02666666666667"/>
      <point x="427.42" y="307.03666666666663"/>
      <point x="427.42" y="423.99" type="curve" smooth="yes"/>
      <point x="427.42" y="431.29333333333335" type="line" smooth="yes"/>
      <point x="427.42" y="528.64"/>
      <point x="484.3966666666667" y="583.6166666666667"/>
      <point x="585.8666666666667" y="622.47" type="curve"/>
      <point x="389.28999999999996" y="809.08" type="line"/>
      <point x="176.86333333333334" y="721.1133333333333"/>
      <point x="85.65" y="587.1466666666666"/>
      <point x="85.65" y="396.2366666666667" type="curve" smooth="yes"/>
      <point x="85.65" y="387.2366666666667" type="line" smooth="yes"/>
      <point x="85.65" y="133.69666666666666"/>
      <point x="280.04333333333335" y="-36.269999999999996"/>
    </contour>
  </outline>
</glyph>
<glyph name="quotesingle" format="2">
  <advance width="502.76666666666665"/>
  <unicode hex="0027"/>
  <outline>
    <contour>
      <point x="380.6666666666667" y="767.7066666666667" type="line"/>
      <point x="419.2966666666666" y="1315.5166666666667" type="line"/>
      <point x="83.47" y="1315.5166666666667" type="line"/>
      <point x="118.01" y="767.7066666666667" type="line"/>
    </contour>
  </outline>
</glyph>
<glyph name="parenleft" format="2">
  <advance width="813.71"/>
  <unicode hex="0028"/>
  <outline>
    <contour>
      <point x="464.1166666666667" y="556.2466666666667" type="line" smooth="yes"/>
      <point x="464.1166666666667" y="845.0333333333334"/>
      <point x="566.6333333333333" y="1108.6733333333332"/>
      <point x="786.1166666666667" y="1348.6966666666667" type="curve"/>
      <point x="441.34666666666664" y="1348.6966666666667" type="line"/>
      <point x="231.77333333333334" y="1120.55"/>
      <point x="134.55999999999997" y="868.4833333333333"/>
      <point x="134.55999999999997" y="556.2466666666667" type="curve" smooth="yes"/>
      <point x="134.55999999999997" y="537.9433333333334" type="line" smooth="yes"/>
      <point x="134.55999999999997" y="220.67333333333335"/>
      <point x="223.98666666666665" y="-25.91"/>
      <point x="435.9533333333333" y="-259.8433333333333" type="curve"/>
      <point x="786.1166666666667" y="-259.8433333333333" type="line"/>
      <point x="565.6333333333333" y="-17.516666666666666"/>
      <point x="464.1166666666667" y="252.2133333333333"/>
      <point x="464.1166666666667" y="537.9433333333334" type="curve" smooth="yes"/>
    </contour>
  </outline>
</glyph>
<glyph name="asterisk" format="2">
  <advance width="941.9000000000001"/>
  <unicode hex="002A"/>
  <outline>
    <contour>
      <point x="316.16999999999996" y="519.57" type="line"/>
      <point x="468.6633333333333" y="744.94" type="line"/>
      <point x="473.2366666666667" y="744.94" type="line"/>
      <point x="627.73" y="519.57" type="line"/>
      <point x="837.7333333333333" y="672.0666666666667" type="line"/>
      <point x="639.4866666666667" y="850.5933333333334" type="line"/>
      <point x="641.1833333333333" y="855.1666666666666" type="line"/>
      <point x="900.1933333333334" y="893.5366666666666" type="line"/>
      <point x="833.6866666666666" y="1136.8999999999999" type="line"/>
      <point x="577.98" y="1024.72" type="line"/>
      <point x="574.4966666666667" y="1027.2033333333334" type="line"/>
      <point x="608.16" y="1278.0" type="line"/>
      <point x="333.74" y="1278.0" type="line"/>
      <point x="367.70666666666665" y="1027.2033333333334" type="line"/>
      <point x="363.92" y="1024.72" type="line"/>
      <point x="108.21333333333332" y="1136.8999999999999" type="line"/>
      <point x="41.70666666666666" y="893.5366666666666" type="line"/>
      <point x="301.41333333333336" y="855.1666666666666" type="line"/>
      <point x="302.11" y="850.5933333333334" type="line"/>
      <point x="103.86333333333334" y="672.0666666666667" type="line"/>
    </contour>
  </outline>
</glyph>
<glyph name="plus" format="2">
  <advance width="1326.55"/>
  <unicode hex="002B"/>
  <outline>
    <contour>
      <point x="805.5866666666667" y="74.46000000000001" type="line"/>
      <point x="805.5866666666667" y="1127.7866666666666" type="line"/>
      <point x="520.9633333333334" y="1127.7866666666666" type="line"/>
      <point x="520.9633333333334" y="74.46000000000001" type="line"/>
    </contour>
    <contour>
      <point x="122.88666666666668" y="470.1433333333334" type="line"/>
      <point x="1203.6633333333334" y="470.1433333333334" type="line"/>
      <point x="1203.6633333333334" y="732.1033333333334" type="line"/>
      <point x="122.88666666666668" y="732.1033333333334" type="line"/>
    </contour>
  </outline>
</glyph>
<glyph name="comma" format="2">
  <advance width="550.9699999999999"/>
  <unicode hex="002C"/>
  <outline>
    <contour>
      <point x="433.59999999999997" y="326.53000000000003" type="curve"/>
      <point x="117.01" y="326.53000000000003" type="line"/>
      <point x="121.31333333333333" y="281.65333333333336"/>
      <point x="123.31333333333332" y="242.26000000000002"/>
      <point x="123.31333333333332" y="196.47333333333333" type="curve" smooth="yes"/>
      <point x="123.31333333333332" y="35.08"/>
      <point x="91.70666666666666" y="-94.10000000000001"/>
      <point x="23.64" y="-215.70666666666665" type="curve"/>
      <point x="266.15" y="-267.15666666666664" type="line"/>
      <point x="393.7233333333333" y="-125.97666666666666"/>
      <point x="444.2966666666666" y="25.686666666666664"/>
      <point x="444.2966666666666" y="207.95666666666668" type="curve" smooth="yes"/>
      <point x="444.2966666666666" y="250.56333333333333"/>
      <point x="439.2966666666666" y="294.65333333333336"/>
    </contour>
  </outline>
</glyph>
<glyph name="hyphen" format="2">
  <advance width="938.4"/>
  <unicode hex="002D"/>
  <outline>
    <contour>
      <point x="107.95333333333335" y="388.53666666666663" type="line"/>
      <point x="830.4466666666667" y="388.53666666666663" type="line"/>
      <point x="830.4466666666667" y="651.1033333333332" type="line"/>
      <point x="107.95333333333335" y="651.1033333333332" type="line"/>
    </contour>
  </outline>
</glyph>
<glyph name="period" format="2">
  <advance width="582.15"/>
  <unicode hex="002E"/>
  <outline>
    <contour>
      <point x="290.92333333333335" y="-30.966666666666665" type="curve" smooth="yes"/>
      <point x="423.54333333333335" y="-30.966666666666665"/>
      <point x="484.56666666666666" y="34.14666666666667"/>
      <point x="484.56666666666666" y="139.71" type="curve" smooth="yes"/>
      <point x="484.56666666666666" y="144.40666666666667" type="line" smooth="yes"/>
      <point x="484.56666666666666" y="250.66666666666666"/>
      <point x="423.54333333333335" y="317.17333333333335"/>
      <point x="290.92333333333335" y="317.17333333333335" type="curve" smooth="yes"/>
      <point x="158.21333333333334" y="317.17333333333335"/>
      <point x="97.58333333333334" y="250.66666666666666"/>
      <point x="97.58333333333334" y="144.40666666666667" type="curve" smooth="yes"/>
      <point x="97.58333333333334" y="139.71" type="line" smooth="yes"/>
      <point x="97.58333333333334" y="34.14666666666667"/>
      <point x="158.21333333333334" y="-30.966666666666665"/>
    </contour>
  </outline>
</glyph>
<glyph name="slash" format="2">
  <advance width="1243.3300000000002"/>
  <unicode hex="002F"/>
  <outline>
    <contour>
      <point x="-28.28333333333333" y="-258.32666666666665" type="line"/>
      <point x="298.7" y="-258.32666666666665" type="line"/>
      <point x="1271.6133333333332" y="1344.1466666666665" type="line"/>
      <point x="946.3266666666666" y="1344.1466666666665" type="line"/>
    </contour>
  </outline>
</glyph>
<glyph name="zero" format="2">
  <advance width="1575.9233333333334"/>
  <unicode hex="0030"/>
  <outline>
    <contour>
      <point x="787.81" y="-41.36" type="curve" smooth="yes"/>
      <point x="1238.8000000000002" y="-41.36"/>
      <point x="1475.43" y="193.94333333333333"/>
      <point x="1475.43" y="631.3933333333333" type="curve"/>
      <point x="1475.43" y="646.3033333333334" type="line"/>
      <point x="1475.43" y="1081.0566666666666"/>
      <point x="1238.8000000000002" y="1317.6633333333334"/>
      <point x="787.81" y="1317.6633333333334" type="curve" smooth="yes"/>
      <point x="337.12333333333333" y="1317.6633333333334"/>
      <point x="100.49333333333334" y="1081.0566666666666"/>
      <point x="100.49333333333334" y="646.3033333333334" type="curve"/>
      <point x="100.49333333333334" y="631.3933333333333" type="line"/>
      <point x="100.49333333333334" y="193.94333333333333"/>
      <point x="338.82" y="-41.36"/>
    </contour>
    <contour>
      <point x="787.81" y="244.05" type="curve" smooth="yes"/>
      <point x="565.7233333333332" y="244.05"/>
      <point x="459.77" y="382.52000000000004"/>
      <point x="459.77" y="629.6966666666667" type="curve" smooth="yes"/>
      <point x="459.77" y="646.3033333333333" type="line" smooth="yes"/>
      <point x="459.77" y="892.0866666666666"/>
      <point x="563.0266666666666" y="1032.2533333333333"/>
      <point x="787.81" y="1032.2533333333333" type="curve" smooth="yes"/>
      <point x="1012.8966666666668" y="1032.2533333333333"/>
      <point x="1116.1533333333334" y="893.7833333333333"/>
      <point x="1116.1533333333334" y="646.3033333333333" type="curve" smooth="yes"/>
      <point x="1116.1533333333334" y="629.6966666666667" type="line" smooth="yes"/>
      <point x="1116.1533333333334" y="382.52000000000004"/>
      <point x="1012.8966666666668" y="244.05"/>
    </contour>
  </outline>
</glyph>
<glyph name="one" format="2">
  <advance width="902.8333333333333"/>
  <unicode hex="0031"/>
  <outline>
    <contour>
      <point x="406.2666666666667" y="0.0" type="line"/>
      <point x="754.3633333333333" y="0.0" type="line"/>
      <point x="754.3633333333333" y="1278.0" type="line"/>
      <point x="434.1666666666667" y="1278.0" type="line"/>
      <point x="58.58333333333333" y="1138.8333333333333" type="line"/>
      <point x="49.28" y="836.5466666666666" type="line"/>
      <point x="391.2666666666667" y="961.8366666666667" type="line"/>
      <point x="406.2666666666667" y="961.8366666666667" type="line"/>
    </contour>
  </outline>
</glyph>
<glyph name="two" format="2">
  <advance width="1311.7533333333333"/>
  <unicode hex="0032"/>
  <outline>
    <contour>
      <point x="72.67333333333333" y="0.0" type="line"/>
      <point x="1232.1699999999998" y="0.0" type="line"/>
      <point x="1232.1699999999998" y="279.8366666666667" type="line"/>
      <point x="455.97333333333336" y="279.8366666666667" type="line"/>
      <point x="606.8866666666667" y="222.02666666666667" type="line"/>
      <point x="606.8866666666667" y="291.9266666666667" type="line"/>
      <point x="837.4766666666667" y="410.9566666666667" type="line" smooth="yes"/>
      <point x="1105.2066666666667" y="546.45"/>
      <point x="1211.7433333333333" y="675.4833333333333"/>
      <point x="1211.7433333333333" y="876.9766666666667" type="curve" smooth="yes"/>
      <point x="1211.7433333333333" y="890.0666666666667" type="line" smooth="yes"/>
      <point x="1211.7433333333333" y="1159.91"/>
      <point x="1012.2933333333333" y="1309.8766666666668"/>
      <point x="639.91" y="1309.8766666666668" type="curve" smooth="yes"/>
      <point x="415.3033333333333" y="1309.8766666666668"/>
      <point x="238.8766666666667" y="1257.4166666666667"/>
      <point x="120.69666666666666" y="1200.5966666666666" type="curve"/>
      <point x="82.46000000000001" y="902.4566666666667" type="line"/>
      <point x="208.58333333333334" y="960.8266666666666"/>
      <point x="383.7966666666667" y="1018.68"/>
      <point x="569.6833333333334" y="1018.68" type="curve" smooth="yes"/>
      <point x="786.2666666666667" y="1018.68"/>
      <point x="851.77" y="945.4"/>
      <point x="851.77" y="843.5933333333334" type="curve" smooth="yes"/>
      <point x="851.77" y="836.8966666666668" type="line" smooth="yes"/>
      <point x="851.77" y="718.09"/>
      <point x="741.5699999999999" y="642.1700000000001"/>
      <point x="501.4566666666667" y="520.1366666666668" type="curve" smooth="yes"/>
      <point x="72.67333333333333" y="299.83666666666664" type="line"/>
    </contour>
  </outline>
</glyph>
<glyph name="three" format="2">
  <advance width="1369.2133333333334"/>
  <unicode hex="0033"/>
  <outline>
    <contour>
      <point x="627.1" y="-32.483333333333334" type="curve" smooth="yes"/>
      <point x="1073.0566666666666" y="-32.483333333333334"/>
      <point x="1288.5966666666668" y="110.33666666666667"/>
      <point x="1288.5966666666668" y="350.73" type="curve" smooth="yes"/>
      <point x="1288.5966666666668" y="365.12333333333333" type="line" smooth="yes"/>
      <point x="1288.5966666666668" y="542.0333333333333"/>
      <point x="1197.5966666666666" y="646.3933333333333"/>
      <point x="951.9200000000001" y="668.82" type="curve"/>
      <point x="973.9433333333334" y="636.37" type="line"/>
      <point x="973.9433333333334" y="680.6066666666667" type="line"/>
      <point x="1190.6866666666665" y="695.2466666666667"/>
      <point x="1277.3833333333334" y="786.1566666666666"/>
      <point x="1277.3833333333334" y="950.82" type="curve" smooth="yes"/>
      <point x="1277.3833333333334" y="962.4266666666666" type="line" smooth="yes"/>
      <point x="1277.3833333333334" y="1193.27"/>
      <point x="1071.5733333333333" y="1310.8766666666668"/>
      <point x="659.8866666666667" y="1310.8766666666668" type="curve" smooth="yes"/>
      <point x="423.03333333333336" y="1310.8766666666668"/>
      <point x="246.91" y="1269.1133333333335"/>
      <point x="116.58333333333333" y="1218.6866666666665" type="curve"/>
      <point x="85.61666666666667" y="942.9966666666666" type="line"/>
      <point x="214.70666666666668" y="985.58"/>
      <point x="414.74" y="1034.8266666666666"/>
      <point x="615.47" y="1034.8266666666666" type="curve" smooth="yes"/>
      <point x="847.4566666666667" y="1034.8266666666666"/>
      <point x="918.1066666666666" y="998.3"/>
      <point x="918.1066666666666" y="914.83" type="curve" smooth="yes"/>
      <point x="918.1066666666666" y="910.3133333333333" type="line" smooth="yes"/>
      <point x="918.1066666666666" y="830.5733333333333"/>
      <point x="860.31" y="793.62"/>
      <point x="686.1333333333334" y="789.62" type="curve" smooth="yes"/>
      <point x="287.62666666666667" y="780.8333333333334" type="line"/>
      <point x="287.62666666666667" y="526.02" type="line"/>
      <point x="687.5266666666666" y="517.84" type="line" smooth="yes"/>
      <point x="864.13" y="514.1433333333333"/>
      <point x="923.5333333333334" y="478.7966666666667"/>
      <point x="923.5333333333334" y="395.11333333333334" type="curve" smooth="yes"/>
      <point x="923.5333333333334" y="387.59666666666664" type="line" smooth="yes"/>
      <point x="923.5333333333334" y="300.91333333333336"/>
      <point x="852.94" y="249.4766666666667"/>
      <point x="600.3799999999999" y="249.4766666666667" type="curve" smooth="yes"/>
      <point x="393.31333333333333" y="249.4766666666667"/>
      <point x="213.58333333333331" y="291.24"/>
      <point x="76.92" y="339.39666666666665" type="curve"/>
      <point x="107.88666666666667" y="48.1" type="line"/>
      <point x="216.73" y="12.279999999999998"/>
      <point x="400.46" y="-32.483333333333334"/>
    </contour>
  </outline>
</glyph>
<glyph name="four" format="2">
  <advance width="1477.5533333333333"/>
  <unicode hex="0034"/>
  <outline>
    <contour>
      <point x="917.2566666666667" y="0.0" type="line"/>
      <point x="1246.1166666666666" y="0.0" type="line"/>
      <point x="1246.1166666666666" y="1278.0" type="line"/>
      <point x="723.9733333333334" y="1278.0" type="line"/>
      <point x="66.12333333333333" y="549.4533333333333" type="line"/>
      <point x="66.12333333333333" y="227.74" type="line"/>
      <point x="1435.98" y="227.74" type="line"/>
      <point x="1435.98" y="498.2166666666667" type="line"/>
      <point x="301.75666666666666" y="498.2166666666667" type="line"/>
      <point x="421.8933333333333" y="358.54" type="line"/>
      <point x="421.8933333333333" y="518.61" type="line"/>
      <point x="887.9533333333334" y="1037.0066666666667" type="line"/>
      <point x="920.9533333333333" y="1037.0066666666667" type="line"/>
      <point x="917.2566666666667" y="778.4333333333333" type="line"/>
    </contour>
  </outline>
</glyph>
<glyph name="five" format="2">
  <advance width="1445.9666666666667"/>
  <unicode hex="0035"/>
  <outline>
    <contour>
      <point x="698.19" y="-32.96666666666667" type="curve" smooth="yes"/>
      <point x="1197.5866666666668" y="-32.96666666666667"/>
      <point x="1363.1699999999998" y="161.96666666666667"/>
      <point x="1363.1699999999998" y="420.36" type="curve" smooth="yes"/>
      <point x="1363.1699999999998" y="436.0566666666667" type="line" smooth="yes"/>
      <point x="1363.1699999999998" y="694.0566666666667"/>
      <point x="1211.7433333333333" y="844.0566666666667"/>
      <point x="905.4966666666667" y="844.0566666666667" type="curve" smooth="yes"/>
      <point x="661.4066666666666" y="844.0566666666667"/>
      <point x="525.2166666666667" y="755.36"/>
      <point x="464.0266666666667" y="636.4833333333332" type="curve"/>
      <point x="454.6333333333333" y="636.4833333333332" type="line"/>
      <point x="457.33" y="801.01" type="line"/>
      <point x="455.93666666666667" y="1003.6466666666666" type="line"/>
      <point x="1306.7766666666666" y="1003.6466666666666" type="line"/>
      <point x="1306.7766666666666" y="1278.0" type="line"/>
      <point x="131.56" y="1278.0" type="line"/>
      <point x="131.56" y="533.0" type="line"/>
      <point x="424.57666666666665" y="473.49333333333334" type="line"/>
      <point x="498.58666666666664" y="541.0533333333333"/>
      <point x="611.2366666666666" y="588.7266666666667"/>
      <point x="769.9766666666667" y="588.7266666666667" type="curve" smooth="yes"/>
      <point x="941.3333333333333" y="588.7266666666667"/>
      <point x="1013.3766666666667" y="528.8966666666666"/>
      <point x="1013.3766666666667" y="431.27" type="curve" smooth="yes"/>
      <point x="1013.3766666666667" y="423.66333333333336" type="line" smooth="yes"/>
      <point x="1013.3766666666667" y="328.00333333333333"/>
      <point x="945.66" y="249.69"/>
      <point x="677.8299999999999" y="249.69" type="curve" smooth="yes"/>
      <point x="458.9766666666667" y="249.69"/>
      <point x="250.04333333333332" y="307.90333333333336"/>
      <point x="123.64999999999999" y="359.5433333333333" type="curve"/>
      <point x="159.49333333333334" y="60.58333333333333" type="line"/>
      <point x="259.49333333333334" y="19.46"/>
      <point x="459.03333333333336" y="-32.96666666666667"/>
    </contour>
  </outline>
</glyph>
<glyph name="six" format="2">
  <advance width="1512.3500000000001"/>
  <unicode hex="0036"/>
  <outline>
    <contour>
      <point x="795.9333333333334" y="-40.75333333333333" type="curve" smooth="yes"/>
      <point x="1204.7099999999998" y="-40.75333333333333"/>
      <point x="1424.7666666666667" y="117.94333333333333"/>
      <point x="1424.7666666666667" y="404.0" type="curve" smooth="yes"/>
      <point x="1424.7666666666667" y="422.09000000000003" type="line" smooth="yes"/>
      <point x="1424.7666666666667" y="676.6966666666666"/>
      <point x="1249.07" y="822.3033333333334"/>
      <point x="932.3399999999999" y="822.3033333333334" type="curve" smooth="yes"/>
      <point x="655.9933333333333" y="822.3033333333334"/>
      <point x="506.83666666666664" y="721.7766666666668"/>
      <point x="454.5" y="573.62" type="curve"/>
      <point x="402.69" y="573.62" type="line"/>
      <point x="448.7133333333333" y="428.56333333333333" type="line"/>
      <point x="515.5333333333333" y="514.8299999999999"/>
      <point x="646.3633333333333" y="578.4566666666667"/>
      <point x="810.8766666666667" y="578.4566666666667" type="curve" smooth="yes"/>
      <point x="1024.9533333333334" y="578.4566666666667"/>
      <point x="1077.0633333333333" y="502.65999999999997"/>
      <point x="1077.0633333333333" y="416.0" type="curve" smooth="yes"/>
      <point x="1077.0633333333333" y="408.3933333333333" type="line" smooth="yes"/>
      <point x="1077.0633333333333" y="306.12666666666667"/>
      <point x="989.6833333333333" y="239.78"/>
      <point x="805.1133333333333" y="239.78" type="curve" smooth="yes"/>
      <point x="565.61" y="239.78"/>
      <point x="443.59" y="356.55333333333334"/>
      <point x="443.59" y="599.91" type="curve"/>
      <point x="443.59" y="615.1233333333332" type="line" smooth="yes"/>
      <point x="443.59" y="900.9300000000001"/>
      <point x="590.2966666666667" y="1031.4333333333334"/>
      <point x="902.33" y="1031.4333333333334" type="curve" smooth="yes"/>
      <point x="1091.1933333333332" y="1031.4333333333334"/>
      <point x="1232.3400000000001" y="992.4000000000001"/>
      <point x="1361.1266666666666" y="938.1533333333333" type="curve"/>
      <point x="1322.1933333333334" y="1222.9333333333334" type="line"/>
      <point x="1199.7433333333333" y="1271.54"/>
      <point x="1037.5066666666667" y="1308.8766666666668"/>
      <point x="831.35" y="1308.8766666666668" type="curve" smooth="yes"/>
      <point x="355.09" y="1308.8766666666668"/>
      <point x="92.79666666666667" y="1052.7866666666666"/>
      <point x="92.79666666666667" y="614.4266666666666" type="curve" smooth="yes"/>
      <point x="92.79666666666667" y="597.5166666666667" type="line" smooth="yes"/>
      <point x="92.79666666666667" y="190.94333333333336"/>
      <point x="352.67333333333335" y="-40.75333333333333"/>
    </contour>
  </outline>
</glyph>
<glyph name="seven" format="2">
  <advance width="1303.99"/>
  <unicode hex="0037"/>
  <outline>
    <contour>
      <point x="239.35666666666668" y="0.0" type="line"/>
      <point x="631.6" y="0.0" type="line"/>
      <point x="1233.26" y="996.0733333333334" type="line"/>
      <point x="1233.26" y="1278.0" type="line"/>
      <point x="65.15666666666667" y="1278.0" type="line"/>
      <point x="65.15666666666667" y="998.77" type="line"/>
      <point x="853.1966666666667" y="998.77" type="line"/>
    </contour>
  </outline>
</glyph>
<glyph name="eight" format="2">
  <advance width="1535.4833333333333"/>
  <unicode hex="0038"/>
  <outline>
    <contour>
      <point x="765.0" y="-47.056666666666665" type="curve" smooth="yes"/>
      <point x="1319.7" y="-47.056666666666665"/>
      <point x="1451.6533333333334" y="130.54"/>
      <point x="1451.6533333333334" y="332.3933333333333" type="curve" smooth="yes"/>
      <point x="1451.6533333333334" y="347.0" type="line" smooth="yes"/>
      <point x="1451.6533333333334" y="527.5166666666667"/>
      <point x="1331.44" y="639.6966666666666"/>
      <point x="1110.8533333333332" y="670.3033333333333" type="curve"/>
      <point x="1110.8533333333332" y="683.09" type="line"/>
      <point x="1310.3500000000001" y="700.3033333333333"/>
      <point x="1432.7433333333333" y="794.6966666666667"/>
      <point x="1432.7433333333333" y="956.9100000000001" type="curve" smooth="yes"/>
      <point x="1432.7433333333333" y="971.82" type="line" smooth="yes"/>
      <point x="1432.7433333333333" y="1183.5166666666667"/>
      <point x="1228.1366666666665" y="1314.8766666666668"/>
      <point x="765.0" y="1314.8766666666668" type="curve" smooth="yes"/>
      <point x="307.3466666666667" y="1314.8766666666668"/>
      <point x="102.74" y="1183.5166666666667"/>
      <point x="102.74" y="971.82" type="curve" smooth="yes"/>
      <point x="102.74" y="956.9100000000001" type="line" smooth="yes"/>
      <point x="102.74" y="793.6966666666667"/>
      <point x="225.13333333333333" y="700.3033333333333"/>
      <point x="424.63" y="683.09" type="curve"/>
      <point x="424.63" y="670.3033333333333" type="line"/>
      <point x="207.13333333333335" y="640.3933333333333"/>
      <point x="83.83" y="529.2133333333334"/>
      <point x="83.83" y="347.0" type="curve" smooth="yes"/>
      <point x="83.83" y="332.3933333333333" type="line" smooth="yes"/>
      <point x="83.83" y="110.87666666666667"/>
      <point x="243.93" y="-47.056666666666665"/>
    </contour>
    <contour>
      <point x="773.4833333333333" y="221.69" type="curve" smooth="yes"/>
      <point x="526.6433333333333" y="221.69"/>
      <point x="439.23" y="276.3966666666667"/>
      <point x="439.23" y="367.71999999999997" type="curve" smooth="yes"/>
      <point x="439.23" y="374.84333333333336" type="line" smooth="yes"/>
      <point x="439.23" y="456.38"/>
      <point x="517.0699999999999" y="511.0866666666667"/>
      <point x="750.4266666666666" y="533.84" type="curve"/>
      <point x="1002.4466666666667" y="510.08666666666664"/>
      <point x="1096.253333333333" y="462.46999999999997"/>
      <point x="1096.253333333333" y="374.84333333333336" type="curve" smooth="yes"/>
      <point x="1096.253333333333" y="367.71999999999997" type="line" smooth="yes"/>
      <point x="1096.253333333333" y="280.79"/>
      <point x="1014.2333333333333" y="221.69"/>
    </contour>
    <contour>
      <point x="782.6633333333334" y="773.1366666666667" type="curve"/>
      <point x="528.3733333333333" y="789.4066666666666"/>
      <point x="450.3533333333333" y="848.0799999999999"/>
      <point x="450.3533333333333" y="922.5833333333334" type="curve" smooth="yes"/>
      <point x="450.3533333333333" y="930.4033333333333" type="line" smooth="yes"/>
      <point x="450.3533333333333" y="1011.2099999999998"/>
      <point x="542.34" y="1059.0066666666667"/>
      <point x="765.0" y="1059.0066666666667" type="curve" smooth="yes"/>
      <point x="994.84" y="1059.0066666666667"/>
      <point x="1085.8266666666668" y="1010.5133333333332"/>
      <point x="1085.8266666666668" y="927.01" type="curve" smooth="yes"/>
      <point x="1085.8266666666668" y="919.8866666666667" type="line" smooth="yes"/>
      <point x="1085.8266666666668" y="843.6866666666666"/>
      <point x="990.1433333333332" y="789.4066666666666"/>
    </contour>
  </outline>
</glyph>
<glyph name="nine" format="2">
  <advance width="1511.44"/>
  <unicode hex="0039"/>
  <outline>
    <contour>
      <point x="729.2033333333334" y="1308.8766666666668" type="curve" smooth="yes"/>
      <point x="315.90999999999997" y="1308.8766666666668"/>
      <point x="87.58333333333333" y="1147.0900000000001"/>
      <point x="87.58333333333333" y="859.9433333333333" type="curve" smooth="yes"/>
      <point x="87.58333333333333" y="840.8533333333334" type="line" smooth="yes"/>
      <point x="87.58333333333333" y="593.1233333333333"/>
      <point x="271.7633333333333" y="445.12333333333333"/>
      <point x="582.7066666666666" y="445.12333333333333" type="curve" smooth="yes"/>
      <point x="857.3233333333334" y="445.12333333333333"/>
      <point x="1008.9066666666666" y="540.7733333333333"/>
      <point x="1062.03" y="688.9300000000001" type="curve"/>
      <point x="1131.4133333333334" y="688.9300000000001" type="line"/>
      <point x="1068.1200000000001" y="833.6833333333333" type="line"/>
      <point x="995.6033333333335" y="744.8100000000001"/>
      <point x="860.5933333333334" y="688.97"/>
      <point x="712.9566666666666" y="688.97" type="curve" smooth="yes"/>
      <point x="525.51" y="688.97"/>
      <point x="439.0733333333333" y="747.8000000000001"/>
      <point x="439.0733333333333" y="853.73" type="curve" smooth="yes"/>
      <point x="439.0733333333333" y="861.3366666666666" type="line" smooth="yes"/>
      <point x="439.0733333333333" y="962.9966666666667"/>
      <point x="532.33" y="1028.3433333333335"/>
      <point x="722.4166666666667" y="1028.3433333333335" type="curve" smooth="yes"/>
      <point x="962.5600000000001" y="1028.3433333333335"/>
      <point x="1071.94" y="917.9633333333334"/>
      <point x="1071.94" y="646.7866666666666" type="curve"/>
      <point x="1071.94" y="633.5733333333334" type="line" smooth="yes"/>
      <point x="1071.94" y="358.98"/>
      <point x="925.0533333333333" y="240.17333333333332"/>
      <point x="578.5033333333333" y="240.17333333333332" type="curve" smooth="yes"/>
      <point x="416.46" y="240.17333333333332"/>
      <point x="273.28000000000003" y="277.42"/>
      <point x="157.97666666666666" y="328.36333333333334" type="curve"/>
      <point x="196.21333333333334" y="32.31333333333333" type="line"/>
      <point x="301.7866666666667" y="-8.203333333333333"/>
      <point x="452.93333333333334" y="-39.75333333333333"/>
      <point x="640.2133333333334" y="-39.75333333333333" type="curve" smooth="yes"/>
      <point x="1144.3833333333332" y="-39.75333333333333"/>
      <point x="1419.5533333333333" y="202.82000000000002"/>
      <point x="1419.5533333333333" y="622.3933333333333" type="curve" smooth="yes"/>
      <point x="1419.5533333333333" y="639.3033333333333" type="line" smooth="yes"/>
      <point x="1419.5533333333333" y="1070.6066666666666"/>
      <point x="1189.2833333333333" y="1308.8766666666668"/>
    </contour>
  </outline>
</glyph>
<glyph name="less" format="2">
  <advance width="1334.1333333333332"/>
  <unicode hex="003C"/>
  <outline>
    <contour>
      <point x="348.2833333333333" y="607.0333333333334" type="line"/>
      <point x="1203.6633333333334" y="759.94" type="line"/>
      <point x="1203.6633333333334" y="1049.17" type="line"/>
      <point x="122.88666666666668" y="813.1833333333334" type="line"/>
      <point x="122.88666666666668" y="375.7933333333333" type="line"/>
      <point x="1203.6633333333334" y="136.41333333333333" type="line"/>
      <point x="1203.6633333333334" y="427.34" type="line"/>
      <point x="348.2833333333333" y="584.6400000000001" type="line"/>
    </contour>
  </outline>
</glyph>
<glyph name="equal" format="2">
  <advance width="1345.9433333333332"/>
  <unicode hex="003D"/>
  <outline>
    <contour>
      <point x="134.1" y="238.41333333333336" type="line"/>
      <point x="1211.8433333333335" y="238.41333333333336" type="line"/>
      <point x="1211.8433333333335" y="500.97999999999996" type="line"/>
      <point x="134.1" y="500.97999999999996" type="line"/>
    </contour>
    <contour>
      <point x="134.1" y="703.2666666666668" type="line"/>
      <point x="1211.8433333333335" y="703.2666666666668" type="line"/>
      <point x="1211.8433333333335" y="965.8333333333333" type="line"/>
      <point x="134.1" y="965.8333333333333" type="line"/>
    </contour>
  </outline>
</glyph>
<glyph name="greater" format="2">
  <advance width="1334.1333333333332"/>
  <unicode hex="003E"/>
  <outline>
    <contour>
      <point x="985.85" y="607.0333333333334" type="line"/>
      <point x="985.85" y="584.6400000000001" type="line"/>
      <point x="130.46999999999997" y="427.34" type="line"/>
      <point x="130.46999999999997" y="136.41333333333333" type="line"/>
      <point x="1211.2466666666667" y="375.7933333333333" type="line"/>
      <point x="1211.2466666666667" y="813.1833333333334" type="line"/>
      <point x="130.46999999999997" y="1049.17" type="line"/>
      <point x="130.46999999999997" y="759.94" type="line"/>
    </contour>
  </outline>
</glyph>
<glyph name="question" format="2">
  <advance width="1273.6399999999999"/>
  <unicode hex="003F"/>
  <outline>
    <contour>
      <point x="353.26666666666665" y="425.27" type="line"/>
      <point x="518.4266666666666" y="431.5733333333333" type="line" smooth="yes"/>
      <point x="946.9100000000001" y="449.21333333333337"/>
      <point x="1195.6299999999999" y="569.7966666666666"/>
      <point x="1195.6299999999999" y="881.2133333333334" type="curve" smooth="yes"/>
      <point x="1195.6299999999999" y="894.9100000000001" type="line" smooth="yes"/>
      <point x="1195.6299999999999" y="1172.4499999999998"/>
      <point x="992.4266666666667" y="1309.5733333333333"/>
      <point x="598.7966666666666" y="1309.5733333333333" type="curve" smooth="yes"/>
      <point x="374.64" y="1309.5733333333333"/>
      <point x="184.64000000000001" y="1255.2033333333331"/>
      <point x="82.24666666666667" y="1211.6533333333332" type="curve"/>
      <point x="42.31333333333334" y="928.39" type="line"/>
      <point x="206.73" y="986.4566666666667"/>
      <point x="386.67333333333335" y="1028.6466666666668"/>
      <point x="559.4133333333334" y="1028.6466666666668" type="curve" smooth="yes"/>
      <point x="777.9166666666666" y="1028.6466666666668"/>
      <point x="839.6566666666666" y="978.9633333333334"/>
      <point x="839.6566666666666" y="882.55" type="curve" smooth="yes"/>
      <point x="839.6566666666666" y="876.0333333333333" type="line" smooth="yes"/>
      <point x="839.6566666666666" y="770.8233333333333"/>
      <point x="752.4233333333333" y="715.87"/>
      <point x="499.06666666666666" y="700.2299999999999" type="curve" smooth="yes"/>
      <point x="353.26666666666665" y="692.23" type="line"/>
    </contour>
    <contour>
      <point x="509.64000000000004" y="-31.663333333333334" type="curve" smooth="yes"/>
      <point x="642.2600000000001" y="-31.663333333333334"/>
      <point x="703.2833333333333" y="31.360000000000003"/>
      <point x="703.2833333333333" y="133.44" type="curve" smooth="yes"/>
      <point x="703.2833333333333" y="138.13666666666668" type="line" smooth="yes"/>
      <point x="703.2833333333333" y="240.91333333333333"/>
      <point x="642.2600000000001" y="305.33"/>
      <point x="509.64000000000004" y="305.33" type="curve" smooth="yes"/>
      <point x="376.93" y="305.33"/>
      <point x="316.3" y="240.91333333333333"/>
      <point x="316.3" y="138.13666666666668" type="curve" smooth="yes"/>
      <point x="316.3" y="133.44" type="line" smooth="yes"/>
      <point x="316.3" y="31.360000000000003"/>
      <point x="376.93" y="-31.663333333333334"/>
    </contour>
  </outline>
</glyph>
<glyph name="at" format="2">
  <advance width="2080.2699999999995"/>
  <unicode hex="0040"/>
  <outline>
    <contour>
      <point x="887.0766666666667" y="60.943333333333335" type="curve" smooth="yes"/>
      <point x="1069.1100000000001" y="60.943333333333335"/>
      <point x="1151.2666666666667" y="152.94333333333333"/>
      <point x="1190.9066666666668" y="277.51666666666665" type="curve"/>
      <point x="1280.2566666666667" y="277.51666666666665" type="line"/>
      <point x="1215.21" y="435.7866666666667" type="line"/>
      <point x="1181.9966666666664" y="354.92333333333335"/>
      <point x="1109.7400000000002" y="310.75666666666666"/>
      <point x="1027.5400000000002" y="310.75666666666666" type="curve" smooth="yes"/>
      <point x="946.1266666666667" y="310.75666666666666"/>
      <point x="897.2066666666667" y="354.94666666666666"/>
      <point x="897.2066666666667" y="443.45" type="curve" smooth="yes"/>
      <point x="897.2066666666667" y="447.1466666666667"/>
      <point x="897.2066666666666" y="450.84333333333336"/>
      <point x="897.2066666666667" y="453.84333333333336" type="curve" smooth="yes"/>
      <point x="897.8133333333334" y="568.5033333333333"/>
      <point x="949.8566666666666" y="654.76"/>
      <point x="1064.3033333333333" y="654.76" type="curve" smooth="yes"/>
      <point x="1170.74" y="654.76"/>
      <point x="1216.3333333333335" y="597.2666666666667"/>
      <point x="1214.6366666666668" y="504.7866666666667" type="curve" smooth="yes"/>
      <point x="1214.6366666666668" y="497.09"/>
      <point x="1214.6366666666668" y="489.09"/>
      <point x="1213.94" y="480.3933333333334" type="curve"/>
      <point x="1311.6833333333334" y="679.91" type="line"/>
      <point x="1222.4233333333334" y="679.91" type="line"/>
      <point x="1202.3899999999999" y="812.4833333333333"/>
      <point x="1136.4133333333332" y="895.4833333333333"/>
      <point x="963.6833333333334" y="895.4833333333333" type="curve" smooth="yes"/>
      <point x="709.2566666666667" y="895.4833333333333"/>
      <point x="583.3133333333333" y="681.55"/>
      <point x="582.7066666666667" y="406.85333333333335" type="curve" smooth="yes"/>
      <point x="582.7066666666667" y="403.1566666666667"/>
      <point x="582.7066666666667" y="399.85333333333335"/>
      <point x="582.7066666666667" y="396.15666666666664" type="curve" smooth="yes"/>
      <point x="582.7066666666667" y="175.55"/>
      <point x="704.1333333333333" y="60.943333333333335"/>
    </contour>
    <contour>
      <point x="1180.6933333333334" y="71.76333333333334" type="line"/>
      <point x="1479.3166666666666" y="142.9333333333333" type="line"/>
      <point x="1543.1366666666668" y="870.3933333333333" type="line"/>
      <point x="1248.12" y="870.3933333333333" type="line"/>
      <point x="1247.1200000000001" y="856.3033333333333" type="line"/>
      <point x="1228.8166666666666" y="645.5400000000001" type="line"/>
      <point x="1226.03" y="607.18" type="line"/>
      <point x="1201.3333333333333" y="367.82" type="line"/>
      <point x="1205.2099999999998" y="320.7633333333334" type="line"/>
    </contour>
    <contour>
      <point x="1410.72" y="301.3066666666667" type="curve"/>
      <point x="1180.6933333333334" y="71.76333333333334" type="line"/>
      <point x="1236.4466666666665" y="65.76333333333334"/>
      <point x="1277.4133333333334" y="67.46000000000001"/>
      <point x="1324.11" y="67.46000000000001" type="curve" smooth="yes"/>
      <point x="1770.72" y="67.46000000000001"/>
      <point x="2007.0466666666666" y="228.94333333333333"/>
      <point x="2007.0466666666669" y="626.09" type="curve" smooth="yes"/>
      <point x="2007.0466666666666" y="634.1800000000001"/>
      <point x="2007.0466666666666" y="642.27"/>
      <point x="2007.0466666666666" y="650.0566666666667" type="curve" smooth="yes"/>
      <point x="2006.7433333333333" y="1094.2366666666667"/>
      <point x="1685.8999999999999" y="1351.5066666666667"/>
      <point x="1116.18" y="1351.5066666666667" type="curve" smooth="yes"/>
      <point x="485.4266666666667" y="1351.5066666666667"/>
      <point x="85.34666666666668" y="1009.0233333333333"/>
      <point x="84.74" y="406.7866666666667" type="curve" smooth="yes"/>
      <point x="84.74000000000001" y="399.69666666666666"/>
      <point x="84.74" y="393.30333333333334"/>
      <point x="84.74000000000001" y="385.90999999999997" type="curve" smooth="yes"/>
      <point x="84.74000000000001" y="-125.75333333333334"/>
      <point x="421.1566666666667" y="-377.48333333333335"/>
      <point x="1011.3599999999999" y="-377.48333333333335" type="curve" smooth="yes"/>
      <point x="1325.7866666666666" y="-377.48333333333335"/>
      <point x="1527.1" y="-329.84333333333336"/>
      <point x="1737.7866666666666" y="-254.95666666666665" type="curve"/>
      <point x="1797.4733333333334" y="-13.863333333333335" type="line"/>
      <point x="1573.91" y="-105.66"/>
      <point x="1357.5300000000002" y="-159.9966666666667"/>
      <point x="1032.3033333333333" y="-159.9966666666667" type="curve" smooth="yes"/>
      <point x="602.0699999999999" y="-159.9966666666667"/>
      <point x="356.21666666666664" y="13.136666666666667"/>
      <point x="356.21666666666664" y="393.0" type="curve" smooth="yes"/>
      <point x="356.21666666666664" y="397.3933333333333"/>
      <point x="356.2166666666667" y="403.09000000000003"/>
      <point x="356.2166666666667" y="407.78666666666663" type="curve" smooth="yes"/>
      <point x="356.52000000000004" y="866.2566666666667"/>
      <point x="627.4066666666666" y="1136.2333333333333"/>
      <point x="1101.3033333333333" y="1136.2333333333333" type="curve" smooth="yes"/>
      <point x="1528.3466666666666" y="1136.2333333333333"/>
      <point x="1735.2666666666667" y="966.8299999999999"/>
      <point x="1735.5700000000002" y="649.36" type="curve" smooth="yes"/>
      <point x="1735.5700000000002" y="641.5733333333333"/>
      <point x="1735.57" y="633.1800000000001"/>
      <point x="1735.5700000000002" y="626.0899999999999" type="curve" smooth="yes"/>
      <point x="1735.57" y="404.15999999999997"/>
      <point x="1636.4366666666667" y="295.61"/>
      <point x="1490.2033333333334" y="295.61" type="curve" smooth="yes"/>
      <point x="1449.81" y="295.61"/>
      <point x="1433.1133333333332" y="296.61"/>
    </contour>
  </outline>
</glyph>
<glyph name="A" format="2">
  <advance width="1662.3400000000001"/>
  <unicode hex="0041"/>
  <anchor x="831.1700000000001" y="0.0" name="bottom"/>
  <anchor x="1669.06" y="8.483333333333334" name="ogonek"/>
  <anchor x="831.1700000000001" y="1278.0" name="top"/>
  <outline>
    <contour>
      <point x="22.616666666666667" y="0.0" type="line"/>
      <point x="385.2866666666667" y="0.0" type="line"/>
      <point x="819.26" y="1062.0633333333333" type="line"/>
      <point x="849.17" y="1062.0633333333333" type="line"/>
      <point x="1277.0533333333333" y="0.0" type="line"/>
      <point x="1639.7233333333334" y="0.0" type="line"/>
      <point x="1089.6466666666668" y="1278.0" type="line"/>
      <point x="578.7833333333334" y="1278.0" type="line"/>
    </contour>
    <contour>
      <point x="433.4066666666667" y="298.26666666666665" type="line"/>
      <point x="1228.2366666666665" y="298.26666666666665" type="line"/>
      <point x="1228.2366666666665" y="566.0466666666666" type="line"/>
      <point x="433.4066666666667" y="566.0466666666666" type="line"/>
    </contour>
  </outline>
</glyph>
<glyph name="B" format="2">
  <advance width="1610.7866666666666"/>
  <unicode hex="0042"/>
  <anchor x="806.0" y="0.0" name="bottom"/>
  <anchor x="806.0" y="1278.0" name="top"/>
  <outline>
    <contour>
      <point x="402.8233333333333" y="0.0" type="line"/>
      <point x="1025.19" y="0.0" type="line" smooth="yes"/>
      <point x="1371.1466666666665" y="0.0"/>
      <point x="1526.4733333333334" y="131.51666666666665"/>
      <point x="1526.4733333333334" y="369.0233333333333" type="curve" smooth="yes"/>
      <point x="1526.4733333333334" y="382.93333333333334" type="line" smooth="yes"/>
      <point x="1526.4733333333334" y="580.2033333333333"/>
      <point x="1409.6299999999999" y="690.08"/>
      <point x="1204.6966666666667" y="708.81" type="curve"/>
      <point x="1204.6966666666667" y="720.5966666666667" type="line"/>
      <point x="1392.5966666666666" y="726.2366666666667"/>
      <point x="1487.17" y="813.4833333333333"/>
      <point x="1487.17" y="961.6633333333333" type="curve" smooth="yes"/>
      <point x="1487.17" y="973.18" type="line" smooth="yes"/>
      <point x="1487.17" y="1176.45"/>
      <point x="1348.8100000000002" y="1278.0"/>
      <point x="995.7966666666667" y="1278.0" type="curve" smooth="yes"/>
      <point x="402.8233333333333" y="1278.0" type="line"/>
      <point x="402.8233333333333" y="1021.9733333333335" type="line"/>
      <point x="970.8633333333333" y="1021.9733333333335" type="line" smooth="yes"/>
      <point x="1086.58" y="1021.9733333333335"/>
      <point x="1134.9833333333333" y="978.57"/>
      <point x="1134.9833333333333" y="901.2233333333334" type="curve" smooth="yes"/>
      <point x="1134.9833333333333" y="892.01" type="line" smooth="yes"/>
      <point x="1134.9833333333333" y="817.18"/>
      <point x="1086.58" y="772.8666666666667"/>
      <point x="970.8633333333333" y="772.8666666666667" type="curve" smooth="yes"/>
      <point x="402.8233333333333" y="772.8666666666667" type="line"/>
      <point x="402.8233333333333" y="534.7733333333333" type="line"/>
      <point x="989.7733333333332" y="534.7733333333333" type="line" smooth="yes"/>
      <point x="1110.6133333333332" y="534.7733333333333"/>
      <point x="1164.1066666666668" y="489.8533333333333"/>
      <point x="1164.1066666666668" y="405.29333333333335" type="curve" smooth="yes"/>
      <point x="1164.1066666666668" y="395.7766666666667" type="line" smooth="yes"/>
      <point x="1164.1066666666668" y="311.8233333333333"/>
      <point x="1110.0066666666667" y="265.99333333333334"/>
      <point x="990.6833333333333" y="265.99333333333334" type="curve" smooth="yes"/>
      <point x="402.8233333333333" y="265.99333333333334" type="line"/>
    </contour>
    <contour>
      <point x="149.47" y="0.0" type="line"/>
      <point x="487.6" y="0.0" type="line"/>
      <point x="487.6" y="1278.0" type="line"/>
      <point x="149.47" y="1278.0" type="line"/>
    </contour>
  </outline>
</glyph>
<glyph name="C" format="2">
  <advance width="1470.01"/>
  <unicode hex="0043"/>
  <anchor x="803.3366666666667" y="0.0" name="bottom"/>
  <anchor x="803.3366666666667" y="1278.0" name="top"/>
  <outline>
    <contour>
      <point x="858.5733333333334" y="-41.35999999999999" type="curve" smooth="yes"/>
      <point x="1068.7633333333333" y="-41.35999999999999"/>
      <point x="1233.1" y="6.313333333333336"/>
      <point x="1349.1566666666665" y="66.22333333333333" type="curve"/>
      <point x="1378.6066666666666" y="362.36333333333334" type="line"/>
      <point x="1251.9099999999999" y="304.0833333333333"/>
      <point x="1101.4166666666665" y="253.32"/>
      <point x="916.5866666666666" y="253.32" type="curve" smooth="yes"/>
      <point x="598.42" y="253.32"/>
      <point x="459.64666666666665" y="397.57666666666665"/>
      <point x="459.64666666666665" y="635.7866666666666" type="curve" smooth="yes"/>
      <point x="459.64666666666665" y="652.6966666666667" type="line" smooth="yes"/>
      <point x="459.64666666666665" y="887.21"/>
      <point x="600.8133333333333" y="1030.1633333333334"/>
      <point x="895.8000000000001" y="1030.1633333333334" type="curve" smooth="yes"/>
      <point x="1092.2366666666667" y="1030.1633333333334"/>
      <point x="1240.2133333333331" y="978.7933333333333"/>
      <point x="1366.3033333333333" y="919.4233333333333" type="curve"/>
      <point x="1336.55" y="1210.6866666666665" type="line"/>
      <point x="1217.7066666666667" y="1272.6866666666667"/>
      <point x="1056.0666666666666" y="1318.6633333333334"/>
      <point x="848.6633333333333" y="1318.6633333333334" type="curve" smooth="yes"/>
      <point x="345.88666666666666" y="1318.6633333333334"/>
      <point x="91.1" y="1068.3933333333332"/>
      <point x="91.1" y="651.0" type="curve" smooth="yes"/>
      <point x="91.1" y="634.0899999999999" type="line" smooth="yes"/>
      <point x="91.1" y="208.21333333333334"/>
      <point x="349.28000000000003" y="-41.35999999999999"/>
    </contour>
  </outline>
</glyph>
<glyph name="D" format="2">
  <advance width="1648.2366666666667"/>
  <unicode hex="0044"/>
  <anchor x="800.7866666666666" y="0.0" name="bottom"/>
  <anchor x="824.27" y="639.0" name="center"/>
  <anchor x="800.7866666666666" y="1278.0" name="top"/>
  <outline>
    <contour>
      <point x="408.52000000000004" y="0.0" type="line"/>
      <point x="842.4166666666667" y="0.0" type="line" smooth="yes"/>
      <point x="1313.0466666666666" y="0.0"/>
      <point x="1560.53" y="226.0"/>
      <point x="1560.53" y="632.3933333333333" type="curve" smooth="yes"/>
      <point x="1560.53" y="651.0" type="line" smooth="yes"/>
      <point x="1560.53" y="1054.0"/>
      <point x="1313.0466666666666" y="1278.0"/>
      <point x="842.4166666666667" y="1278.0" type="curve" smooth="yes"/>
      <point x="406.7" y="1278.0" type="line"/>
      <point x="406.7" y="994.5899999999999" type="line"/>
      <point x="834.0233333333333" y="994.5899999999999" type="line" smooth="yes"/>
      <point x="1074.66" y="994.5899999999999"/>
      <point x="1199.2533333333333" y="865.3333333333334"/>
      <point x="1199.2533333333333" y="649.3033333333333" type="curve" smooth="yes"/>
      <point x="1199.2533333333333" y="631.6966666666667" type="line" smooth="yes"/>
      <point x="1199.2533333333333" y="414.97"/>
      <point x="1074.66" y="283.40999999999997"/>
      <point x="834.0233333333333" y="283.40999999999997" type="curve" smooth="yes"/>
      <point x="408.52000000000004" y="283.40999999999997" type="line"/>
    </contour>
    <contour>
      <point x="149.47" y="0.0" type="line"/>
      <point x="497.87" y="0.0" type="line"/>
      <point x="497.87" y="1278.0" type="line"/>
      <point x="149.47" y="1278.0" type="line"/>
    </contour>
  </outline>
</glyph>
<glyph name="E" format="2">
  <advance width="1480.6633333333334"/>
  <unicode hex="0045"/>
  <anchor x="768.1233333333333" y="0.0" name="bottom"/>
  <anchor x="1367.8766666666666" y="8.483333333333334" name="ogonek"/>
  <anchor x="768.1233333333333" y="1278.0" name="top"/>
  <anchor x="20.0" y="1278.0" name="topleft"/>
  <outline>
    <contour>
      <point x="149.47" y="0.0" type="line"/>
      <point x="492.47666666666663" y="0.0" type="line"/>
      <point x="492.47666666666663" y="1278.0" type="line"/>
      <point x="149.47" y="1278.0" type="line"/>
    </contour>
    <contour>
      <point x="152.80666666666667" y="0.0" type="line"/>
      <point x="1372.4733333333334" y="0.0" type="line"/>
      <point x="1372.4733333333334" y="270.86999999999995" type="line"/>
      <point x="152.80666666666667" y="270.86999999999995" type="line"/>
    </contour>
    <contour>
      <point x="327.56333333333333" y="517.5033333333333" type="line"/>
      <point x="1334.0800000000002" y="517.5033333333333" type="line"/>
      <point x="1334.0800000000002" y="775.62" type="line"/>
      <point x="327.56333333333333" y="775.62" type="line"/>
    </contour>
    <contour>
      <point x="152.80666666666667" y="1007.13" type="line"/>
      <point x="1355.6866666666667" y="1007.13" type="line"/>
      <point x="1355.6866666666667" y="1278.0" type="line"/>
      <point x="152.80666666666667" y="1278.0" type="line"/>
    </contour>
  </outline>
</glyph>
<glyph name="F" format="2">
  <advance width="1418.27"/>
  <unicode hex="0046"/>
  <anchor x="709.7866666666667" y="0.0" name="bottom"/>
  <anchor x="709.7866666666667" y="1278.0" name="top"/>
  <outline>
    <contour>
      <point x="149.47" y="0.0" type="line"/>
      <point x="492.78000000000003" y="0.0" type="line"/>
      <point x="492.78000000000003" y="1278.0" type="line"/>
      <point x="149.47" y="1278.0" type="line"/>
    </contour>
    <contour>
      <point x="327.56333333333333" y="424.84999999999997" type="line"/>
      <point x="1303.5966666666666" y="424.84999999999997" type="line"/>
      <point x="1303.5966666666666" y="704.0799999999999" type="line"/>
      <point x="327.56333333333333" y="704.0799999999999" type="line"/>
    </contour>
    <contour>
      <point x="152.80666666666667" y="998.77" type="line"/>
      <point x="1324.99" y="998.77" type="line"/>
      <point x="1324.99" y="1278.0" type="line"/>
      <point x="152.80666666666667" y="1278.0" type="line"/>
    </contour>
  </outline>
</glyph>
<glyph name="G" format="2">
  <advance width="1685.5733333333335"/>
  <unicode hex="0047"/>
  <anchor x="842.7866666666666" y="0.0" name="bottom"/>
  <anchor x="842.7866666666666" y="1278.0" name="top"/>
  <outline>
    <contour>
      <point x="760.1666666666667" y="-41.36" type="curve" smooth="yes"/>
      <point x="1069.2" y="-41.36"/>
      <point x="1188.6933333333334" y="73.22333333333334"/>
      <point x="1230.21" y="235.55000000000004" type="curve"/>
      <point x="1547.1366666666665" y="235.54999999999995" type="line"/>
      <point x="1547.1366666666665" y="744.26" type="line"/>
      <point x="868.3933333333333" y="744.26" type="line"/>
      <point x="868.3933333333333" y="492.41333333333336" type="line"/>
      <point x="1273.66" y="495.8066666666667" type="line"/>
      <point x="1234.5133333333333" y="576.47" type="line"/>
      <point x="1234.5133333333333" y="391.0566666666667" type="line"/>
      <point x="1178.12" y="312.34"/>
      <point x="1066.6499999999999" y="244.35333333333332"/>
      <point x="880.4166666666667" y="244.35333333333332" type="curve" smooth="yes"/>
      <point x="594.06" y="244.35333333333332"/>
      <point x="455.4666666666667" y="391.79"/>
      <point x="455.4666666666667" y="630.09" type="curve" smooth="yes"/>
      <point x="455.4666666666667" y="647.0" type="line" smooth="yes"/>
      <point x="455.4666666666667" y="896.8733333333333"/>
      <point x="611.51" y="1033.3433333333332"/>
      <point x="947.3733333333333" y="1033.3433333333332" type="curve" smooth="yes"/>
      <point x="1178.7433333333333" y="1033.3433333333332"/>
      <point x="1350.2033333333331" y="983.3666666666667"/>
      <point x="1504.2599999999998" y="925.39" type="curve"/>
      <point x="1471.81" y="1208.5633333333335" type="line"/>
      <point x="1330.8766666666666" y="1272.0800000000002"/>
      <point x="1141.18" y="1318.6633333333334"/>
      <point x="898.5066666666667" y="1318.6633333333334" type="curve" smooth="yes"/>
      <point x="365.24666666666667" y="1318.6633333333334"/>
      <point x="91.1" y="1067.4833333333333"/>
      <point x="91.1" y="642.6066666666666" type="curve" smooth="yes"/>
      <point x="91.1" y="626.0" type="line" smooth="yes"/>
      <point x="91.1" y="201.82"/>
      <point x="350.88666666666666" y="-41.36"/>
    </contour>
    <contour>
      <point x="1242.9966666666667" y="302.4166666666667" type="line"/>
      <point x="1231.9066666666665" y="0.0" type="line"/>
      <point x="1547.1366666666665" y="0.0" type="line"/>
      <point x="1547.1366666666665" y="302.4166666666667" type="line"/>
    </contour>
  </outline>
</glyph>
<glyph name="H" format="2">
  <advance width="1708.9"/>
  <unicode hex="0048"/>
  <anchor x="854.45" y="0.0" name="bottom"/>
  <anchor x="854.45" y="639.0" name="center"/>
  <anchor x="854.45" y="1278.0" name="top"/>
  <anchor x="20.0" y="1278.0" name="topleft"/>
  <outline>
    <contour>
      <point x="499.96" y="0.0" type="line"/>
      <point x="499.96" y="1278.0" type="line"/>
      <point x="149.47" y="1278.0" type="line"/>
      <point x="149.47" y="0.0" type="line"/>
    </contour>
    <contour>
      <point x="1559.43" y="0.0" type="line"/>
      <point x="1559.43" y="1278.0" type="line"/>
      <point x="1208.9399999999998" y="1278.0" type="line"/>
      <point x="1208.9399999999998" y="0.0" type="line"/>
    </contour>
    <contour>
      <point x="328.56333333333333" y="797.07" type="line"/>
      <point x="328.56333333333333" y="513.66" type="line"/>
      <point x="1359.8866666666665" y="513.66" type="line"/>
      <point x="1359.8866666666665" y="797.07" type="line"/>
    </contour>
  </outline>
</glyph>
<glyph name="I" format="2">
  <advance width="650.6433333333333"/>
  <unicode hex="0049"/>
  <anchor x="325.4733333333333" y="0.0" name="bottom"/>
  <anchor x="537.1733333333334" y="8.483333333333334" name="ogonek"/>
  <anchor x="325.4733333333333" y="1278.0" name="top"/>
  <anchor x="20.0" y="1278.0" name="topleft"/>
  <outline>
    <contour>
      <point x="500.56666666666666" y="0.0" type="line"/>
      <point x="500.56666666666666" y="1278.0" type="line"/>
      <point x="150.07666666666665" y="1278.0" type="line"/>
      <point x="150.07666666666665" y="0.0" type="line"/>
    </contour>
  </outline>
</glyph>
<glyph name="J" format="2">
  <advance width="1098.29"/>
  <unicode hex="004A"/>
  <anchor x="550.0999999999999" y="0.0" name="bottom"/>
  <anchor x="780.3333333333333" y="1278.0" name="top"/>
  <outline>
    <contour>
      <point x="408.56" y="-20.876666666666665" type="curve" smooth="yes"/>
      <point x="797.4933333333333" y="-20.876666666666665"/>
      <point x="959.1233333333333" y="154.69666666666666"/>
      <point x="959.1233333333333" y="512.81" type="curve" smooth="yes"/>
      <point x="959.1233333333333" y="1278.0" type="line"/>
      <point x="608.6333333333333" y="1278.0" type="line"/>
      <point x="608.6333333333333" y="544.4066666666666" type="line" smooth="yes"/>
      <point x="608.6333333333333" y="356.93666666666667"/>
      <point x="545.8033333333333" y="275.01666666666665"/>
      <point x="342.4566666666667" y="275.01666666666665" type="curve" smooth="yes"/>
      <point x="242.35666666666663" y="275.01666666666665"/>
      <point x="147.3466666666667" y="294.74666666666667"/>
      <point x="55.10000000000001" y="325.2966666666666" type="curve"/>
      <point x="86.06666666666666" y="30.37" type="line"/>
      <point x="179.58333333333334" y="-3.0566666666666666"/>
      <point x="298.7066666666667" y="-20.876666666666665"/>
    </contour>
  </outline>
</glyph>
<glyph name="K" format="2">
  <advance width="1561.99"/>
  <unicode hex="004B"/>
  <anchor x="781.1466666666668" y="0.0" name="bottom"/>
  <anchor x="781.1466666666668" y="1278.0" name="top"/>
  <outline>
    <contour>
      <point x="1111.22" y="0.0" type="line"/>
      <point x="1553.52" y="0.0" type="line"/>
      <point x="860.8933333333333" y="699.4499999999999" type="line"/>
      <point x="860.8933333333333" y="625.0333333333333" type="line"/>
      <point x="1538.2166666666667" y="1278.0" type="line"/>
      <point x="1110.0966666666668" y="1278.0" type="line"/>
      <point x="563.6166666666667" y="749.8766666666667" type="line"/>
      <point x="472.69" y="749.8766666666667" type="line"/>
      <point x="472.69" y="557.2133333333334" type="line"/>
      <point x="562.7066666666667" y="557.2133333333334" type="line"/>
    </contour>
    <contour>
      <point x="149.47" y="0.0" type="line"/>
      <point x="499.6566666666667" y="0.0" type="line"/>
      <point x="499.6566666666667" y="1278.0" type="line"/>
      <point x="149.47" y="1278.0" type="line"/>
    </contour>
  </outline>
</glyph>
<glyph name="L" format="2">
  <advance width="1354.4266666666667"/>
  <unicode hex="004C"/>
  <anchor x="718.5500000000001" y="0.0" name="bottom"/>
  <anchor x="677.2133333333334" y="639.0" name="center"/>
  <anchor x="324.8666666666667" y="1278.0" name="top"/>
  <anchor x="855.9300000000001" y="1278.0" name="topright"/>
  <outline>
    <contour>
      <point x="499.96" y="0.0" type="line"/>
      <point x="499.96" y="1278.0" type="line"/>
      <point x="149.47" y="1278.0" type="line"/>
      <point x="149.47" y="0.0" type="line"/>
    </contour>
    <contour>
      <point x="327.56333333333333" y="279.8366666666667" type="line"/>
      <point x="327.56333333333333" y="0.0" type="line"/>
      <point x="1284.9666666666667" y="0.0" type="line"/>
      <point x="1284.9666666666667" y="279.8366666666667" type="line"/>
    </contour>
  </outline>
</glyph>
<glyph name="M" format="2">
  <advance width="2006.1700000000003"/>
  <unicode hex="004D"/>
  <anchor x="1003.2366666666668" y="0.0" name="bottom"/>
  <anchor x="1003.2366666666668" y="1278.0" name="top"/>
  <outline>
    <contour>
      <point x="124.92000000000002" y="0.0" type="line"/>
      <point x="468.5333333333333" y="0.0" type="line"/>
      <point x="489.69" y="494.39000000000004" type="line"/>
      <point x="507.6333333333333" y="920.9366666666666" type="line"/>
      <point x="530.8466666666667" y="920.9366666666666" type="line"/>
      <point x="834.2900000000001" y="154.91" type="line"/>
      <point x="1172.88" y="154.91" type="line"/>
      <point x="1473.6266666666666" y="920.9366666666666" type="line"/>
      <point x="1495.8400000000001" y="920.9366666666666" type="line"/>
      <point x="1514.7833333333333" y="494.0866666666667" type="line"/>
      <point x="1537.6366666666668" y="0.0" type="line"/>
      <point x="1881.25" y="0.0" type="line"/>
      <point x="1807.1833333333334" y="1278.0" type="line"/>
      <point x="1316.3766666666666" y="1278.0" type="line"/>
      <point x="1012.3266666666668" y="490.9166666666667" type="line"/>
      <point x="992.1466666666666" y="490.9166666666667" type="line"/>
      <point x="690.7933333333334" y="1278.0" type="line"/>
      <point x="198.98666666666668" y="1278.0" type="line"/>
    </contour>
  </outline>
</glyph>
<glyph name="N" format="2">
  <advance width="1708.9"/>
  <unicode hex="004E"/>
  <anchor x="854.45" y="0.0" name="bottom"/>
  <anchor x="854.45" y="1278.0" name="top"/>
  <outline>
    <contour>
      <point x="637.49" y="1278.0" type="line"/>
      <point x="149.47" y="1278.0" type="line"/>
      <point x="149.47" y="0.0" type="line"/>
      <point x="495.0833333333333" y="0.0" type="line"/>
      <point x="495.0833333333333" y="474.26666666666665" type="line"/>
      <point x="484.99333333333334" y="949.1166666666667" type="line"/>
      <point x="502.99333333333334" y="949.1166666666667" type="line"/>
      <point x="1092.77" y="0.0" type="line"/>
      <point x="1559.43" y="0.0" type="line"/>
      <point x="1559.43" y="1278.0" type="line"/>
      <point x="1214.12" y="1278.0" type="line"/>
      <point x="1214.12" y="821.14" type="line"/>
      <point x="1224.21" y="358.7266666666667" type="line"/>
      <point x="1206.21" y="358.7266666666667" type="line"/>
    </contour>
  </outline>
</glyph>
<glyph name="O" format="2">
  <advance width="1721.8666666666668"/>
  <unicode hex="004F"/>
  <anchor x="860.9333333333334" y="0.0" name="bottom"/>
  <anchor x="860.9333333333334" y="639.0" name="center"/>
  <anchor x="1298.8366666666666" y="8.483333333333334" name="ogonek"/>
  <anchor x="860.9333333333334" y="1278.0" name="top"/>
  <anchor x="20.0" y="1278.0" name="topleft"/>
  <anchor x="1537.7366666666665" y="1278.0" name="topright"/>
  <outline>
    <contour>
      <point x="860.9333333333334" y="-41.36" type="curve" smooth="yes"/>
      <point x="1363.4966666666667" y="-41.36"/>
      <point x="1630.7666666666667" y="204.51666666666668"/>
      <point x="1630.7666666666667" y="631.6966666666667" type="curve" smooth="yes"/>
      <point x="1630.7666666666667" y="646.6066666666666" type="line" smooth="yes"/>
      <point x="1630.7666666666667" y="1073.7866666666666"/>
      <point x="1363.4966666666667" y="1319.36"/>
      <point x="860.9333333333334" y="1319.36" type="curve" smooth="yes"/>
      <point x="358.37" y="1319.36"/>
      <point x="91.1" y="1073.7866666666666"/>
      <point x="91.1" y="646.6066666666666" type="curve" smooth="yes"/>
      <point x="91.1" y="631.6966666666667" type="line" smooth="yes"/>
      <point x="91.1" y="204.51666666666668"/>
      <point x="358.37" y="-41.36"/>
    </contour>
    <contour>
      <point x="860.9333333333334" y="242.65666666666667" type="curve" smooth="yes"/>
      <point x="593.4200000000001" y="242.65666666666667"/>
      <point x="455.4666666666667" y="388.52"/>
      <point x="455.4666666666667" y="630.6966666666666" type="curve" smooth="yes"/>
      <point x="455.4666666666667" y="647.6066666666667" type="line" smooth="yes"/>
      <point x="455.4666666666667" y="889.48"/>
      <point x="593.4200000000001" y="1035.3433333333332"/>
      <point x="860.9333333333334" y="1035.3433333333332" type="curve" smooth="yes"/>
      <point x="1126.75" y="1035.3433333333332"/>
      <point x="1266.4" y="889.48"/>
      <point x="1266.4" y="647.6066666666667" type="curve" smooth="yes"/>
      <point x="1266.4" y="630.6966666666666" type="line" smooth="yes"/>
      <point x="1266.4" y="388.52"/>
      <point x="1126.75" y="242.65666666666667"/>
    </contour>
  </outline>
</glyph>
<glyph name="P" format="2">
  <advance width="1535.7533333333333"/>
  <unicode hex="0050"/>
  <anchor x="767.8766666666667" y="0.0" name="bottom"/>
  <anchor x="767.8766666666667" y="1278.0" name="top"/>
  <outline>
    <contour>
      <point x="402.73333333333335" y="366.23333333333335" type="line"/>
      <point x="897.0666666666666" y="366.23333333333335" type="line" smooth="yes"/>
      <point x="1286.72" y="366.23333333333335"/>
      <point x="1466.0466666666666" y="533.1099999999999"/>
      <point x="1466.0466666666666" y="814.01" type="curve" smooth="yes"/>
      <point x="1466.0466666666666" y="828.5266666666668" type="line" smooth="yes"/>
      <point x="1466.0466666666666" y="1114.5166666666667"/>
      <point x="1286.72" y="1278.0"/>
      <point x="897.0666666666667" y="1278.0" type="curve" smooth="yes"/>
      <point x="400.91333333333336" y="1278.0" type="line"/>
      <point x="400.91333333333336" y="1008.8266666666667" type="line"/>
      <point x="883.1333333333334" y="1008.8266666666667" type="line" smooth="yes"/>
      <point x="1042.1533333333332" y="1008.8266666666667"/>
      <point x="1113.4333333333334" y="948.0866666666666"/>
      <point x="1113.4333333333334" y="829.2233333333334" type="curve" smooth="yes"/>
      <point x="1113.4333333333334" y="815.01" type="line" smooth="yes"/>
      <point x="1113.4333333333334" y="696.1466666666666"/>
      <point x="1042.1533333333332" y="635.7099999999999"/>
      <point x="883.1333333333333" y="635.7099999999999" type="curve" smooth="yes"/>
      <point x="402.73333333333335" y="635.7099999999999" type="line"/>
    </contour>
    <contour>
      <point x="149.47" y="0.0" type="line"/>
      <point x="492.08333333333337" y="0.0" type="line"/>
      <point x="492.08333333333337" y="412.25666666666666" type="line"/>
      <point x="491.38666666666666" y="558.2033333333334" type="line"/>
      <point x="491.38666666666666" y="1278.0" type="line"/>
      <point x="149.47" y="1278.0" type="line"/>
    </contour>
  </outline>
</glyph>
<glyph name="Q" format="2">
  <advance width="1722.1699999999998"/>
  <unicode hex="0051"/>
  <anchor x="861.2366666666667" y="0.0" name="bottom"/>
  <anchor x="861.2366666666667" y="1278.0" name="top"/>
  <outline>
    <contour>
      <point x="1700.3600000000001" y="-72.11333333333333" type="line"/>
      <point x="1700.3600000000001" y="228.47666666666666" type="line"/>
      <point x="1223.25" y="214.6" type="line"/>
      <point x="1223.25" y="227.99333333333334" type="line"/>
      <point x="1437.4066666666668" y="251.66666666666669"/>
      <point x="1629.3733333333334" y="363.26"/>
      <point x="1629.3733333333334" y="663.9000000000001" type="curve" smooth="yes"/>
      <point x="1629.3733333333334" y="674.72" type="line" smooth="yes"/>
      <point x="1629.3733333333334" y="1065.3033333333335"/>
      <point x="1361.3166666666666" y="1319.36"/>
      <point x="860.9333333333334" y="1319.36" type="curve" smooth="yes"/>
      <point x="359.06666666666666" y="1319.36"/>
      <point x="91.1" y="1075.18"/>
      <point x="91.1" y="648.3033333333333" type="curve" smooth="yes"/>
      <point x="91.1" y="633.6966666666667" type="line" smooth="yes"/>
      <point x="91.1" y="208.12333333333333"/>
      <point x="354.5833333333333" y="-21.393333333333334"/>
      <point x="952.2266666666667" y="-44.45" type="curve" smooth="yes"/>
    </contour>
    <contour>
      <point x="898.63" y="244.35333333333332" type="line" smooth="yes"/>
      <point x="622.5433333333333" y="251.6566666666667"/>
      <point x="455.4666666666667" y="389.60999999999996"/>
      <point x="455.4666666666667" y="633.3933333333334" type="curve" smooth="yes"/>
      <point x="455.4666666666667" y="648.3033333333334" type="line" smooth="yes"/>
      <point x="455.4666666666667" y="888.7833333333333"/>
      <point x="593.0266666666668" y="1035.3433333333332"/>
      <point x="859.9333333333334" y="1035.3433333333332" type="curve" smooth="yes"/>
      <point x="1125.75" y="1035.3433333333332"/>
      <point x="1265.0066666666667" y="888.7833333333333"/>
      <point x="1265.0066666666667" y="648.3033333333334" type="curve" smooth="yes"/>
      <point x="1265.0066666666667" y="628.8199999999999" type="line" smooth="yes"/>
      <point x="1265.0066666666667" y="404.8466666666667"/>
      <point x="1121.01" y="286.9266666666667"/>
      <point x="959.1366666666667" y="242.65666666666667" type="curve"/>
    </contour>
  </outline>
</glyph>
<glyph name="R" format="2">
  <advance width="1580.8766666666668"/>
  <unicode hex="0052"/>
  <anchor x="801.09" y="0.0" name="bottom"/>
  <anchor x="791.09" y="1278.0" name="top"/>
  <outline>
    <contour>
      <point x="1141.5566666666666" y="0.0" type="line"/>
      <point x="1512.3166666666666" y="0.0" type="line"/>
      <point x="1464.5866666666666" y="243.03333333333333" type="line" smooth="yes"/>
      <point x="1418.2833333333333" y="479.45"/>
      <point x="1349.4066666666668" y="586.82"/>
      <point x="1090.4066666666665" y="605.3933333333334" type="curve"/>
      <point x="1158.1233333333332" y="557.0666666666667" type="line"/>
      <point x="1158.1233333333332" y="609.1466666666668" type="line"/>
      <point x="1368.45" y="624.3033333333334"/>
      <point x="1473.8666666666666" y="721.73"/>
      <point x="1473.8666666666666" y="904.6966666666666" type="curve" smooth="yes"/>
      <point x="1473.8666666666666" y="915.2133333333334" type="line" smooth="yes"/>
      <point x="1473.8666666666666" y="1150.9666666666667"/>
      <point x="1309.8433333333332" y="1278.0"/>
      <point x="941.1333333333333" y="1278.0" type="curve" smooth="yes"/>
      <point x="390.73333333333335" y="1278.0" type="line"/>
      <point x="390.73333333333335" y="1009.4333333333333" type="line"/>
      <point x="903.29" y="1009.4333333333333" type="line" smooth="yes"/>
      <point x="1058.2766666666666" y="1009.4333333333333"/>
      <point x="1122.4666666666667" y="948.3333333333334"/>
      <point x="1122.4666666666667" y="842.5933333333332" type="curve" smooth="yes"/>
      <point x="1122.4666666666667" y="832.9866666666667" type="line" smooth="yes"/>
      <point x="1122.4666666666667" y="726.9433333333334"/>
      <point x="1057.0633333333333" y="662.4166666666666"/>
      <point x="901.7733333333333" y="661.7199999999999" type="curve" smooth="yes"/>
      <point x="390.73333333333335" y="660.0233333333333" type="line"/>
      <point x="390.73333333333335" y="405.81666666666666" type="line"/>
      <point x="852.5933333333332" y="404.12" type="line" smooth="yes"/>
      <point x="1029.9733333333334" y="403.42333333333335"/>
      <point x="1081.67" y="343.46999999999997"/>
      <point x="1110.4" y="178.04333333333332" type="curve" smooth="yes"/>
    </contour>
    <contour>
      <point x="149.47" y="0.0" type="line"/>
      <point x="491.78" y="0.0" type="line"/>
      <point x="491.78" y="435.48" type="line"/>
      <point x="491.0833333333333" y="555.7966666666666" type="line"/>
      <point x="491.0833333333333" y="1278.0" type="line"/>
      <point x="149.47" y="1278.0" type="line"/>
    </contour>
  </outline>
</glyph>
<glyph name="S" format="2">
  <advance width="1464.8766666666668"/>
  <unicode hex="0053"/>
  <anchor x="728.09" y="0.0" name="bottom"/>
  <anchor x="728.09" y="1278.0" name="top"/>
  <outline>
    <contour>
      <point x="720.3366666666667" y="-33.876666666666665" type="curve" smooth="yes"/>
      <point x="1168.3833333333334" y="-33.876666666666665"/>
      <point x="1381.35" y="95.69666666666666"/>
      <point x="1381.35" y="383.68666666666667" type="curve" smooth="yes"/>
      <point x="1381.35" y="392.8666666666667" type="line" smooth="yes"/>
      <point x="1381.35" y="674.7099999999999"/>
      <point x="1180.3933333333334" y="746.62"/>
      <point x="781.2933333333333" y="785.7099999999999" type="curve" smooth="yes"/>
      <point x="491.9033333333333" y="813.9233333333334"/>
      <point x="439.62333333333333" y="846.72"/>
      <point x="439.62333333333333" y="922.01" type="curve" smooth="yes"/>
      <point x="439.62333333333333" y="923.01" type="line" smooth="yes"/>
      <point x="439.62333333333333" y="992.21"/>
      <point x="494.09333333333336" y="1034.1299999999999"/>
      <point x="725.2933333333334" y="1034.1299999999999" type="curve" smooth="yes"/>
      <point x="943.1800000000001" y="1034.1299999999999"/>
      <point x="1147.0566666666666" y="988.58"/>
      <point x="1309.08" y="919.3666666666667" type="curve"/>
      <point x="1270.1466666666668" y="1208.7199999999998" type="line"/>
      <point x="1134.82" y="1264.0233333333333"/>
      <point x="952.0" y="1311.5733333333333"/>
      <point x="690.9666666666666" y="1311.5733333333333" type="curve" smooth="yes"/>
      <point x="285.64000000000004" y="1311.5733333333333"/>
      <point x="81.83" y="1183.0900000000001"/>
      <point x="81.83" y="925.7966666666666" type="curve" smooth="yes"/>
      <point x="81.83" y="919.7066666666667" type="line" smooth="yes"/>
      <point x="81.83" y="648.4466666666666"/>
      <point x="264.48333333333335" y="560.2"/>
      <point x="673.19" y="518.5366666666666" type="curve" smooth="yes"/>
      <point x="943.2766666666666" y="491.84000000000003"/>
      <point x="1021.1633333333334" y="469.04333333333335"/>
      <point x="1021.1633333333334" y="379.1133333333333" type="curve" smooth="yes"/>
      <point x="1021.1633333333334" y="375.72" type="line" smooth="yes"/>
      <point x="1021.1633333333334" y="288.09333333333336"/>
      <point x="940.5699999999999" y="253.65666666666667"/>
      <point x="718.2466666666667" y="253.65666666666667" type="curve" smooth="yes"/>
      <point x="478.30333333333334" y="253.65666666666667"/>
      <point x="247.33666666666664" y="323.69"/>
      <point x="91.97666666666667" y="391.6333333333333" type="curve"/>
      <point x="129.21333333333334" y="74.92" type="line"/>
      <point x="265.1466666666667" y="23.796666666666663"/>
      <point x="472.53999999999996" y="-33.876666666666665"/>
    </contour>
  </outline>
</glyph>
<glyph name="T" format="2">
  <advance width="1509.2033333333334"/>
  <unicode hex="0054"/>
  <anchor x="754.7533333333333" y="0.0" name="bottom"/>
  <anchor x="754.7533333333333" y="639.0" name="center"/>
  <anchor x="754.7533333333333" y="1278.0" name="top"/>
  <outline>
    <contour>
      <point x="579.3566666666666" y="0.0" type="line"/>
      <point x="929.8466666666666" y="0.0" type="line"/>
      <point x="929.8466666666666" y="1157.5366666666666" type="line"/>
      <point x="579.3566666666666" y="1157.5366666666666" type="line"/>
    </contour>
    <contour>
      <point x="70.06666666666666" y="1002.2533333333333" type="line"/>
      <point x="1439.1366666666668" y="1002.2533333333333" type="line"/>
      <point x="1439.1366666666668" y="1278.0" type="line"/>
      <point x="70.06666666666666" y="1278.0" type="line"/>
    </contour>
  </outline>
</glyph>
<glyph name="U" format="2">
  <advance width="1682.5966666666666"/>
  <unicode hex="0055"/>
  <anchor x="841.45" y="0.0" name="bottom"/>
  <anchor x="1246.0266666666666" y="8.483333333333334" name="ogonek"/>
  <anchor x="841.45" y="1278.0" name="top"/>
  <anchor x="1658.0466666666666" y="1278.0" name="topright"/>
  <outline>
    <contour>
      <point x="841.45" y="-41.36" type="curve" smooth="yes"/>
      <point x="1316.7433333333333" y="-41.36"/>
      <point x="1545.43" y="177.12333333333333"/>
      <point x="1545.43" y="602.7533333333334" type="curve" smooth="yes"/>
      <point x="1545.43" y="1278.0" type="line"/>
      <point x="1194.9399999999998" y="1278.0" type="line"/>
      <point x="1194.9399999999998" y="604.0566666666666" type="line" smooth="yes"/>
      <point x="1194.9399999999998" y="372.79"/>
      <point x="1080.9633333333334" y="247.74666666666667"/>
      <point x="841.45" y="247.74666666666667" type="curve" smooth="yes"/>
      <point x="601.9366666666667" y="247.74666666666667"/>
      <point x="487.65666666666664" y="372.79"/>
      <point x="487.65666666666664" y="604.0566666666666" type="curve" smooth="yes"/>
      <point x="487.65666666666664" y="1278.0" type="line"/>
      <point x="137.16666666666666" y="1278.0" type="line"/>
      <point x="137.16666666666666" y="602.7533333333334" type="line" smooth="yes"/>
      <point x="137.16666666666666" y="177.12333333333333"/>
      <point x="367.8533333333333" y="-41.36"/>
    </contour>
  </outline>
</glyph>
<glyph name="V" format="2">
  <advance width="1599.1366666666668"/>
  <unicode hex="0056"/>
  <anchor x="799.72" y="0.0" name="bottom"/>
  <anchor x="799.72" y="1278.0" name="top"/>
  <outline>
    <contour>
      <point x="545.3333333333334" y="0.0" type="line"/>
      <point x="1054.41" y="0.0" type="line"/>
      <point x="1576.52" y="1278.0" type="line"/>
      <point x="1205.2433333333333" y="1278.0" type="line"/>
      <point x="813.4166666666667" y="267.83666666666664" type="line"/>
      <point x="785.72" y="267.83666666666664" type="line"/>
      <point x="393.8933333333333" y="1278.0" type="line"/>
      <point x="22.616666666666667" y="1278.0" type="line"/>
    </contour>
  </outline>
</glyph>
<glyph name="W" format="2">
  <advance width="2199.3933333333334"/>
  <unicode hex="0057"/>
  <anchor x="1099.6966666666667" y="0.0" name="bottom"/>
  <anchor x="1099.6966666666667" y="1278.0" name="top"/>
  <outline>
    <contour>
      <point x="377.97333333333336" y="0.0" type="line"/>
      <point x="869.51" y="0.0" type="line"/>
      <point x="1037.4733333333334" y="733.8066666666666" type="line"/>
      <point x="1089.3033333333333" y="955.8933333333333" type="line"/>
      <point x="1109.3933333333334" y="955.8933333333333" type="line"/>
      <point x="1160.5266666666666" y="733.8066666666666" type="line"/>
      <point x="1329.1866666666667" y="0.0" type="line"/>
      <point x="1821.42" y="0.0" type="line"/>
      <point x="2154.7766666666666" y="1278.0" type="line"/>
      <point x="1794.1633333333332" y="1278.0" type="line"/>
      <point x="1595.2466666666667" y="399.7933333333333" type="line"/>
      <point x="1571.9433333333334" y="292.8933333333334" type="line"/>
      <point x="1550.55" y="292.8933333333334" type="line"/>
      <point x="1525.55" y="401.18666666666667" type="line"/>
      <point x="1323.1833333333334" y="1241.6966666666667" type="line"/>
      <point x="875.5133333333333" y="1241.6966666666667" type="line"/>
      <point x="673.1466666666666" y="400.7933333333333" type="line"/>
      <point x="648.1466666666668" y="292.8933333333334" type="line"/>
      <point x="626.7533333333333" y="292.8933333333334" type="line"/>
      <point x="603.1466666666668" y="400.7933333333333" type="line"/>
      <point x="405.5333333333333" y="1278.0" type="line"/>
      <point x="44.61666666666667" y="1278.0" type="line"/>
    </contour>
  </outline>
</glyph>
<glyph name="X" format="2">
  <advance width="1600.7766666666666"/>
  <unicode hex="0058"/>
  <anchor x="800.54" y="0.0" name="bottom"/>
  <anchor x="800.54" y="1278.0" name="top"/>
  <outline>
    <contour>
      <point x="24.740000000000002" y="0.0" type="line"/>
      <point x="438.82666666666665" y="0.0" type="line"/>
      <point x="790.1466666666666" y="464.81666666666666" type="line"/>
      <point x="809.9333333333333" y="464.81666666666666" type="line"/>
      <point x="1161.95" y="0.0" type="line"/>
      <point x="1576.0366666666666" y="0.0" type="line"/>
      <point x="1046.1066666666666" y="690.54" type="line"/>
      <point x="1046.4099999999999" y="631.9433333333333" type="line"/>
      <point x="1558.4633333333331" y="1278.0" type="line"/>
      <point x="1156.4333333333332" y="1278.0" type="line"/>
      <point x="809.9333333333333" y="837.3966666666666" type="line"/>
      <point x="790.1466666666668" y="837.3966666666666" type="line"/>
      <point x="443.64666666666665" y="1278.0" type="line"/>
      <point x="42.31333333333333" y="1278.0" type="line"/>
      <point x="554.3666666666667" y="631.9433333333333" type="line"/>
      <point x="554.67" y="690.54" type="line"/>
    </contour>
  </outline>
</glyph>
<glyph name="Y" format="2">
  <advance width="1549.5633333333333"/>
  <unicode hex="0059"/>
  <anchor x="774.9333333333333" y="0.0" name="bottom"/>
  <anchor x="774.9333333333333" y="1278.0" name="top"/>
  <anchor x="20.0" y="1278.0" name="topleft"/>
  <outline>
    <contour>
      <point x="630.56" y="336.1333333333333" type="line"/>
      <point x="920.0033333333333" y="336.1333333333333" type="line"/>
      <point x="1537.7333333333333" y="1278.0" type="line"/>
      <point x="1157.5466666666666" y="1278.0" type="line"/>
      <point x="903.1800000000001" y="875.5666666666667" type="line"/>
      <point x="783.3266666666666" y="686.4433333333334" type="line"/>
      <point x="766.2366666666667" y="686.4433333333334" type="line"/>
      <point x="644.6866666666666" y="878.2633333333333" type="line"/>
      <point x="392.01666666666665" y="1278.0" type="line"/>
      <point x="11.830000000000002" y="1278.0" type="line"/>
    </contour>
    <contour>
      <point x="599.84" y="0.0" type="line"/>
      <point x="950.0266666666666" y="0.0" type="line"/>
      <point x="950.0266666666666" y="633.1166666666667" type="line"/>
      <point x="599.84" y="633.1166666666667" type="line"/>
    </contour>
  </outline>
</glyph>
<glyph name="Z" format="2">
  <advance width="1441.0"/>
  <unicode hex="005A"/>
  <anchor x="721.0" y="0.0" name="bottom"/>
  <anchor x="721.0" y="639.0" name="center"/>
  <anchor x="721.0" y="1278.0" name="top"/>
  <outline>
    <contour>
      <point x="1362.08" y="276.04999999999995" type="line"/>
      <point x="530.3666666666667" y="276.04999999999995" type="line"/>
      <point x="1349.2933333333333" y="1010.95" type="line"/>
      <point x="1349.2933333333333" y="1278.0" type="line"/>
      <point x="91.1" y="1278.0" type="line"/>
      <point x="91.1" y="1002.2533333333333" type="line"/>
      <point x="894.8466666666667" y="1002.2533333333333" type="line"/>
      <point x="78.92" y="266.7466666666666" type="line"/>
      <point x="78.92" y="0.0" type="line"/>
      <point x="1362.08" y="0.0" type="line"/>
    </contour>
  </outline>
</glyph>
<glyph name="bracketleft" format="2">
  <advance width="773.73"/>
  <unicode hex="005B"/>
  <outline>
    <contour>
      <point x="149.47" y="-259.8433333333333" type="line"/>
      <point x="705.4833333333333" y="-259.8433333333333" type="line"/>
      <point x="705.4833333333333" y="-22.87333333333333" type="line"/>
      <point x="459.97" y="-22.87333333333333" type="line"/>
      <point x="459.97" y="1112.03" type="line"/>
      <point x="705.4833333333333" y="1112.03" type="line"/>
      <point x="705.4833333333333" y="1348.6966666666667" type="line"/>
      <point x="149.47" y="1348.6966666666667" type="line"/>
    </contour>
  </outline>
</glyph>
<glyph name="backslash" format="2">
  <advance width="1243.3300000000002"/>
  <unicode hex="005C"/>
  <outline>
    <contour>
      <point x="1271.6133333333332" y="-258.32666666666665" type="line"/>
      <point x="297.00333333333333" y="1344.1466666666665" type="line"/>
      <point x="-28.28333333333333" y="1344.1466666666665" type="line"/>
      <point x="944.63" y="-258.32666666666665" type="line"/>
    </contour>
  </outline>
</glyph>
<glyph name="bracketright" format="2">
  <advance width="773.73"/>
  <unicode hex="005D"/>
  <outline>
    <contour>
      <point x="624.2600000000001" y="-259.8433333333333" type="line"/>
      <point x="624.2600000000001" y="1348.6966666666667" type="line"/>
      <point x="68.24666666666667" y="1348.6966666666667" type="line"/>
      <point x="68.24666666666667" y="1112.03" type="line"/>
      <point x="313.76" y="1112.03" type="line"/>
      <point x="313.76" y="-22.87333333333333" type="line"/>
      <point x="68.24666666666667" y="-22.87333333333333" type="line"/>
      <point x="68.24666666666667" y="-259.8433333333333" type="line"/>
    </contour>
  </outline>
</glyph>
<glyph name="asciicircum" format="2">
  <advance width="1171.0133333333333"/>
  <unicode hex="005E"/>
  <outline>
    <contour>
      <point x="366.1766666666666" y="1278.0" type="line"/>
      <point x="34.61666666666667" y="597.5166666666667" type="line"/>
      <point x="338.42" y="597.5166666666667" type="line"/>
      <point x="576.5066666666667" y="1099.3566666666666" type="line"/>
      <point x="596.2033333333334" y="1099.3566666666666" type="line"/>
      <point x="832.8966666666668" y="597.5166666666667" type="line"/>
      <point x="1136.3966666666668" y="597.5166666666667" type="line"/>
      <point x="805.1400000000001" y="1278.0" type="line"/>
    </contour>
  </outline>
</glyph>
<glyph name="underscore" format="2">
  <advance width="1156.3233333333333"/>
  <unicode hex="005F"/>
  <outline>
    <contour>
      <point x="48.583333333333336" y="-311.00333333333333" type="line"/>
      <point x="1108.0433333333333" y="-311.00333333333333" type="line"/>
      <point x="1108.0433333333333" y="-49.95333333333334" type="line"/>
      <point x="48.583333333333336" y="-49.95333333333334" type="line"/>
    </contour>
  </outline>
</glyph>
<glyph name="grave" format="2">
  <advance width="802.0166666666667"/>
  <unicode hex="0060"/>
  <anchor x="555.6766666666666" y="961.4833333333333" name="_top"/>
  <anchor x="555.6766666666667" y="1366.1133333333332" name="top"/>
  <outline>
    <contour>
      <point x="480.67" y="1385.6066666666666" type="line"/>
      <point x="107.14666666666666" y="1385.6066666666666" type="line"/>
      <point x="107.14666666666666" y="1378.91" type="line"/>
      <point x="414.0566666666667" y="1079.3700000000001" type="line"/>
      <point x="715.59" y="1079.3700000000001" type="line"/>
      <point x="715.59" y="1085.0666666666666" type="line"/>
    </contour>
  </outline>
</glyph>
<glyph name="a" format="2">
  <advance width="1336.9333333333334"/>
  <unicode hex="0061"/>
  <anchor x="665.3266666666667" y="0.0" name="bottom"/>
  <anchor x="1267.4066666666665" y="8.483333333333334" name="ogonek"/>
  <anchor x="665.3266666666667" y="961.4833333333333" name="top"/>
  <outline>
    <contour>
      <point x="885.1866666666667" y="0.0" type="line"/>
      <point x="1225.8" y="0.0" type="line"/>
      <point x="1225.8" y="537.4933333333333" type="line" smooth="yes"/>
      <point x="1225.8" y="782.1899999999999"/>
      <point x="1114.3066666666666" y="996.6633333333334"/>
      <point x="662.7866666666666" y="996.6633333333334" type="curve" smooth="yes"/>
      <point x="454.1133333333333" y="996.6633333333334"/>
      <point x="284.54" y="950.3833333333333"/>
      <point x="161.03333333333336" y="898.4733333333334" type="curve"/>
      <point x="126.58333333333333" y="648.8066666666667" type="line"/>
      <point x="269.30333333333334" y="700.4466666666667"/>
      <point x="424.82000000000005" y="746.9066666666666"/>
      <point x="605.7066666666667" y="746.9066666666666" type="curve" smooth="yes"/>
      <point x="805.8733333333333" y="746.9066666666666"/>
      <point x="891.9733333333334" y="689.38"/>
      <point x="891.9733333333334" y="579.27" type="curve"/>
      <point x="894.4566666666667" y="530.9433333333333" type="line"/>
      <point x="894.4566666666667" y="313.64" type="line"/>
      <point x="897.67" y="268.9433333333333" type="line"/>
    </contour>
    <contour>
      <point x="457.3466666666667" y="-31.09" type="curve" smooth="yes"/>
      <point x="733.1766666666667" y="-31.09"/>
      <point x="846.5466666666667" y="89.55"/>
      <point x="885.2766666666666" y="239.12333333333333" type="curve"/>
      <point x="956.5366666666667" y="239.12333333333333" type="line"/>
      <point x="899.0633333333333" y="377.01" type="line"/>
      <point x="856.1866666666666" y="288.68666666666667"/>
      <point x="745.8066666666667" y="211.70000000000002"/>
      <point x="562.72" y="211.70000000000002" type="curve" smooth="yes"/>
      <point x="448.9133333333333" y="211.70000000000002"/>
      <point x="400.74666666666667" y="245.46333333333334"/>
      <point x="400.74666666666667" y="300.2033333333333" type="curve" smooth="yes"/>
      <point x="400.74666666666667" y="304.4166666666667" type="line" smooth="yes"/>
      <point x="400.74666666666667" y="363.9766666666667"/>
      <point x="446.75666666666666" y="389.01"/>
      <point x="569.8866666666668" y="399.74" type="curve" smooth="yes"/>
      <point x="923.2433333333333" y="431.04333333333335" type="line"/>
      <point x="916.4566666666666" y="612.1800000000001" type="line"/>
      <point x="546.2233333333334" y="584.6633333333333" type="line" smooth="yes"/>
      <point x="233.85333333333332" y="561.36"/>
      <point x="67.1" y="484.93333333333334"/>
      <point x="67.1" y="266.30333333333334" type="curve" smooth="yes"/>
      <point x="67.1" y="255.91" type="line" smooth="yes"/>
      <point x="67.1" y="76.78666666666666"/>
      <point x="204.65" y="-31.09"/>
    </contour>
  </outline>
</glyph>
<glyph name="b" format="2">
  <advance width="1479.3266666666666"/>
  <unicode hex="0062"/>
  <anchor x="739.6633333333333" y="0.0" name="bottom"/>
  <anchor x="739.6633333333333" y="1315.5166666666667" name="top"/>
  <outline>
    <contour>
      <point x="897.61" y="-31.09" type="curve" smooth="yes"/>
      <point x="1206.98" y="-31.09"/>
      <point x="1397.9233333333334" y="142.60666666666665"/>
      <point x="1397.9233333333334" y="471.7866666666667" type="curve" smooth="yes"/>
      <point x="1397.9233333333334" y="491.09000000000003" type="line" smooth="yes"/>
      <point x="1397.9233333333334" y="820.9666666666667"/>
      <point x="1210.3733333333332" y="993.9666666666667"/>
      <point x="905.3066666666667" y="993.9666666666667" type="curve" smooth="yes"/>
      <point x="638.4533333333334" y="993.9666666666667"/>
      <point x="514.87" y="872.5400000000001"/>
      <point x="477.4433333333333" y="712.6066666666667" type="curve"/>
      <point x="417.8933333333333" y="712.6066666666667" type="line"/>
      <point x="458.05" y="540.5166666666668" type="line"/>
      <point x="503.23" y="642.66"/>
      <point x="617.8233333333333" y="723.4333333333334"/>
      <point x="776.09" y="723.4333333333334" type="curve" smooth="yes"/>
      <point x="953.4466666666667" y="723.4333333333334"/>
      <point x="1051.1299999999999" y="642.0866666666667"/>
      <point x="1051.1299999999999" y="494.3933333333334" type="curve" smooth="yes"/>
      <point x="1051.1299999999999" y="474.69666666666666" type="line" smooth="yes"/>
      <point x="1051.1299999999999" y="327.4866666666667"/>
      <point x="944.7833333333333" y="248.62333333333333"/>
      <point x="770.73" y="248.62333333333333" type="curve" smooth="yes"/>
      <point x="582.2033333333333" y="248.62333333333333"/>
      <point x="473.87" y="331.81333333333333"/>
      <point x="466.74666666666667" y="480.7866666666667" type="curve"/>
      <point x="387.81333333333333" y="248.87666666666667" type="line"/>
      <point x="474.05" y="248.87666666666667" type="line"/>
      <point x="514.9933333333333" y="75.39333333333333"/>
      <point x="648.6999999999999" y="-31.09"/>
    </contour>
    <contour>
      <point x="130.73999999999998" y="0.0" type="line"/>
      <point x="473.4433333333333" y="0.0" type="line"/>
      <point x="460.96" y="281.78666666666663" type="line"/>
      <point x="466.74666666666667" y="320.92" type="line"/>
      <point x="466.74666666666667" y="596.4366666666666" type="line"/>
      <point x="465.04999999999995" y="624.2333333333333" type="line"/>
      <point x="470.74666666666667" y="959.7866666666666" type="line"/>
      <point x="470.74666666666667" y="1315.5166666666667" type="line"/>
      <point x="130.73999999999998" y="1315.5166666666667" type="line"/>
    </contour>
  </outline>
</glyph>
<glyph name="c" format="2">
  <advance width="1217.1566666666668"/>
  <unicode hex="0063"/>
  <anchor x="650.2466666666667" y="0.0" name="bottom"/>
  <anchor x="650.2466666666667" y="961.4833333333333" name="top"/>
  <outline>
    <contour>
      <point x="697.6633333333333" y="-36.876666666666665" type="curve" smooth="yes"/>
      <point x="869.19" y="-36.876666666666665"/>
      <point x="1016.37" y="1.9766666666666666"/>
      <point x="1113.7299999999998" y="52.97666666666666" type="curve"/>
      <point x="1144.4833333333333" y="325.79" type="line"/>
      <point x="1030.4266666666667" y="275.23999999999995"/>
      <point x="914.6633333333334" y="239.56666666666666"/>
      <point x="761.8333333333333" y="239.56666666666666" type="curve" smooth="yes"/>
      <point x="534.8466666666667" y="239.56666666666666"/>
      <point x="424.80333333333334" y="327.61"/>
      <point x="424.80333333333334" y="481.5733333333333" type="curve" smooth="yes"/>
      <point x="424.80333333333334" y="496.48333333333335" type="line" smooth="yes"/>
      <point x="424.80333333333334" y="646.3566666666667"/>
      <point x="525.97" y="730.4000000000001"/>
      <point x="751.0466666666667" y="730.4000000000001" type="curve" smooth="yes"/>
      <point x="908.36" y="730.4000000000001"/>
      <point x="1033.0900000000001" y="690.5466666666667"/>
      <point x="1133.8766666666666" y="640.9966666666667" type="curve"/>
      <point x="1101.0333333333333" y="914.5966666666667" type="line"/>
      <point x="1007.6733333333334" y="962.5966666666667"/>
      <point x="863.4933333333333" y="1002.4499999999999"/>
      <point x="694.2700000000001" y="1002.4499999999999" type="curve" smooth="yes"/>
      <point x="282.31333333333333" y="1002.4499999999999"/>
      <point x="78.01" y="815.09"/>
      <point x="78.01" y="496.09000000000003" type="curve" smooth="yes"/>
      <point x="78.01" y="481.27" type="line" smooth="yes"/>
      <point x="78.01" y="151.09"/>
      <point x="282.31333333333333" y="-36.876666666666665"/>
    </contour>
  </outline>
</glyph>
<glyph name="d" format="2">
  <advance width="1479.3266666666666"/>
  <unicode hex="0064"/>
  <anchor x="739.6633333333334" y="0.0" name="bottom"/>
  <anchor x="739.6633333333334" y="481.09" name="center"/>
  <anchor x="739.6633333333334" y="1315.5166666666667" name="top"/>
  <anchor x="1469.0333333333333" y="1315.5166666666667" name="topright"/>
  <outline>
    <contour>
      <point x="573.8399999999999" y="-31.09" type="curve" smooth="yes"/>
      <point x="837.8166666666666" y="-31.09"/>
      <point x="970.3333333333334" y="93.12333333333333"/>
      <point x="1005.2766666666666" y="248.87666666666667" type="curve"/>
      <point x="1117.0766666666666" y="248.87666666666667" type="line"/>
      <point x="1021.2766666666666" y="428.2366666666667" type="line"/>
      <point x="976.0966666666667" y="324.61"/>
      <point x="858.7166666666667" y="248.62333333333333"/>
      <point x="701.8433333333332" y="248.62333333333333" type="curve" smooth="yes"/>
      <point x="527.97" y="248.62333333333333"/>
      <point x="428.1966666666667" y="327.4866666666667"/>
      <point x="428.1966666666667" y="475.48333333333335" type="curve" smooth="yes"/>
      <point x="428.1966666666667" y="495.17999999999995" type="line" smooth="yes"/>
      <point x="428.1966666666667" y="644.8733333333333"/>
      <point x="532.4533333333333" y="723.4333333333334"/>
      <point x="706.0233333333333" y="723.4333333333334" type="curve" smooth="yes"/>
      <point x="899.28" y="723.4333333333334"/>
      <point x="1005.4566666666667" y="637.3333333333334"/>
      <point x="1012.5799999999999" y="487.78666666666663" type="curve"/>
      <point x="1104.84" y="712.6066666666667" type="line"/>
      <point x="1001.8833333333334" y="712.6066666666667" type="line"/>
      <point x="961.2433333333333" y="888.8766666666667"/>
      <point x="830.9300000000001" y="993.9666666666667"/>
      <point x="581.3233333333334" y="993.9666666666667" type="curve" smooth="yes"/>
      <point x="271.25666666666666" y="993.9666666666667"/>
      <point x="81.40333333333334" y="820.9666666666667"/>
      <point x="81.40333333333334" y="490.3933333333334" type="curve" smooth="yes"/>
      <point x="81.40333333333334" y="471.09000000000003" type="line" smooth="yes"/>
      <point x="81.40333333333334" y="140.51666666666668"/>
      <point x="268.83000000000004" y="-31.09"/>
    </contour>
    <contour>
      <point x="1005.8833333333332" y="0.0" type="line"/>
      <point x="1348.5866666666666" y="0.0" type="line"/>
      <point x="1348.5866666666666" y="1315.5166666666667" type="line"/>
      <point x="1008.5799999999999" y="1315.5166666666667" type="line"/>
      <point x="1008.5799999999999" y="959.7866666666666" type="line"/>
      <point x="1012.8833333333334" y="682.7533333333333" type="line"/>
      <point x="1012.5799999999999" y="634.7533333333333" type="line"/>
      <point x="1012.5799999999999" y="348.09" type="line"/>
      <point x="1018.3666666666667" y="285.27" type="line"/>
    </contour>
  </outline>
</glyph>
<glyph name="e" format="2">
  <advance width="1350.1466666666665"/>
  <unicode hex="0065"/>
  <anchor x="689.0566666666667" y="0.0" name="bottom"/>
  <anchor x="1167.3866666666665" y="8.483333333333333" name="ogonek"/>
  <anchor x="689.0566666666667" y="961.4833333333333" name="top"/>
  <outline>
    <contour>
      <point x="729.0233333333333" y="-36.87666666666667" type="curve" smooth="yes"/>
      <point x="933.81" y="-36.87666666666667"/>
      <point x="1099.3833333333334" y="-1.2366666666666664"/>
      <point x="1221.293333333333" y="58.92000000000001" type="curve"/>
      <point x="1254.35" y="301.53" type="line"/>
      <point x="1106.08" y="246.73333333333335"/>
      <point x="950.4733333333334" y="216.36333333333334"/>
      <point x="787.4066666666668" y="216.36333333333334" type="curve" smooth="yes"/>
      <point x="455.35" y="216.36333333333334"/>
      <point x="402.99333333333334" y="331.9133333333333"/>
      <point x="402.99333333333334" y="430.7633333333333" type="curve" smooth="yes"/>
      <point x="402.99333333333334" y="481.0" type="line"/>
      <point x="400.9033333333333" y="506.09" type="line"/>
      <point x="400.9033333333333" y="540.9" type="line" smooth="yes"/>
      <point x="400.9033333333333" y="677.83"/>
      <point x="492.43" y="763.2666666666668"/>
      <point x="676.8766666666667" y="763.2666666666668" type="curve" smooth="yes"/>
      <point x="866.02" y="763.2666666666668"/>
      <point x="957.6700000000001" y="682.1333333333333"/>
      <point x="957.6700000000001" y="544.4166666666666" type="curve" smooth="yes"/>
      <point x="957.6700000000001" y="503.02333333333337"/>
      <point x="953.58" y="438.6066666666667"/>
      <point x="945.7933333333333" y="389.37" type="curve"/>
      <point x="1260.5633333333335" y="389.37" type="line"/>
      <point x="1267.26" y="422.85333333333335"/>
      <point x="1272.9566666666667" y="474.3033333333333"/>
      <point x="1272.9566666666667" y="519.27" type="curve" smooth="yes"/>
      <point x="1272.9566666666667" y="530.8433333333332" type="line" smooth="yes"/>
      <point x="1272.9566666666667" y="816.2366666666667"/>
      <point x="1071.8999999999999" y="1001.8433333333332"/>
      <point x="676.8766666666667" y="1001.8433333333332" type="curve" smooth="yes"/>
      <point x="293.24666666666667" y="1001.8433333333332"/>
      <point x="78.01" y="815.0566666666667"/>
      <point x="78.01" y="490.99999999999994" type="curve" smooth="yes"/>
      <point x="78.01" y="470.7866666666667" type="line" smooth="yes"/>
      <point x="78.01" y="145.21333333333334"/>
      <point x="290.37" y="-36.87666666666667"/>
    </contour>
    <contour>
      <point x="233.44" y="389.37" type="line"/>
      <point x="1195.18" y="389.37" type="line"/>
      <point x="1195.18" y="585.5066666666667" type="line"/>
      <point x="233.44" y="585.5066666666667" type="line"/>
    </contour>
  </outline>
</glyph>
<glyph name="f" format="2">
  <advance width="978.0999999999999"/>
  <unicode hex="0066"/>
  <anchor x="489.55" y="0.0" name="bottom"/>
  <anchor x="489.55" y="1291.0" name="top"/>
  <outline>
    <contour>
      <point x="581.5266666666666" y="1349.3033333333335" type="curve" smooth="yes"/>
      <point x="273.65" y="1349.3033333333335"/>
      <point x="142.68333333333334" y="1256.3266666666668"/>
      <point x="142.68333333333334" y="1096.2366666666667" type="curve" smooth="yes"/>
      <point x="142.68333333333334" y="1091.8433333333335" type="line" smooth="yes"/>
      <point x="142.68333333333334" y="986.1233333333333"/>
      <point x="207.88666666666666" y="928.73"/>
      <point x="286.18" y="903.6966666666667" type="curve"/>
      <point x="286.18" y="871.64" type="line"/>
      <point x="504.51" y="884.6066666666667" type="line"/>
      <point x="488.81333333333333" y="904.5500000000001"/>
      <point x="477.59999999999997" y="929.7066666666667"/>
      <point x="477.59999999999997" y="961.7733333333334" type="curve" smooth="yes"/>
      <point x="477.59999999999997" y="965.0766666666666" type="line" smooth="yes"/>
      <point x="477.59999999999997" y="1035.94"/>
      <point x="510.12666666666667" y="1087.31"/>
      <point x="696.0133333333333" y="1087.31" type="curve" smooth="yes"/>
      <point x="799.9" y="1087.31"/>
      <point x="886.9333333333334" y="1071.7933333333333"/>
      <point x="970.09" y="1050.1533333333332" type="curve"/>
      <point x="935.64" y="1298.5733333333335" type="line"/>
      <point x="839.64" y="1328.3933333333334"/>
      <point x="714.2233333333334" y="1349.3033333333335"/>
    </contour>
    <contour>
      <point x="183.77333333333334" y="0.0" type="line"/>
      <point x="524.4766666666667" y="0.0" type="line"/>
      <point x="524.4766666666667" y="797.9533333333334" type="line"/>
      <point x="183.77333333333334" y="797.9533333333334" type="line"/>
    </contour>
    <contour>
      <point x="10.426666666666668" y="635.04" type="line"/>
      <point x="932.0333333333334" y="635.04" type="line"/>
      <point x="965.8766666666667" y="896.6966666666666" type="line"/>
      <point x="454.0933333333333" y="896.6966666666666" type="line"/>
      <point x="332.2033333333333" y="893.3033333333333" type="line"/>
      <point x="10.426666666666668" y="896.6966666666666" type="line"/>
    </contour>
  </outline>
</glyph>
<glyph name="g" format="2">
  <advance width="1349.2233333333334"/>
  <unicode hex="0067"/>
  <anchor x="673.8533333333334" y="-338.0" name="bottom"/>
  <anchor x="673.8533333333332" y="961.4833333333333" name="top"/>
  <outline>
    <contour>
      <point x="689.7866666666666" y="329.6066666666667" type="curve"/>
      <point x="1070.4499999999998" y="329.6066666666667"/>
      <point x="1247.5733333333333" y="408.19"/>
      <point x="1247.5733333333333" y="586.1666666666666" type="curve" smooth="yes"/>
      <point x="1247.5733333333333" y="594.5600000000001" type="line" smooth="yes"/>
      <point x="1247.5733333333333" y="702.56"/>
      <point x="1180.9666666666667" y="763.7166666666667"/>
      <point x="1033.18" y="784.1433333333333" type="curve"/>
      <point x="1033.18" y="796.9300000000001" type="line"/>
      <point x="1336.19" y="793.7166666666667" type="line"/>
      <point x="1336.19" y="1020.3266666666667" type="line"/>
      <point x="583.8966666666666" y="985.2700000000001" type="line" smooth="yes"/>
      <point x="250.56" y="969.7866666666667"/>
      <point x="77.68333333333334" y="881.7533333333333"/>
      <point x="77.68333333333334" y="661.6966666666667" type="curve" smooth="yes"/>
      <point x="77.68333333333334" y="655.7866666666666" type="line" smooth="yes"/>
      <point x="77.68333333333334" y="449.7866666666667"/>
      <point x="261.71666666666664" y="329.6066666666667"/>
    </contour>
    <contour>
      <point x="670.3366666666666" y="-156.08666666666667" type="line" smooth="yes"/>
      <point x="466.26" y="-156.08666666666667"/>
      <point x="374.1166666666667" y="-123.48"/>
      <point x="374.1166666666667" y="-50.22333333333334" type="curve" smooth="yes"/>
      <point x="374.1166666666667" y="-48.223333333333336" type="line" smooth="yes"/>
      <point x="374.1166666666667" y="11.033333333333333"/>
      <point x="427.53" y="37.370000000000005"/>
      <point x="497.1000000000001" y="47.28" type="curve"/>
      <point x="402.2" y="36.1" type="line"/>
      <point x="822.11" y="9.706666666666667" type="line" smooth="yes"/>
      <point x="923.7366666666667" y="3.493333333333334"/>
      <point x="974.8033333333334" y="-10.483333333333333"/>
      <point x="974.8033333333334" y="-59.796666666666674" type="curve" smooth="yes"/>
      <point x="974.8033333333334" y="-63.1" type="line" smooth="yes"/>
      <point x="974.8033333333334" y="-129.66"/>
      <point x="887.93" y="-156.08666666666667"/>
      <point x="686.9433333333334" y="-156.08666666666667" type="curve" smooth="yes"/>
    </contour>
    <contour>
      <point x="642.4933333333333" y="-392.27" type="curve" smooth="yes"/>
      <point x="683.5500000000001" y="-392.27" type="line" smooth="yes"/>
      <point x="1073.54" y="-392.27"/>
      <point x="1297.18" y="-300.1566666666667"/>
      <point x="1297.18" y="-63.830000000000005" type="curve" smooth="yes"/>
      <point x="1297.18" y="-60.13333333333334" type="line" smooth="yes"/>
      <point x="1297.18" y="130.83333333333334"/>
      <point x="1155.8533333333335" y="208.92333333333332"/>
      <point x="872.3133333333334" y="228.31666666666666" type="curve" smooth="yes"/>
      <point x="558.9100000000001" y="249.62" type="line" smooth="yes"/>
      <point x="459.6433333333333" y="256.1366666666667"/>
      <point x="420.88000000000005" y="266.77666666666664"/>
      <point x="420.88000000000005" y="301.72" type="curve" smooth="yes"/>
      <point x="420.88000000000005" y="303.4166666666667" type="line" smooth="yes"/>
      <point x="420.88000000000005" y="329.87666666666667"/>
      <point x="444.25" y="344.69666666666666"/>
      <point x="504.7533333333333" y="345.6066666666667" type="curve"/>
      <point x="607.5066666666667" y="344.0" type="line"/>
      <point x="312.9433333333333" y="408.09000000000003" type="line"/>
      <point x="312.9433333333333" y="369.0333333333333" type="line"/>
      <point x="183.79666666666665" y="363.6066666666667"/>
      <point x="114.77333333333334" y="314.91"/>
      <point x="114.77333333333334" y="219.15666666666667" type="curve" smooth="yes"/>
      <point x="114.77333333333334" y="217.45999999999998" type="line" smooth="yes"/>
      <point x="114.77333333333334" y="125.22333333333333"/>
      <point x="185.70666666666665" y="82.10000000000001"/>
      <point x="292.64000000000004" y="65.40333333333334" type="curve"/>
      <point x="292.64000000000004" y="55.40333333333333" type="line"/>
      <point x="139.98666666666668" y="43.49333333333333"/>
      <point x="57.52666666666667" y="-23.203333333333333"/>
      <point x="57.52666666666667" y="-136.63000000000002" type="curve" smooth="yes"/>
      <point x="57.52666666666667" y="-140.32666666666668" type="line" smooth="yes"/>
      <point x="57.52666666666667" y="-331.45"/>
      <point x="265.38000000000005" y="-392.27"/>
    </contour>
    <contour>
      <point x="669.7633333333333" y="542.0366666666666" type="curve" smooth="yes"/>
      <point x="454.68666666666667" y="542.0366666666666"/>
      <point x="398.6666666666667" y="586.8333333333333"/>
      <point x="398.6666666666667" y="652.82" type="curve" smooth="yes"/>
      <point x="398.6666666666667" y="659.73" type="line" smooth="yes"/>
      <point x="398.6666666666667" y="725.8066666666666"/>
      <point x="454.68666666666667" y="771.1766666666666"/>
      <point x="667.3699999999999" y="771.1766666666666" type="curve" smooth="yes"/>
      <point x="674.9766666666667" y="771.1766666666666" type="line" smooth="yes"/>
      <point x="884.84" y="771.1766666666666"/>
      <point x="939.4666666666667" y="724.5933333333334"/>
      <point x="939.4666666666667" y="659.1233333333333" type="curve" smooth="yes"/>
      <point x="939.4666666666667" y="652.2133333333334" type="line" smooth="yes"/>
      <point x="939.4666666666667" y="585.62"/>
      <point x="885.1433333333333" y="542.0366666666666"/>
    </contour>
  </outline>
</glyph>
<glyph name="h" format="2">
  <advance width="1431.1133333333335"/>
  <unicode hex="0068"/>
  <anchor x="716.0566666666667" y="0.0" name="bottom"/>
  <anchor x="716.0566666666667" y="646.0" name="center"/>
  <anchor x="300.74333333333334" y="1315.5166666666667" name="top"/>
  <outline>
    <contour>
      <point x="969.49" y="0.0" type="line"/>
      <point x="1312.1933333333334" y="0.0" type="line"/>
      <point x="1312.1933333333334" y="553.5633333333334" type="line" smooth="yes"/>
      <point x="1312.1933333333334" y="839.2933333333334"/>
      <point x="1175.44" y="993.9666666666667"/>
      <point x="890.4866666666667" y="993.9666666666667" type="curve" smooth="yes"/>
      <point x="643.24" y="993.9666666666667"/>
      <point x="515.4766666666667" y="871.1466666666666"/>
      <point x="477.4433333333333" y="712.6066666666667" type="curve"/>
      <point x="410.15" y="712.6066666666667" type="line"/>
      <point x="467.53333333333336" y="543.4266666666667" type="line"/>
      <point x="507.9266666666666" y="635.8733333333333"/>
      <point x="591.0366666666667" y="712.2533333333333"/>
      <point x="741.3366666666666" y="712.2533333333333" type="curve" smooth="yes"/>
      <point x="924.1433333333333" y="712.2533333333333"/>
      <point x="969.49" y="603.0633333333333"/>
      <point x="969.49" y="478.6166666666666" type="curve" smooth="yes"/>
    </contour>
    <contour>
      <point x="130.73999999999998" y="0.0" type="line"/>
      <point x="473.4433333333333" y="0.0" type="line"/>
      <point x="473.4433333333333" y="615.7733333333334" type="line"/>
      <point x="465.04999999999995" y="618.8066666666667" type="line"/>
      <point x="470.74666666666667" y="958.6966666666668" type="line"/>
      <point x="470.74666666666667" y="1315.5166666666667" type="line"/>
      <point x="130.73999999999998" y="1315.5166666666667" type="line"/>
    </contour>
  </outline>
</glyph>
<glyph name="i" format="2">
  <advance width="604.3966666666666"/>
  <unicode hex="0069"/>
  <anchor x="302.34999999999997" y="0.0" name="bottom"/>
  <anchor x="514.9599999999999" y="8.483333333333334" name="ogonek"/>
  <outline>
    <contour>
      <point x="131.34666666666666" y="0.0" type="line"/>
      <point x="473.05" y="0.0" type="line"/>
      <point x="473.05" y="961.4833333333333" type="line"/>
      <point x="131.34666666666666" y="961.4833333333333" type="line"/>
    </contour>
    <contour>
      <point x="302.0466666666666" y="1072.4466666666667" type="curve" smooth="yes"/>
      <point x="429.97" y="1072.4466666666667"/>
      <point x="487.6" y="1128.7733333333333"/>
      <point x="487.6" y="1224.55" type="curve" smooth="yes"/>
      <point x="487.6" y="1229.2466666666667" type="line" smooth="yes"/>
      <point x="487.6" y="1322.3266666666666"/>
      <point x="429.97" y="1381.0466666666666"/>
      <point x="302.0466666666666" y="1381.0466666666666" type="curve" smooth="yes"/>
      <point x="173.03333333333333" y="1381.0466666666666"/>
      <point x="117.10000000000001" y="1321.6299999999999"/>
      <point x="117.10000000000001" y="1229.2466666666667" type="curve" smooth="yes"/>
      <point x="117.10000000000001" y="1224.55" type="line" smooth="yes"/>
      <point x="117.10000000000001" y="1131.1666666666667"/>
      <point x="173.03333333333333" y="1072.4466666666667"/>
    </contour>
  </outline>
</glyph>
<glyph name="j" format="2">
  <advance width="633.6766666666666"/>
  <unicode hex="006A"/>
  <outline>
    <contour>
      <point x="159.93" y="172.0" type="line"/>
      <point x="502.33" y="172.0" type="line"/>
      <point x="502.33" y="961.4833333333333" type="line"/>
      <point x="159.93" y="961.4833333333333" type="line"/>
    </contour>
    <contour>
      <point x="331.3266666666667" y="1066.3799999999999" type="curve" smooth="yes"/>
      <point x="459.25" y="1066.3799999999999"/>
      <point x="516.88" y="1122.7066666666667"/>
      <point x="516.88" y="1218.4833333333333" type="curve" smooth="yes"/>
      <point x="516.88" y="1223.18" type="line" smooth="yes"/>
      <point x="516.88" y="1316.26"/>
      <point x="459.25" y="1374.98"/>
      <point x="331.3266666666667" y="1374.98" type="curve" smooth="yes"/>
      <point x="202.31333333333333" y="1374.98"/>
      <point x="146.38" y="1315.5633333333333"/>
      <point x="146.38" y="1223.18" type="curve" smooth="yes"/>
      <point x="146.38" y="1218.4833333333333" type="line" smooth="yes"/>
      <point x="146.38" y="1125.1000000000001"/>
      <point x="202.31333333333333" y="1066.3799999999999"/>
    </contour>
    <component base="jbottom"/>
  </outline>
</glyph>
<glyph name="k" format="2">
  <advance width="1375.3733333333332"/>
  <unicode hex="006B"/>
  <anchor x="690.72" y="0.0" name="bottom"/>
  <anchor x="690.72" y="1315.5166666666667" name="top"/>
  <outline>
    <contour>
      <point x="938.2099999999999" y="0.0" type="line"/>
      <point x="1379.7233333333334" y="0.0" type="line"/>
      <point x="813.8733333333333" y="546.9666666666667" type="line"/>
      <point x="813.8733333333333" y="488.72999999999996" type="line"/>
      <point x="1359.51" y="961.4833333333333" type="line"/>
      <point x="925.6933333333333" y="961.4833333333333" type="line"/>
      <point x="517.81" y="601.09" type="line"/>
      <point x="440.1066666666667" y="601.09" type="line"/>
      <point x="440.1066666666667" y="413.72999999999996" type="line"/>
      <point x="517.2033333333334" y="413.72999999999996" type="line"/>
    </contour>
    <contour>
      <point x="130.73999999999998" y="0.0" type="line"/>
      <point x="473.4433333333333" y="0.0" type="line"/>
      <point x="473.4433333333333" y="1315.5166666666667" type="line"/>
      <point x="130.73999999999998" y="1315.5166666666667" type="line"/>
    </contour>
  </outline>
</glyph>
<glyph name="l" format="2">
  <advance width="605.3966666666668"/>
  <unicode hex="006C"/>
  <anchor x="303.0466666666666" y="0.0" name="bottom"/>
  <anchor x="303.0466666666666" y="646.0" name="center"/>
  <anchor x="303.0466666666666" y="1315.5166666666667" name="top"/>
  <anchor x="594.4966666666667" y="1315.5166666666667" name="topright"/>
  <outline>
    <contour>
      <point x="131.3466666666667" y="0.0" type="line"/>
      <point x="474.05" y="0.0" type="line"/>
      <point x="474.05" y="1315.5166666666667" type="line"/>
      <point x="131.3466666666667" y="1315.5166666666667" type="line"/>
    </contour>
  </outline>
</glyph>
<glyph name="m" format="2">
  <advance width="2174.4266666666667"/>
  <unicode hex="006D"/>
  <anchor x="1087.2133333333334" y="0.0" name="bottom"/>
  <anchor x="1087.2133333333334" y="961.4833333333333" name="top"/>
  <outline>
    <contour>
      <point x="1712.8033333333333" y="0.0" type="line"/>
      <point x="2055.5066666666667" y="0.0" type="line"/>
      <point x="2055.5066666666667" y="559.8333333333333" type="line" smooth="yes"/>
      <point x="2055.5066666666667" y="839.2933333333333"/>
      <point x="1926.3600000000001" y="993.9666666666667"/>
      <point x="1656.44" y="993.9666666666667" type="curve" smooth="yes"/>
      <point x="1406.62" y="993.9666666666667"/>
      <point x="1294.7666666666667" y="863.4833333333333"/>
      <point x="1253.5200000000002" y="711.2133333333333" type="curve"/>
      <point x="1220.5533333333333" y="711.2133333333333" type="line"/>
      <point x="1254.43" y="544.6400000000001" type="line"/>
      <point x="1292.52" y="636.48"/>
      <point x="1367.4166666666667" y="712.2533333333333"/>
      <point x="1507.3799999999999" y="712.2533333333333" type="curve" smooth="yes"/>
      <point x="1677.5466666666666" y="712.2533333333333"/>
      <point x="1712.8033333333333" y="597.49"/>
      <point x="1712.8033333333333" y="478.6166666666667" type="curve" smooth="yes"/>
    </contour>
    <contour>
      <point x="130.73999999999998" y="0.0" type="line"/>
      <point x="473.4433333333333" y="0.0" type="line"/>
      <point x="473.4433333333333" y="616.6500000000001" type="line"/>
      <point x="460.96000000000004" y="674.82" type="line"/>
      <point x="473.4433333333333" y="961.4833333333333" type="line"/>
      <point x="130.73999999999998" y="961.4833333333333" type="line"/>
    </contour>
    <contour>
      <point x="922.12" y="0.0" type="line"/>
      <point x="1264.8233333333333" y="0.0" type="line"/>
      <point x="1264.8233333333333" y="556.7533333333333" type="line" smooth="yes"/>
      <point x="1264.8233333333333" y="587.0566666666666"/>
      <point x="1255.9466666666667" y="638.4166666666666"/>
      <point x="1251.34" y="668.1133333333333" type="curve"/>
      <point x="1223.52" y="875.3599999999999"/>
      <point x="1101.6100000000001" y="993.9666666666667"/>
      <point x="867.8466666666666" y="993.9666666666667" type="curve" smooth="yes"/>
      <point x="626.5433333333334" y="993.9666666666667"/>
      <point x="507.2966666666666" y="868.36"/>
      <point x="473.6566666666667" y="712.6066666666667" type="curve"/>
      <point x="423.6333333333333" y="712.6066666666667" type="line"/>
      <point x="463.74666666666667" y="543.4266666666667" type="line"/>
      <point x="501.83666666666664" y="635.8733333333333"/>
      <point x="576.7333333333333" y="712.2533333333333"/>
      <point x="717.3933333333333" y="712.2533333333333" type="curve" smooth="yes"/>
      <point x="879.2" y="712.2533333333333"/>
      <point x="922.12" y="607.9399999999999"/>
      <point x="922.12" y="478.6166666666667" type="curve" smooth="yes"/>
    </contour>
  </outline>
</glyph>
<glyph name="n" format="2">
  <advance width="1431.1133333333335"/>
  <unicode hex="006E"/>
  <anchor x="716.0566666666667" y="0.0" name="bottom"/>
  <anchor x="716.0566666666667" y="961.4833333333333" name="top"/>
  <outline>
    <contour>
      <point x="969.49" y="0.0" type="line"/>
      <point x="1312.1933333333334" y="0.0" type="line"/>
      <point x="1312.1933333333334" y="559.8333333333334" type="line" smooth="yes"/>
      <point x="1312.1933333333334" y="837.9"/>
      <point x="1175.44" y="993.9666666666667"/>
      <point x="890.4866666666667" y="993.9666666666667" type="curve" smooth="yes"/>
      <point x="636.7566666666667" y="993.9666666666667"/>
      <point x="509.99333333333334" y="868.36"/>
      <point x="473.35333333333335" y="712.6066666666667" type="curve"/>
      <point x="425.78000000000003" y="712.6066666666667" type="line"/>
      <point x="463.74666666666667" y="543.4266666666667" type="line"/>
      <point x="504.83666666666664" y="635.8733333333333"/>
      <point x="587.9466666666666" y="712.2533333333333"/>
      <point x="740.73" y="712.2533333333333" type="curve" smooth="yes"/>
      <point x="924.1433333333333" y="712.2533333333333"/>
      <point x="969.49" y="603.0633333333333"/>
      <point x="969.49" y="478.6166666666666" type="curve" smooth="yes"/>
    </contour>
    <contour>
      <point x="130.73999999999998" y="0.0" type="line"/>
      <point x="473.4433333333333" y="0.0" type="line"/>
      <point x="473.4433333333333" y="622.0433333333334" type="line"/>
      <point x="459.56666666666666" y="654.6166666666667" type="line"/>
      <point x="473.4433333333333" y="961.4833333333333" type="line"/>
      <point x="130.73999999999998" y="961.4833333333333" type="line"/>
    </contour>
  </outline>
</glyph>
<glyph name="o" format="2">
  <advance width="1420.1466666666668"/>
  <unicode hex="006F"/>
  <anchor x="710.5733333333334" y="0.0" name="bottom"/>
  <anchor x="710.5733333333334" y="481.09" name="center"/>
  <anchor x="1061.5866666666666" y="8.483333333333334" name="ogonek"/>
  <anchor x="710.5733333333334" y="961.4833333333333" name="top"/>
  <anchor x="1335.2966666666666" y="961.4833333333333" name="topright"/>
  <outline>
    <contour>
      <point x="708.8766666666667" y="-36.27" type="curve" smooth="yes"/>
      <point x="1118.99" y="-36.27"/>
      <point x="1342.1366666666668" y="144.60666666666668"/>
      <point x="1342.1366666666668" y="470.7866666666667" type="curve"/>
      <point x="1342.1366666666668" y="494.3933333333333" type="line"/>
      <point x="1342.1366666666668" y="819.27"/>
      <point x="1118.99" y="1001.8433333333332"/>
      <point x="708.8766666666667" y="1001.8433333333332" type="curve" smooth="yes"/>
      <point x="301.15666666666664" y="1001.8433333333332"/>
      <point x="78.01" y="819.27"/>
      <point x="78.01" y="494.3933333333333" type="curve"/>
      <point x="78.01" y="470.7866666666667" type="line"/>
      <point x="78.01" y="144.91"/>
      <point x="300.8533333333333" y="-36.27"/>
    </contour>
    <contour>
      <point x="708.8766666666667" y="227.99333333333334" type="curve" smooth="yes"/>
      <point x="528.3633333333333" y="227.99333333333334"/>
      <point x="422.41" y="314.03666666666663"/>
      <point x="422.41" y="470.78666666666663" type="curve" smooth="yes"/>
      <point x="422.41" y="494.39333333333326" type="line" smooth="yes"/>
      <point x="422.41" y="650.4466666666666"/>
      <point x="528.3633333333333" y="737.58"/>
      <point x="708.8766666666667" y="737.58" type="curve" smooth="yes"/>
      <point x="892.0866666666666" y="737.58"/>
      <point x="997.7366666666665" y="650.4466666666666"/>
      <point x="997.7366666666665" y="494.39333333333326" type="curve" smooth="yes"/>
      <point x="997.7366666666665" y="470.78666666666663" type="line" smooth="yes"/>
      <point x="997.7366666666665" y="314.03666666666663"/>
      <point x="891.7833333333333" y="227.99333333333334"/>
    </contour>
  </outline>
</glyph>
<glyph name="q" format="2">
  <advance width="1479.3266666666666"/>
  <unicode hex="0071"/>
  <anchor x="739.6633333333334" y="0.0" name="bottom"/>
  <anchor x="739.6633333333334" y="961.4833333333333" name="top"/>
  <outline>
    <contour>
      <point x="573.1433333333333" y="-31.09" type="curve" smooth="yes"/>
      <point x="834.7266666666667" y="-31.09"/>
      <point x="964.85" y="87.55"/>
      <point x="1000.4900000000001" y="241.21333333333334" type="curve"/>
      <point x="1094.7833333333333" y="241.21333333333334" type="line"/>
      <point x="1021.2766666666666" y="428.84333333333336" type="line"/>
      <point x="975.4000000000001" y="325.21666666666664"/>
      <point x="857.3233333333333" y="249.23"/>
      <point x="701.8433333333334" y="249.23" type="curve" smooth="yes"/>
      <point x="527.97" y="249.23"/>
      <point x="428.1966666666667" y="326.39666666666665"/>
      <point x="428.1966666666667" y="475.48333333333335" type="curve" smooth="yes"/>
      <point x="428.1966666666667" y="495.18" type="line" smooth="yes"/>
      <point x="428.1966666666667" y="644.1766666666666"/>
      <point x="529.6666666666666" y="723.4333333333334"/>
      <point x="706.0233333333333" y="723.4333333333334" type="curve" smooth="yes"/>
      <point x="899.28" y="723.4333333333334"/>
      <point x="1005.4566666666668" y="638.2433333333332"/>
      <point x="1012.5799999999999" y="490.81999999999994" type="curve"/>
      <point x="1104.84" y="712.3033333333333" type="line"/>
      <point x="1005.2766666666666" y="712.3033333333333" type="line"/>
      <point x="964.6366666666667" y="888.8766666666667"/>
      <point x="832.6266666666667" y="993.9666666666667"/>
      <point x="581.3233333333334" y="993.9666666666667" type="curve" smooth="yes"/>
      <point x="270.56" y="993.9666666666667"/>
      <point x="81.40333333333334" y="820.9666666666667"/>
      <point x="81.40333333333334" y="490.3933333333334" type="curve" smooth="yes"/>
      <point x="81.40333333333334" y="471.09000000000003" type="line" smooth="yes"/>
      <point x="81.40333333333334" y="139.12333333333333"/>
      <point x="270.22333333333336" y="-31.09"/>
    </contour>
    <contour>
      <point x="1008.5799999999999" y="-338.0" type="line"/>
      <point x="1348.5866666666666" y="-338.0" type="line"/>
      <point x="1348.5866666666666" y="961.4833333333333" type="line"/>
      <point x="1005.8833333333332" y="961.4833333333333" type="line"/>
      <point x="1018.3666666666667" y="675.9100000000001" type="line"/>
      <point x="1012.5799999999999" y="624.7433333333333" type="line"/>
      <point x="1012.5799999999999" y="360.93333333333334" type="line"/>
      <point x="1014.2766666666668" y="326.10333333333335" type="line"/>
      <point x="1008.5799999999999" y="3.3933333333333344" type="line"/>
    </contour>
  </outline>
</glyph>
<glyph name="r" format="2">
  <advance width="1009.2133333333334"/>
  <unicode hex="0072"/>
  <anchor x="302.74333333333334" y="0.0" name="bottom"/>
  <anchor x="525.3366666666667" y="961.4833333333333" name="top"/>
  <outline>
    <contour>
      <point x="464.4433333333333" y="503.19" type="line"/>
      <point x="520.4200000000001" y="608.49"/>
      <point x="639.1600000000001" y="673.7133333333334"/>
      <point x="814.26" y="673.7133333333334" type="curve" smooth="yes"/>
      <point x="870.9333333333333" y="673.7133333333334"/>
      <point x="930.36" y="665.5899999999999"/>
      <point x="976.4833333333333" y="654.1633333333333" type="curve"/>
      <point x="951.5166666666667" y="967.0233333333333" type="line"/>
      <point x="919.1800000000001" y="977.1466666666666"/>
      <point x="876.2366666666667" y="985.2700000000001"/>
      <point x="824.35" y="985.2700000000001" type="curve" smooth="yes"/>
      <point x="623.2833333333333" y="985.2700000000001"/>
      <point x="502.57666666666665" y="869.1800000000001"/>
      <point x="462.20666666666665" y="689.1466666666666" type="curve"/>
      <point x="392.3066666666667" y="689.1466666666666" type="line"/>
    </contour>
    <contour>
      <point x="130.73999999999998" y="0.0" type="line"/>
      <point x="473.4433333333333" y="0.0" type="line"/>
      <point x="473.4433333333333" y="618.9100000000001" type="line"/>
      <point x="447.02666666666664" y="621.9433333333333" type="line"/>
      <point x="461.6" y="961.4833333333333" type="line"/>
      <point x="130.73999999999998" y="961.4833333333333" type="line"/>
    </contour>
  </outline>
</glyph>
<glyph name="s" format="2">
  <advance width="1232.9333333333334"/>
  <unicode hex="0073"/>
  <anchor x="616.9666666666666" y="0.0" name="bottom"/>
  <anchor x="616.9666666666667" y="961.4833333333333" name="top"/>
  <outline>
    <contour>
      <point x="621.3366666666667" y="-36.876666666666665" type="curve" smooth="yes"/>
      <point x="991.3833333333333" y="-36.876666666666665"/>
      <point x="1169.6533333333332" y="61.0"/>
      <point x="1169.6533333333332" y="300.4733333333333" type="curve" smooth="yes"/>
      <point x="1169.6533333333332" y="300.4733333333333" type="line" smooth="yes"/>
      <point x="1169.6533333333332" y="515.3499999999999"/>
      <point x="1020.0233333333333" y="569.8666666666667"/>
      <point x="658.6866666666667" y="599.17" type="curve" smooth="yes"/>
      <point x="422.7" y="617.6866666666666"/>
      <point x="394.6566666666667" y="632.5400000000001"/>
      <point x="394.6566666666667" y="686.5833333333334" type="curve" smooth="yes"/>
      <point x="394.6566666666667" y="686.5833333333334" type="line" smooth="yes"/>
      <point x="394.6566666666667" y="733.8966666666666"/>
      <point x="433.7" y="759.8733333333333"/>
      <point x="610.2600000000001" y="759.8733333333333" type="curve" smooth="yes"/>
      <point x="792.5733333333334" y="759.8733333333333"/>
      <point x="970.2366666666667" y="724.6266666666667"/>
      <point x="1109.3833333333334" y="672.5933333333334" type="curve"/>
      <point x="1074.9333333333334" y="919.7766666666666" type="line"/>
      <point x="955.09" y="965.9"/>
      <point x="786.6966666666667" y="1002.1466666666666"/>
      <point x="577.6299999999999" y="1002.1466666666666" type="curve" smooth="yes"/>
      <point x="238.42666666666665" y="1002.1466666666666"/>
      <point x="67.1" y="906.36"/>
      <point x="67.1" y="694.7633333333333" type="curve" smooth="yes"/>
      <point x="67.1" y="690.6733333333334" type="line" smooth="yes"/>
      <point x="67.1" y="498.7066666666667"/>
      <point x="181.79666666666668" y="413.70666666666665"/>
      <point x="552.8866666666668" y="385.7066666666667" type="curve" smooth="yes"/>
      <point x="765.5466666666667" y="369.88666666666666"/>
      <point x="832.4333333333334" y="364.30333333333334"/>
      <point x="832.4333333333334" y="296.29333333333335" type="curve" smooth="yes"/>
      <point x="832.4333333333334" y="296.29333333333335" type="line" smooth="yes"/>
      <point x="832.4333333333334" y="231.76666666666665"/>
      <point x="764.5699999999999" y="212.18333333333334"/>
      <point x="600.5833333333334" y="212.18333333333334" type="curve" smooth="yes"/>
      <point x="397.69666666666666" y="212.18333333333334"/>
      <point x="212.85333333333335" y="262.3066666666667"/>
      <point x="72.37" y="316.55333333333334" type="curve"/>
      <point x="107.51666666666667" y="48.88666666666666" type="line"/>
      <point x="232.57333333333332" y="2.370000000000001"/>
      <point x="406.45" y="-36.876666666666665"/>
    </contour>
  </outline>
</glyph>
<glyph name="t" format="2">
  <advance width="1063.01"/>
  <unicode hex="0074"/>
  <anchor x="572.7966666666666" y="0.0" name="bottom"/>
  <anchor x="532.1566666666668" y="481.09" name="center"/>
  <anchor x="353.65333333333336" y="1202.3033333333333" name="top"/>
  <anchor x="739.9966666666667" y="1425.7533333333333" name="topright"/>
  <outline>
    <contour>
      <point x="630.2466666666667" y="-27.696666666666665" type="curve" smooth="yes"/>
      <point x="769.9433333333334" y="-27.696666666666665"/>
      <point x="891.55" y="-3.3933333333333335"/>
      <point x="982.8533333333332" y="37.910000000000004" type="curve"/>
      <point x="1016.6966666666667" y="309.99333333333334" type="line"/>
      <point x="939.72" y="277.5333333333333"/>
      <point x="834.7766666666666" y="253.62333333333333"/>
      <point x="740.07" y="253.62333333333333" type="curve" smooth="yes"/>
      <point x="564.5766666666667" y="253.62333333333333"/>
      <point x="519.2633333333334" y="312.51"/>
      <point x="519.2633333333334" y="440.98" type="curve" smooth="yes"/>
      <point x="519.2633333333334" y="794.8066666666667" type="line"/>
      <point x="178.56" y="794.8066666666667" type="line"/>
      <point x="178.56" y="401.95666666666665" type="line" smooth="yes"/>
      <point x="178.56" y="118.93333333333332"/>
      <point x="284.38" y="-27.696666666666665"/>
    </contour>
    <contour>
      <point x="5.213333333333333" y="695.2766666666668" type="line"/>
      <point x="977.7633333333333" y="695.2766666666668" type="line"/>
      <point x="1012.6066666666667" y="956.63" type="line"/>
      <point x="5.213333333333333" y="956.63" type="line"/>
    </contour>
    <contour>
      <point x="185.74" y="929.6633333333333" type="line"/>
      <point x="511.1733333333333" y="929.6633333333333" type="line"/>
      <point x="522.6566666666666" y="1229.6066666666666" type="line"/>
      <point x="184.04333333333335" y="1204.4266666666667" type="line"/>
    </contour>
  </outline>
</glyph>
<glyph name="u" format="2">
  <advance width="1431.1133333333335"/>
  <unicode hex="0075"/>
  <anchor x="716.0566666666667" y="0.0" name="bottom"/>
  <anchor x="1342.2833333333333" y="8.483333333333334" name="ogonek"/>
  <anchor x="716.0566666666667" y="961.4833333333333" name="top"/>
  <anchor x="1410.81" y="961.4833333333333" name="topright"/>
  <outline>
    <contour>
      <point x="461.62333333333333" y="961.4833333333333" type="line"/>
      <point x="118.92" y="961.4833333333333" type="line"/>
      <point x="118.92" y="401.65" type="line" smooth="yes"/>
      <point x="118.92" y="123.58333333333333"/>
      <point x="255.67333333333332" y="-32.483333333333334"/>
      <point x="540.6266666666667" y="-32.483333333333334" type="curve" smooth="yes"/>
      <point x="794.3566666666667" y="-32.483333333333334"/>
      <point x="921.12" y="93.12333333333333"/>
      <point x="957.76" y="248.87666666666667" type="curve"/>
      <point x="1005.3333333333331" y="248.87666666666667" type="line"/>
      <point x="967.3666666666667" y="418.0566666666667" type="line"/>
      <point x="926.2766666666666" y="325.61"/>
      <point x="843.1666666666666" y="249.23"/>
      <point x="690.3833333333333" y="249.23" type="curve" smooth="yes"/>
      <point x="506.96999999999997" y="249.23"/>
      <point x="461.62333333333333" y="358.42"/>
      <point x="461.62333333333333" y="482.8666666666667" type="curve" smooth="yes"/>
    </contour>
    <contour>
      <point x="1300.3733333333334" y="961.4833333333333" type="line"/>
      <point x="957.67" y="961.4833333333333" type="line"/>
      <point x="957.67" y="339.44" type="line"/>
      <point x="971.5466666666666" y="306.8666666666667" type="line"/>
      <point x="957.67" y="0.0" type="line"/>
      <point x="1300.3733333333334" y="0.0" type="line"/>
    </contour>
  </outline>
</glyph>
<glyph name="v" format="2">
  <advance width="1330.4166666666665"/>
  <unicode hex="0076"/>
  <anchor x="665.36" y="0.0" name="bottom"/>
  <anchor x="665.36" y="961.4833333333333" name="top"/>
  <outline>
    <contour>
      <point x="684.0566666666667" y="222.05999999999997" type="line"/>
      <point x="654.1466666666666" y="222.05999999999997" type="line"/>
      <point x="376.5" y="961.4833333333333" type="line"/>
      <point x="14.313333333333333" y="961.4833333333333" type="line"/>
      <point x="397.4333333333333" y="0.0" type="line"/>
      <point x="937.68" y="0.0" type="line"/>
      <point x="1316.1033333333335" y="961.4833333333333" type="line"/>
      <point x="956.6133333333333" y="961.4833333333333" type="line"/>
    </contour>
  </outline>
</glyph>
<glyph name="w" format="2">
  <advance width="1955.5166666666667"/>
  <unicode hex="0077"/>
  <anchor x="977.91" y="0.0" name="bottom"/>
  <anchor x="977.91" y="961.4833333333333" name="top"/>
  <outline>
    <contour>
      <point x="309.0066666666667" y="0.0" type="line"/>
      <point x="793.0266666666668" y="0.0" type="line"/>
      <point x="931.9566666666666" y="549.2466666666667" type="line"/>
      <point x="968.91" y="691.0966666666667" type="line"/>
      <point x="986.3033333333333" y="691.0966666666667" type="line"/>
      <point x="1023.56" y="549.2466666666667" type="line"/>
      <point x="1163.1866666666667" y="0.0" type="line"/>
      <point x="1646.51" y="0.0" type="line"/>
      <point x="1930.7766666666666" y="961.4833333333333" type="line"/>
      <point x="1572.6799999999998" y="961.4833333333333" type="line"/>
      <point x="1395.46" y="241.69" type="line"/>
      <point x="1375.46" y="241.69" type="line"/>
      <point x="1188.61" y="934.1800000000001" type="line"/>
      <point x="764.21" y="934.1800000000001" type="line"/>
      <point x="584.1466666666666" y="241.69" type="line"/>
      <point x="561.7533333333332" y="241.69" type="line"/>
      <point x="382.83666666666664" y="961.4833333333333" type="line"/>
      <point x="24.740000000000002" y="961.4833333333333" type="line"/>
    </contour>
  </outline>
</glyph>
<glyph name="x" format="2">
  <advance width="1358.4066666666668"/>
  <unicode hex="0078"/>
  <anchor x="679.2033333333334" y="0.0" name="bottom"/>
  <anchor x="679.2033333333334" y="961.4833333333333" name="top"/>
  <outline>
    <contour>
      <point x="19.65" y="0.0" type="line"/>
      <point x="414.8033333333333" y="0.0" type="line"/>
      <point x="667.1133333333333" y="335.05333333333334" type="line"/>
      <point x="690.5966666666667" y="335.05333333333334" type="line"/>
      <point x="943.9066666666666" y="0.0" type="line"/>
      <point x="1338.7566666666667" y="0.0" type="line"/>
      <point x="922.8933333333334" y="538.4166666666666" type="line"/>
      <point x="922.8933333333334" y="458.06666666666666" type="line"/>
      <point x="1325.9699999999998" y="961.4833333333333" type="line"/>
      <point x="933.5133333333333" y="961.4833333333333" type="line"/>
      <point x="690.5966666666667" y="644.6433333333333" type="line"/>
      <point x="667.1133333333333" y="644.6433333333333" type="line"/>
      <point x="425.1966666666667" y="961.4833333333333" type="line"/>
      <point x="32.74" y="961.4833333333333" type="line"/>
      <point x="435.5133333333333" y="457.7633333333333" type="line"/>
      <point x="435.5133333333333" y="539.81" type="line"/>
    </contour>
  </outline>
</glyph>
<glyph name="y" format="2">
  <advance width="1331.7199999999998"/>
  <unicode hex="0079"/>
  <anchor x="1082.1266666666668" y="4.829999999999998" name="bottom"/>
  <anchor x="666.36" y="961.4833333333333" name="top"/>
  <outline>
    <contour>
      <point x="819.9133333333333" y="267.20666666666665" type="line"/>
      <point x="644.9666666666667" y="267.20666666666665" type="line"/>
      <point x="377.1066666666667" y="961.4833333333333" type="line"/>
      <point x="14.313333333333333" y="961.4833333333333" type="line"/>
      <point x="405.0966666666667" y="46.66333333333333" type="line"/>
      <point x="759.8000000000001" y="46.66333333333333" type="line"/>
      <point x="612.7966666666666" y="199.18333333333334" type="line"/>
      <point x="379.88666666666666" y="-338.0" type="line"/>
      <point x="734.8033333333334" y="-338.0" type="line"/>
      <point x="1317.4066666666668" y="961.4833333333333" type="line"/>
      <point x="957.4" y="961.4833333333333" type="line"/>
      <point x="619.46" y="145.62" type="line"/>
    </contour>
  </outline>
</glyph>
<glyph name="z" format="2">
  <advance width="1243.27"/>
  <unicode hex="007A"/>
  <anchor x="621.7866666666666" y="0.0" name="bottom"/>
  <anchor x="621.7866666666666" y="481.09" name="center"/>
  <anchor x="621.7866666666666" y="961.4833333333333" name="top"/>
  <outline>
    <contour>
      <point x="1152.7200000000003" y="267.8366666666667" type="line"/>
      <point x="550.4466666666667" y="267.8366666666667" type="line"/>
      <point x="1145.0233333333335" y="720.2766666666666" type="line"/>
      <point x="1145.0233333333335" y="959.7866666666666" type="line"/>
      <point x="94.55" y="959.7866666666666" type="line"/>
      <point x="94.55" y="691.95" type="line"/>
      <point x="683.4300000000001" y="691.95" type="line"/>
      <point x="90.55" y="239.81333333333333" type="line"/>
      <point x="90.55" y="0.0" type="line"/>
      <point x="1152.7200000000003" y="0.0" type="line"/>
    </contour>
  </outline>
</glyph>
<glyph name="braceleft" format="2">
  <advance width="834.9433333333333"/>
  <unicode hex="007B"/>
  <outline>
    <contour>
      <point x="770.0899999999999" y="1325.3933333333334" type="line"/>
      <point x="719.0" y="1339.6966666666665"/>
      <point x="641.91" y="1352.6966666666665"/>
      <point x="562.5166666666667" y="1352.6966666666665" type="curve" smooth="yes"/>
      <point x="325.31333333333333" y="1352.6966666666665"/>
      <point x="216.07666666666668" y="1261.8200000000002"/>
      <point x="216.07666666666668" y="1036.7066666666667" type="curve" smooth="yes"/>
      <point x="216.07666666666668" y="973.6733333333334"/>
      <point x="228.98666666666665" y="858.8533333333334"/>
      <point x="228.98666666666665" y="795.3933333333333" type="curve" smooth="yes"/>
      <point x="228.98666666666665" y="715.81"/>
      <point x="191.38" y="673.0466666666667"/>
      <point x="71.64" y="670.1366666666667" type="curve"/>
      <point x="71.64" y="418.84000000000003" type="line"/>
      <point x="191.38" y="415.3233333333333"/>
      <point x="228.98666666666665" y="373.65000000000003"/>
      <point x="228.98666666666665" y="293.7633333333333" type="curve" smooth="yes"/>
      <point x="228.98666666666665" y="230.3033333333333"/>
      <point x="216.07666666666668" y="115.48333333333333"/>
      <point x="216.07666666666668" y="52.146666666666675" type="curve" smooth="yes"/>
      <point x="216.07666666666668" y="-174.66333333333333"/>
      <point x="325.31333333333333" y="-266.54"/>
      <point x="562.5166666666667" y="-266.54" type="curve" smooth="yes"/>
      <point x="641.91" y="-266.54"/>
      <point x="719.0" y="-254.23666666666668"/>
      <point x="770.0899999999999" y="-239.63" type="curve"/>
      <point x="770.0899999999999" y="-7.9633333333333365" type="line"/>
      <point x="741.45" y="-15.086666666666662"/>
      <point x="705.99" y="-22.603333333333335"/>
      <point x="663.3166666666666" y="-22.603333333333335" type="curve" smooth="yes"/>
      <point x="566.3066666666667" y="-22.603333333333335"/>
      <point x="525.97" y="10.339999999999998"/>
      <point x="525.97" y="96.86666666666666" type="curve" smooth="yes"/>
      <point x="525.97" y="156.98999999999998"/>
      <point x="538.5766666666667" y="258.93333333333334"/>
      <point x="538.5766666666667" y="330.09" type="curve" smooth="yes"/>
      <point x="538.5766666666667" y="443.2133333333333"/>
      <point x="494.0033333333333" y="524.0666666666666"/>
      <point x="338.51" y="540.9433333333334" type="curve"/>
      <point x="349.75666666666666" y="508.33666666666664" type="line"/>
      <point x="349.75666666666666" y="551.0333333333333" type="line"/>
      <point x="494.3966666666667" y="570.4266666666666"/>
      <point x="538.5766666666667" y="647.5500000000001"/>
      <point x="538.5766666666667" y="759.37" type="curve" smooth="yes"/>
      <point x="538.5766666666667" y="830.2233333333334"/>
      <point x="525.97" y="931.8633333333333"/>
      <point x="525.97" y="992.2900000000001" type="curve" smooth="yes"/>
      <point x="525.97" y="1078.5133333333333"/>
      <point x="564.61" y="1111.4566666666667"/>
      <point x="657.2266666666667" y="1111.4566666666667" type="curve" smooth="yes"/>
      <point x="702.5966666666666" y="1111.4566666666667"/>
      <point x="739.7533333333333" y="1104.2433333333333"/>
      <point x="770.0899999999999" y="1097.1200000000001" type="curve"/>
    </contour>
  </outline>
</glyph>
<glyph name="bar" format="2">
  <advance width="621.9333333333334"/>
  <unicode hex="007C"/>
  <outline>
    <contour>
      <point x="454.0366666666667" y="-431.06666666666666" type="line"/>
      <point x="454.0366666666667" y="1415.0" type="line"/>
      <point x="167.89666666666668" y="1415.0" type="line"/>
      <point x="167.89666666666668" y="-431.06666666666666" type="line"/>
    </contour>
  </outline>
</glyph>
<glyph name="braceright" format="2">
  <advance width="834.9433333333333"/>
  <unicode hex="007D"/>
  <outline>
    <contour>
      <point x="64.85333333333334" y="1325.3933333333334" type="curve"/>
      <point x="64.85333333333334" y="1097.1200000000001" type="line"/>
      <point x="95.19" y="1104.2433333333333"/>
      <point x="132.34666666666666" y="1111.4566666666667"/>
      <point x="177.71666666666667" y="1111.4566666666667" type="curve" smooth="yes"/>
      <point x="270.3333333333333" y="1111.4566666666667"/>
      <point x="308.97333333333336" y="1078.5133333333333"/>
      <point x="308.97333333333336" y="992.2900000000001" type="curve" smooth="yes"/>
      <point x="308.97333333333336" y="931.8633333333333"/>
      <point x="296.3666666666667" y="830.2233333333334"/>
      <point x="296.3666666666667" y="759.37" type="curve" smooth="yes"/>
      <point x="296.3666666666667" y="647.5500000000001"/>
      <point x="340.5466666666667" y="570.4266666666666"/>
      <point x="485.1866666666667" y="551.0333333333333" type="curve"/>
      <point x="485.1866666666667" y="508.33666666666664" type="line"/>
      <point x="496.43333333333334" y="540.9433333333334" type="line"/>
      <point x="340.94" y="524.0666666666666"/>
      <point x="296.3666666666667" y="443.2133333333333"/>
      <point x="296.3666666666667" y="330.09" type="curve" smooth="yes"/>
      <point x="296.3666666666667" y="258.93333333333334"/>
      <point x="308.97333333333336" y="156.98999999999998"/>
      <point x="308.97333333333336" y="96.86666666666666" type="curve" smooth="yes"/>
      <point x="308.97333333333336" y="10.339999999999998"/>
      <point x="268.63666666666666" y="-22.603333333333335"/>
      <point x="171.62666666666667" y="-22.603333333333335" type="curve" smooth="yes"/>
      <point x="128.95333333333335" y="-22.603333333333335"/>
      <point x="93.49333333333334" y="-15.086666666666662"/>
      <point x="64.85333333333334" y="-7.9633333333333365" type="curve"/>
      <point x="64.85333333333334" y="-239.63" type="line"/>
      <point x="115.94333333333333" y="-254.23666666666668"/>
      <point x="193.03333333333333" y="-266.54"/>
      <point x="272.4266666666667" y="-266.54" type="curve" smooth="yes"/>
      <point x="509.63" y="-266.54"/>
      <point x="618.8666666666667" y="-174.66333333333333"/>
      <point x="618.8666666666667" y="52.146666666666675" type="curve" smooth="yes"/>
      <point x="618.8666666666667" y="115.48333333333333"/>
      <point x="605.9566666666667" y="230.3033333333333"/>
      <point x="605.9566666666667" y="293.7633333333333" type="curve" smooth="yes"/>
      <point x="605.9566666666667" y="373.65000000000003"/>
      <point x="643.5633333333333" y="415.3233333333333"/>
      <point x="763.3033333333333" y="418.84000000000003" type="curve"/>
      <point x="763.3033333333333" y="670.1366666666667" type="line"/>
      <point x="643.5633333333333" y="673.0466666666667"/>
      <point x="605.9566666666667" y="715.81"/>
      <point x="605.9566666666667" y="795.3933333333333" type="curve" smooth="yes"/>
      <point x="605.9566666666667" y="858.8533333333334"/>
      <point x="618.8666666666667" y="973.6733333333334"/>
      <point x="618.8666666666667" y="1036.7066666666667" type="curve" smooth="yes"/>
      <point x="618.8666666666667" y="1261.8200000000002"/>
      <point x="509.63" y="1352.6966666666665"/>
      <point x="272.4266666666667" y="1352.6966666666665" type="curve" smooth="yes"/>
      <point x="193.03333333333333" y="1352.6966666666665"/>
      <point x="115.94333333333333" y="1339.6966666666665"/>
    </contour>
  </outline>
</glyph>
<glyph name="asciitilde" format="2">
  <advance width="1367.5166666666667"/>
  <unicode hex="007E"/>
  <outline>
    <contour>
      <point x="932.8866666666667" y="423.91" type="curve" smooth="yes"/>
      <point x="1152.4833333333333" y="423.91"/>
      <point x="1241.8999999999999" y="540.7866666666666"/>
      <point x="1241.8999999999999" y="767.1933333333334" type="curve" smooth="yes"/>
      <point x="1241.8999999999999" y="818.25" type="line"/>
      <point x="998.9966666666666" y="818.25" type="line"/>
      <point x="998.9966666666666" y="810.3066666666666" type="line" smooth="yes"/>
      <point x="995.5133333333333" y="728.3299999999999"/>
      <point x="971.8733333333333" y="687.4766666666667"/>
      <point x="900.29" y="687.4766666666667" type="curve" smooth="yes"/>
      <point x="772.8533333333334" y="687.4766666666667"/>
      <point x="626.1800000000001" y="792.9466666666666"/>
      <point x="433.2366666666666" y="792.9466666666666" type="curve" smooth="yes"/>
      <point x="214.03333333333333" y="792.9466666666666"/>
      <point x="125.61666666666667" y="675.16"/>
      <point x="125.61666666666667" y="450.35999999999996" type="curve" smooth="yes"/>
      <point x="125.61666666666667" y="398.6066666666667" type="line"/>
      <point x="366.8233333333333" y="398.6066666666667" type="line"/>
      <point x="366.8233333333333" y="412.82" type="line" smooth="yes"/>
      <point x="371.00333333333333" y="489.3133333333334"/>
      <point x="395.15999999999997" y="528.47"/>
      <point x="465.83333333333337" y="528.47" type="curve" smooth="yes"/>
      <point x="593.6633333333333" y="528.47"/>
      <point x="748.1233333333333" y="423.91"/>
    </contour>
  </outline>
</glyph>
<glyph name="exclamdown" format="2">
  <advance width="614.4066666666668"/>
  <unicode hex="00A1"/>
  <outline>
    <contour>
      <point x="457.23999999999995" y="537.4933333333333" type="line"/>
      <point x="158.16666666666669" y="537.4933333333333" type="line"/>
      <point x="120.92999999999999" y="-316.51666666666665" type="line"/>
      <point x="493.4766666666667" y="-316.51666666666665" type="line"/>
    </contour>
    <contour>
      <point x="307.2033333333333" y="991.7533333333333" type="curve" smooth="yes"/>
      <point x="177.28" y="991.7533333333333"/>
      <point x="118.04333333333334" y="928.0333333333333"/>
      <point x="118.04333333333334" y="825.9533333333333" type="curve" smooth="yes"/>
      <point x="118.04333333333334" y="821.2566666666667" type="line" smooth="yes"/>
      <point x="118.04333333333334" y="718.4799999999999"/>
      <point x="177.28" y="654.0633333333333"/>
      <point x="307.2033333333333" y="654.0633333333333" type="curve" smooth="yes"/>
      <point x="437.73333333333335" y="654.0633333333333"/>
      <point x="497.36333333333334" y="718.4799999999999"/>
      <point x="497.36333333333334" y="821.2566666666667" type="curve" smooth="yes"/>
      <point x="497.36333333333334" y="825.9533333333333" type="line" smooth="yes"/>
      <point x="497.36333333333334" y="928.0333333333333"/>
      <point x="437.73333333333335" y="991.7533333333333"/>
    </contour>
  </outline>
</glyph>
<glyph name="cent" format="2">
  <advance width="1217.1566666666668"/>
  <unicode hex="00A2"/>
  <anchor x="650.2466666666667" y="0.0" name="bottom"/>
  <anchor x="650.2466666666667" y="961.4833333333333" name="top"/>
  <outline>
    <contour>
      <point x="847.5533333333334" y="826.2333333333333" type="line"/>
      <point x="847.5533333333334" y="1209.7299999999998" type="line"/>
      <point x="557.7733333333333" y="1209.7299999999998" type="line"/>
      <point x="557.7733333333333" y="826.2333333333333" type="line"/>
    </contour>
    <contour>
      <point x="847.5533333333334" y="-240.46" type="line"/>
      <point x="847.5533333333334" y="128.5633333333333" type="line"/>
      <point x="557.7733333333333" y="128.5633333333333" type="line"/>
      <point x="557.7733333333333" y="-240.46" type="line"/>
    </contour>
    <component base="c"/>
  </outline>
</glyph>
<glyph name="sterling" format="2">
  <advance width="1477.7966666666669"/>
  <unicode hex="00A3"/>
  <outline>
    <contour>
      <point x="94.24666666666666" y="531.74" type="line"/>
      <point x="1259.5166666666667" y="531.74" type="line"/>
      <point x="1277.3033333333333" y="751.4733333333334" type="line"/>
      <point x="112.03333333333333" y="751.4733333333334" type="line"/>
    </contour>
    <contour>
      <point x="490.2733333333333" y="279.8366666666667" type="line"/>
      <point x="490.2733333333333" y="290.62333333333333" type="line"/>
      <point x="650.68" y="327.05"/>
      <point x="697.8366666666666" y="394.9033333333333"/>
      <point x="697.8366666666666" y="506.39666666666665" type="curve" smooth="yes"/>
      <point x="697.8366666666666" y="615.36"/>
      <point x="616.68" y="734.73"/>
      <point x="616.68" y="856.9866666666667" type="curve" smooth="yes"/>
      <point x="616.68" y="966.8833333333333"/>
      <point x="676.9133333333334" y="1025.0733333333335"/>
      <point x="921.3499999999999" y="1025.0733333333335" type="curve" smooth="yes"/>
      <point x="1061.5966666666668" y="1025.0733333333335"/>
      <point x="1194.0566666666666" y="1006.2533333333333"/>
      <point x="1327.4833333333333" y="976.0066666666667" type="curve"/>
      <point x="1298.0333333333333" y="1260.0233333333333" type="line"/>
      <point x="1165.64" y="1293.1466666666668"/>
      <point x="996.9433333333333" y="1311.5733333333333"/>
      <point x="841.91" y="1311.5733333333333" type="curve" smooth="yes"/>
      <point x="433.01" y="1311.5733333333333"/>
      <point x="241.34666666666666" y="1178.3033333333333"/>
      <point x="241.34666666666666" y="905.28" type="curve" smooth="yes"/>
      <point x="241.34666666666666" y="745.0233333333334"/>
      <point x="332.29" y="568.3366666666667"/>
      <point x="331.9866666666667" y="442.65333333333336" type="curve" smooth="yes"/>
      <point x="331.9866666666667" y="356.4866666666667"/>
      <point x="293.9766666666667" y="304.65666666666664"/>
      <point x="192.45" y="280.6566666666667" type="curve" smooth="yes"/>
      <point x="100.46000000000001" y="263.4766666666667" type="line"/>
      <point x="100.46000000000001" y="0.0" type="line"/>
      <point x="1413.2466666666667" y="0.0" type="line"/>
      <point x="1413.2466666666667" y="279.8366666666667" type="line"/>
    </contour>
  </outline>
</glyph>
<glyph name="currency" format="2">
  <advance width="1323.9566666666665"/>
  <unicode hex="00A4"/>
  <outline>
    <contour>
      <point x="659.9333333333333" y="172.2566666666667" type="curve" smooth="yes"/>
      <point x="979.1366666666667" y="172.2566666666667"/>
      <point x="1154.8" y="326.91999999999996"/>
      <point x="1154.8" y="597.0666666666667" type="curve" smooth="yes"/>
      <point x="1154.8" y="605.7633333333333" type="line" smooth="yes"/>
      <point x="1154.8" y="876.6066666666667"/>
      <point x="979.1366666666667" y="1030.9666666666667"/>
      <point x="659.9333333333334" y="1030.9666666666667" type="curve" smooth="yes"/>
      <point x="342.4266666666667" y="1030.9666666666667"/>
      <point x="166.76333333333335" y="876.6066666666667"/>
      <point x="166.76333333333335" y="605.7633333333333" type="curve" smooth="yes"/>
      <point x="166.76333333333335" y="597.0666666666667" type="line" smooth="yes"/>
      <point x="166.76333333333335" y="326.91999999999996"/>
      <point x="342.4266666666666" y="172.2566666666667"/>
    </contour>
    <contour>
      <point x="659.9333333333334" y="430.2166666666667" type="curve" smooth="yes"/>
      <point x="541.88" y="430.2166666666667"/>
      <point x="475.22999999999996" y="490.83333333333337"/>
      <point x="475.22999999999996" y="597.0666666666666" type="curve" smooth="yes"/>
      <point x="475.22999999999996" y="605.7633333333334" type="line" smooth="yes"/>
      <point x="475.22999999999996" y="711.6933333333334"/>
      <point x="541.88" y="772.31"/>
      <point x="659.9333333333334" y="772.31" type="curve" smooth="yes"/>
      <point x="779.38" y="772.31"/>
      <point x="846.3333333333334" y="711.6933333333333"/>
      <point x="846.3333333333333" y="605.7633333333334" type="curve" smooth="yes"/>
      <point x="846.3333333333333" y="597.0666666666666" type="line" smooth="yes"/>
      <point x="846.3333333333334" y="490.83333333333337"/>
      <point x="779.38" y="430.2166666666667"/>
    </contour>
    <contour>
      <point x="989.0800000000002" y="460.0133333333333" type="line"/>
      <point x="804.2900000000001" y="299.88666666666666" type="line"/>
      <point x="1055.7966666666666" y="64.16666666666667" type="line"/>
      <point x="1231.4966666666667" y="233.38333333333335" type="line"/>
    </contour>
    <contour>
      <point x="509.88" y="290.1" type="line"/>
      <point x="344.0566666666667" y="468.49666666666667" type="line"/>
      <point x="92.46" y="233.38333333333335" type="line"/>
      <point x="268.16" y="64.16666666666667" type="line"/>
    </contour>
    <contour>
      <point x="317.30333333333334" y="756.39" type="line"/>
      <point x="508.88" y="910.4266666666666" type="line"/>
      <point x="268.15999999999997" y="1135.6633333333332" type="line"/>
      <point x="92.46" y="966.4466666666667" type="line"/>
    </contour>
    <contour>
      <point x="817.1666666666667" y="911.82" type="line"/>
      <point x="994.7766666666666" y="745.9066666666666" type="line"/>
      <point x="1231.4966666666667" y="966.4466666666667" type="line"/>
      <point x="1055.7966666666666" y="1135.6633333333332" type="line"/>
    </contour>
  </outline>
</glyph>
<glyph name="yen" format="2">
  <advance width="1550.7766666666669"/>
  <unicode hex="00A5"/>
  <anchor x="774.9333333333334" y="0.0" name="bottom"/>
  <anchor x="774.9333333333334" y="1278.0" name="top"/>
  <anchor x="20.0" y="1278.0" name="topleft"/>
  <outline>
    <contour>
      <point x="858.8866666666667" y="513.7399999999999" type="line"/>
      <point x="1399.9566666666667" y="513.7399999999999" type="line"/>
      <point x="1417.44" y="695.0" type="line"/>
      <point x="915.8199999999999" y="695.0" type="line"/>
    </contour>
    <contour>
      <point x="154.82" y="399.0566666666667" type="line"/>
      <point x="135.64" y="217.79666666666665" type="line"/>
      <point x="1399.9566666666667" y="217.79666666666665" type="line"/>
      <point x="1417.44" y="399.0566666666667" type="line"/>
    </contour>
    <contour>
      <point x="648.9233333333333" y="695.0" type="line"/>
      <point x="154.82" y="695.0" type="line"/>
      <point x="135.64" y="513.7399999999999" type="line"/>
      <point x="706.5533333333334" y="513.7399999999999" type="line"/>
    </contour>
    <component base="Y"/>
  </outline>
</glyph>
<glyph name="brokenbar" format="2">
  <advance width="623.1466666666666"/>
  <unicode hex="00A6"/>
  <outline>
    <contour>
      <point x="455.25" y="578.0333333333333" type="line"/>
      <point x="455.25" y="1415.0" type="line"/>
      <point x="167.89666666666668" y="1415.0" type="line"/>
      <point x="167.89666666666668" y="578.0333333333333" type="line"/>
    </contour>
    <contour>
      <point x="455.25" y="-431.06666666666666" type="line"/>
      <point x="455.25" y="405.90000000000003" type="line"/>
      <point x="167.89666666666668" y="405.90000000000003" type="line"/>
      <point x="167.89666666666668" y="-431.06666666666666" type="line"/>
    </contour>
  </outline>
</glyph>
<glyph name="section" format="2">
  <advance width="1284.1566666666665"/>
  <unicode hex="00A7"/>
  <outline>
    <contour>
      <point x="728.3233333333333" y="476.58666666666664" type="curve"/>
      <point x="962.7533333333333" y="421.62" type="line"/>
      <point x="962.7533333333333" y="482.6433333333333" type="line"/>
      <point x="1106.4166666666665" y="485.98"/>
      <point x="1184.0233333333333" y="557.2833333333333"/>
      <point x="1184.0233333333333" y="671.4066666666668" type="curve" smooth="yes"/>
      <point x="1184.0233333333333" y="671.4066666666666" type="line" smooth="yes"/>
      <point x="1183.72" y="844.71"/>
      <point x="1034.27" y="887.8666666666667"/>
      <point x="682.1466666666666" y="917.3833333333333" type="curve" smooth="yes"/>
      <point x="454.55333333333334" y="936.81"/>
      <point x="426.59999999999997" y="949.9666666666667"/>
      <point x="426.59999999999997" y="1001.01" type="curve" smooth="yes"/>
      <point x="426.59999999999997" y="1001.01" type="line" smooth="yes"/>
      <point x="426.59999999999997" y="1043.4466666666667"/>
      <point x="464.03666666666663" y="1067.6366666666668"/>
      <point x="633.72" y="1067.6366666666668" type="curve" smooth="yes"/>
      <point x="813.0333333333333" y="1067.6366666666668"/>
      <point x="988.5166666666667" y="1031.48"/>
      <point x="1125.27" y="977.93" type="curve"/>
      <point x="1090.82" y="1229.2033333333334" type="line"/>
      <point x="972.7633333333333" y="1275.3266666666666"/>
      <point x="805.55" y="1311.5733333333335"/>
      <point x="601.09" y="1311.5733333333335" type="curve" smooth="yes"/>
      <point x="267.06666666666666" y="1311.5733333333335"/>
      <point x="99.04333333333334" y="1216.09"/>
      <point x="99.04333333333334" y="1005.4033333333333" type="curve" smooth="yes"/>
      <point x="99.04333333333334" y="1001.3133333333334" type="line" smooth="yes"/>
      <point x="99.04333333333334" y="776.1433333333334"/>
      <point x="237.34666666666666" y="727.1666666666667"/>
      <point x="576.3466666666667" y="691.11" type="curve" smooth="yes"/>
      <point x="782.5233333333333" y="670.11"/>
      <point x="849.23" y="666.7966666666666"/>
      <point x="849.23" y="585.5733333333333" type="curve" smooth="yes"/>
      <point x="849.23" y="585.5733333333333" type="line" smooth="yes"/>
      <point x="849.23" y="539.4399999999999"/>
      <point x="806.0066666666667" y="508.5533333333333"/>
    </contour>
    <contour>
      <point x="556.8333333333333" y="736.47" type="curve"/>
      <point x="298.0433333333333" y="777.83" type="line"/>
      <point x="298.0433333333333" y="728.8966666666666" type="line"/>
      <point x="189.19" y="713.7733333333334"/>
      <point x="99.65" y="663.01"/>
      <point x="99.65" y="540.8633333333333" type="curve" smooth="yes"/>
      <point x="99.65" y="536.7733333333334" type="line" smooth="yes"/>
      <point x="99.65" y="380.6166666666667"/>
      <point x="219.62666666666667" y="318.31333333333333"/>
      <point x="582.7166666666667" y="288.9766666666667" type="curve" smooth="yes"/>
      <point x="782.22" y="272.3366666666667"/>
      <point x="847.41" y="266.45"/>
      <point x="847.41" y="204.35" type="curve" smooth="yes"/>
      <point x="847.41" y="204.35" type="line" smooth="yes"/>
      <point x="847.41" y="146.91333333333333"/>
      <point x="783.1533333333334" y="129.33"/>
      <point x="624.0433333333334" y="129.33" type="curve" smooth="yes"/>
      <point x="426.37" y="129.33"/>
      <point x="239.37" y="179.15"/>
      <point x="103.1" y="233.09333333333333" type="curve"/>
      <point x="138.24666666666667" y="-36.843333333333334" type="line"/>
      <point x="259.69666666666666" y="-82.75333333333333"/>
      <point x="436.33666666666664" y="-121.39333333333333"/>
      <point x="646.92" y="-121.39333333333333" type="curve" smooth="yes"/>
      <point x="1011.7866666666666" y="-121.39333333333333"/>
      <point x="1184.6299999999999" y="-22.91"/>
      <point x="1184.6299999999999" y="211.10333333333332" type="curve" smooth="yes"/>
      <point x="1184.6299999999999" y="211.10333333333332" type="line" smooth="yes"/>
      <point x="1184.6299999999999" y="427.8233333333333"/>
      <point x="1036.7866666666669" y="485.6433333333333"/>
      <point x="688.5166666666667" y="515.25" type="curve" smooth="yes"/>
      <point x="465.49666666666667" y="534.3733333333333"/>
      <point x="424.47666666666663" y="561.5300000000001"/>
      <point x="424.47666666666663" y="620.6966666666667" type="curve" smooth="yes"/>
      <point x="424.47666666666663" y="620.6966666666666" type="line"/>
      <point x="424.47666666666663" y="666.2233333333334"/>
      <point x="458.57666666666665" y="697.11"/>
    </contour>
  </outline>
</glyph>
<glyph name="copyright" format="2">
  <advance width="1703.6299999999999"/>
  <unicode hex="00A9"/>
  <outline>
    <contour>
      <point x="851.6633333333333" y="-41.36" type="curve" smooth="yes"/>
      <point x="1331.5966666666668" y="-41.36"/>
      <point x="1612.53" y="209.60666666666668"/>
      <point x="1612.53" y="636.7866666666666" type="curve" smooth="yes"/>
      <point x="1612.53" y="653.3933333333333" type="line" smooth="yes"/>
      <point x="1612.53" y="1069.6066666666666"/>
      <point x="1331.5966666666668" y="1313.7866666666666"/>
      <point x="851.6633333333333" y="1313.7866666666666" type="curve" smooth="yes"/>
      <point x="372.03333333333336" y="1313.7866666666666"/>
      <point x="91.1" y="1069.6066666666666"/>
      <point x="91.1" y="653.3933333333333" type="curve" smooth="yes"/>
      <point x="91.1" y="636.7866666666666" type="line" smooth="yes"/>
      <point x="91.1" y="209.60666666666668"/>
      <point x="372.03333333333336" y="-41.36"/>
    </contour>
    <contour>
      <point x="890.9333333333333" y="308.51666666666665" type="curve" smooth="yes"/>
      <point x="998.82" y="308.51666666666665"/>
      <point x="1091.9099999999999" y="332.55"/>
      <point x="1153.09" y="364.85333333333335" type="curve"/>
      <point x="1172.36" y="540.5633333333333" type="line"/>
      <point x="1101.1799999999998" y="508.5299999999999"/>
      <point x="1027.54" y="486.28333333333336"/>
      <point x="931.6533333333333" y="486.28333333333336" type="curve" smooth="yes"/>
      <point x="791.5533333333334" y="486.28333333333336"/>
      <point x="723.5766666666667" y="539.6533333333333"/>
      <point x="723.5766666666667" y="634.3033333333333" type="curve" smooth="yes"/>
      <point x="723.5766666666667" y="643.9100000000001" type="line" smooth="yes"/>
      <point x="723.5766666666667" y="736.1666666666666"/>
      <point x="786.07" y="786.84"/>
      <point x="924.26" y="786.84" type="curve" smooth="yes"/>
      <point x="1022.8433333333332" y="786.84"/>
      <point x="1101.6633333333334" y="762.2"/>
      <point x="1166.0566666666666" y="730.4699999999999" type="curve"/>
      <point x="1145.09" y="907.27" type="line"/>
      <point x="1086.91" y="937.5733333333334"/>
      <point x="995.1233333333333" y="961.91"/>
      <point x="889.2366666666666" y="961.91" type="curve" smooth="yes"/>
      <point x="629.91" y="961.91"/>
      <point x="502.0" y="844.4266666666666"/>
      <point x="502.0" y="643.5166666666667" type="curve" smooth="yes"/>
      <point x="502.0" y="634.3033333333333" type="line" smooth="yes"/>
      <point x="502.0" y="426.30333333333334"/>
      <point x="629.91" y="308.51666666666665"/>
    </contour>
    <contour>
      <point x="851.6633333333333" y="132.49666666666667" type="curve" smooth="yes"/>
      <point x="506.92333333333335" y="132.49666666666667"/>
      <point x="306.37333333333333" y="317.26"/>
      <point x="306.37333333333333" y="633.6066666666666" type="curve" smooth="yes"/>
      <point x="306.37333333333333" y="656.5733333333334" type="line" smooth="yes"/>
      <point x="306.37333333333333" y="962.9533333333334"/>
      <point x="506.92333333333335" y="1139.93"/>
      <point x="851.6633333333333" y="1139.93" type="curve" smooth="yes"/>
      <point x="1196.7066666666667" y="1139.93"/>
      <point x="1397.2566666666667" y="962.9533333333334"/>
      <point x="1397.2566666666667" y="656.5733333333334" type="curve" smooth="yes"/>
      <point x="1397.2566666666667" y="633.6066666666666" type="line" smooth="yes"/>
      <point x="1397.2566666666667" y="317.26"/>
      <point x="1196.7066666666667" y="132.49666666666667"/>
    </contour>
  </outline>
</glyph>
<glyph name="ordfeminine" format="2">
  <advance width="854.1333333333333"/>
  <unicode hex="00AA"/>
  <outline>
    <contour>
      <point x="535.94" y="640.5166666666667" type="line"/>
      <point x="767.27" y="640.5166666666667" type="line"/>
      <point x="767.27" y="1002.4933333333335" type="line" smooth="yes"/>
      <point x="767.27" y="1142.6166666666668"/>
      <point x="712.5633333333333" y="1292.6066666666666"/>
      <point x="420.19" y="1292.6066666666666" type="curve" smooth="yes"/>
      <point x="297.12333333333333" y="1292.6066666666666"/>
      <point x="195.03333333333333" y="1266.54"/>
      <point x="116.19" y="1233.3266666666668" type="curve"/>
      <point x="93.52666666666667" y="1059.74" type="line"/>
      <point x="181.28" y="1090.7733333333335"/>
      <point x="273.7966666666667" y="1118.9299999999998"/>
      <point x="377.16666666666663" y="1118.9299999999998" type="curve" smooth="yes"/>
      <point x="498.9633333333334" y="1118.9299999999998"/>
      <point x="540.94" y="1087.74"/>
      <point x="540.94" y="1028.7866666666666" type="curve"/>
      <point x="543.03" y="960.5833333333333" type="line"/>
      <point x="543.03" y="824.1566666666668" type="line"/>
      <point x="544.03" y="798.19" type="line"/>
    </contour>
    <contour>
      <point x="284.89666666666665" y="622.1233333333333" type="curve" smooth="yes"/>
      <point x="446.05333333333334" y="622.1233333333333"/>
      <point x="506.30000000000007" y="684.8533333333334"/>
      <point x="534.94" y="771.9766666666667" type="curve"/>
      <point x="583.4466666666667" y="771.9766666666667" type="line"/>
      <point x="546.2433333333332" y="868.7733333333333" type="line"/>
      <point x="519.3333333333334" y="826.9666666666667"/>
      <point x="452.89666666666665" y="791.8333333333333"/>
      <point x="375.3933333333333" y="791.8333333333333" type="curve" smooth="yes"/>
      <point x="316.26" y="791.8333333333333"/>
      <point x="290.3733333333333" y="811.2600000000001"/>
      <point x="290.3733333333333" y="842.8433333333332" type="curve" smooth="yes"/>
      <point x="290.3733333333333" y="845.45" type="line" smooth="yes"/>
      <point x="290.3733333333333" y="877.6733333333333"/>
      <point x="314.3833333333333" y="893.28"/>
      <point x="376.19" y="899.4933333333333" type="curve" smooth="yes"/>
      <point x="561.8166666666666" y="917.4033333333333" type="line"/>
      <point x="556.4233333333333" y="1040.4266666666667" type="line"/>
      <point x="337.56" y="1022.5166666666667" type="line" smooth="yes"/>
      <point x="169.58333333333334" y="1008.2133333333333"/>
      <point x="56.526666666666664" y="962.7866666666666"/>
      <point x="56.526666666666664" y="817.8199999999999" type="curve" smooth="yes"/>
      <point x="56.526666666666664" y="810.8199999999999" type="line" smooth="yes"/>
      <point x="56.526666666666664" y="694.6066666666667"/>
      <point x="138.16666666666666" y="622.1233333333333"/>
    </contour>
  </outline>
</glyph>
<glyph name="logicalnot" format="2">
  <advance width="1329.5833333333333"/>
  <unicode hex="00AC"/>
  <outline>
    <contour>
      <point x="1203.6633333333334" y="74.46000000000001" type="line"/>
      <point x="1203.6633333333334" y="644.9333333333333" type="line"/>
      <point x="919.9499999999999" y="644.9333333333333" type="line"/>
      <point x="919.9499999999999" y="74.46000000000001" type="line"/>
    </contour>
    <contour>
      <point x="122.88666666666668" y="470.4466666666667" type="line"/>
      <point x="1203.6633333333334" y="470.4466666666667" type="line"/>
      <point x="1203.6633333333334" y="731.8" type="line"/>
      <point x="122.88666666666668" y="731.8" type="line"/>
    </contour>
  </outline>
</glyph>
<glyph name="registered" format="2">
  <advance width="1014.09"/>
  <unicode hex="00AE"/>
  <outline>
    <contour>
      <point x="507.69666666666666" y="502.5833333333333" type="curve" smooth="yes"/>
      <point x="795.0566666666666" y="502.5833333333333"/>
      <point x="965.2366666666667" y="650.4599999999999"/>
      <point x="965.2366666666667" y="898.2466666666667" type="curve" smooth="yes"/>
      <point x="965.2366666666667" y="903.2466666666667" type="line" smooth="yes"/>
      <point x="965.2366666666667" y="1151.73"/>
      <point x="795.0566666666666" y="1300.0"/>
      <point x="507.69666666666666" y="1300.0" type="curve" smooth="yes"/>
      <point x="219.33666666666664" y="1300.0"/>
      <point x="48.85333333333333" y="1151.73"/>
      <point x="48.85333333333333" y="903.2466666666667" type="curve" smooth="yes"/>
      <point x="48.85333333333333" y="898.2466666666667" type="line" smooth="yes"/>
      <point x="48.85333333333333" y="650.4599999999999"/>
      <point x="219.33666666666664" y="502.5833333333333"/>
    </contour>
    <contour>
      <point x="507.69666666666666" y="612.36" type="curve" smooth="yes"/>
      <point x="292.75333333333333" y="612.36"/>
      <point x="180.9" y="716.8766666666667"/>
      <point x="180.9" y="899.2466666666667" type="curve" smooth="yes"/>
      <point x="180.9" y="904.2466666666667" type="line" smooth="yes"/>
      <point x="180.9" y="1086.01"/>
      <point x="292.75333333333333" y="1190.2233333333334"/>
      <point x="507.69666666666666" y="1190.2233333333334" type="curve" smooth="yes"/>
      <point x="722.3366666666667" y="1190.2233333333334"/>
      <point x="833.1899999999999" y="1086.01"/>
      <point x="833.1899999999999" y="904.2466666666667" type="curve" smooth="yes"/>
      <point x="833.1899999999999" y="899.2466666666667" type="line" smooth="yes"/>
      <point x="833.1899999999999" y="716.8766666666667"/>
      <point x="722.3366666666667" y="612.36"/>
    </contour>
    <contour>
      <point x="592.2233333333332" y="726.82" type="line"/>
      <point x="721.2700000000001" y="726.82" type="line"/>
      <point x="707.6633333333334" y="787.3366666666666" type="line" smooth="yes"/>
      <point x="692.9666666666666" y="854.0"/>
      <point x="673.6633333333334" y="885.4266666666667"/>
      <point x="599.9666666666667" y="891.8199999999999" type="curve"/>
      <point x="613.8766666666667" y="877.9433333333334" type="line"/>
      <point x="613.8766666666667" y="894.82" type="line"/>
      <point x="677.4833333333333" y="897.8199999999999"/>
      <point x="710.4833333333333" y="928.73"/>
      <point x="710.4833333333333" y="984.0333333333333" type="curve" smooth="yes"/>
      <point x="710.4833333333333" y="987.3366666666666" type="line" smooth="yes"/>
      <point x="710.4833333333333" y="1057.82"/>
      <point x="661.6966666666667" y="1095.4266666666667"/>
      <point x="553.4266666666667" y="1095.4266666666667" type="curve" smooth="yes"/>
      <point x="399.75333333333333" y="1095.4266666666667" type="line"/>
      <point x="399.75333333333333" y="1006.2233333333334" type="line"/>
      <point x="525.37" y="1006.2233333333334" type="line" smooth="yes"/>
      <point x="568.7066666666667" y="1006.2233333333334"/>
      <point x="586.2233333333334" y="990.4033333333333"/>
      <point x="586.2233333333334" y="965.0666666666666" type="curve" smooth="yes"/>
      <point x="586.2233333333334" y="962.0666666666666" type="line" smooth="yes"/>
      <point x="586.2233333333334" y="935.0333333333334"/>
      <point x="568.7066666666667" y="918.9100000000001"/>
      <point x="525.6733333333333" y="918.9100000000001" type="curve" smooth="yes"/>
      <point x="399.7533333333334" y="917.9100000000001" type="line"/>
      <point x="399.7533333333334" y="832.7966666666667" type="line"/>
      <point x="509.46" y="832.1" type="line" smooth="yes"/>
      <point x="559.4933333333332" y="832.1"/>
      <point x="574.7966666666666" y="816.5833333333334"/>
      <point x="584.01" y="768.4599999999999" type="curve" smooth="yes"/>
    </contour>
    <contour>
      <point x="326.0333333333333" y="726.82" type="line"/>
      <point x="447.2933333333333" y="726.82" type="line"/>
      <point x="447.2933333333333" y="841.4933333333333" type="line"/>
      <point x="447.29333333333335" y="878.1566666666666" type="line"/>
      <point x="447.29333333333335" y="1095.4266666666667" type="line"/>
      <point x="326.0333333333333" y="1095.4266666666667" type="line"/>
    </contour>
  </outline>
</glyph>
<glyph name="degree" format="2">
  <advance width="820.9333333333334"/>
  <unicode hex="00B0"/>
  <outline>
    <contour>
      <point x="409.96666666666664" y="705.1666666666667" type="curve" smooth="yes"/>
      <point x="628.8666666666667" y="705.1666666666667"/>
      <point x="750.62" y="824.4366666666667"/>
      <point x="750.62" y="1009.0666666666667" type="curve" smooth="yes"/>
      <point x="750.62" y="1015.7633333333332" type="line" smooth="yes"/>
      <point x="750.62" y="1200.3933333333332"/>
      <point x="628.8666666666667" y="1319.36"/>
      <point x="409.96666666666664" y="1319.36" type="curve" smooth="yes"/>
      <point x="192.06666666666666" y="1319.36"/>
      <point x="70.31333333333333" y="1200.3933333333332"/>
      <point x="70.31333333333333" y="1015.7633333333332" type="curve" smooth="yes"/>
      <point x="70.31333333333333" y="1009.0666666666667" type="line" smooth="yes"/>
      <point x="70.31333333333333" y="824.4366666666667"/>
      <point x="192.06666666666666" y="705.1666666666667"/>
    </contour>
    <contour>
      <point x="409.96666666666664" y="882.0" type="curve" smooth="yes"/>
      <point x="326.71999999999997" y="882.0"/>
      <point x="277.9" y="931.73"/>
      <point x="277.9" y="1009.0666666666666" type="curve" smooth="yes"/>
      <point x="277.9" y="1015.46" type="line" smooth="yes"/>
      <point x="277.9" y="1093.1000000000001"/>
      <point x="326.71999999999997" y="1142.5266666666669"/>
      <point x="409.96666666666664" y="1142.5266666666669" type="curve" smooth="yes"/>
      <point x="494.2133333333333" y="1142.5266666666669"/>
      <point x="543.0333333333333" y="1093.1000000000001"/>
      <point x="543.0333333333333" y="1015.46" type="curve" smooth="yes"/>
      <point x="543.0333333333333" y="1009.0666666666666" type="line" smooth="yes"/>
      <point x="543.0333333333333" y="931.73"/>
      <point x="494.2133333333333" y="882.0"/>
    </contour>
  </outline>
</glyph>
<glyph name="plusminus" format="2">
  <advance width="1348.9766666666667"/>
  <unicode hex="00B1"/>
  <outline>
    <contour>
      <point x="134.1" y="21.71666666666667" type="line"/>
      <point x="1214.8766666666668" y="21.71666666666667" type="line"/>
      <point x="1214.8766666666668" y="282.7666666666667" type="line"/>
      <point x="134.1" y="282.7666666666667" type="line"/>
    </contour>
    <contour>
      <point x="816.8000000000001" y="382.14666666666665" type="line"/>
      <point x="816.8000000000001" y="1202.1466666666668" type="line"/>
      <point x="532.1766666666666" y="1202.1466666666668" type="line"/>
      <point x="532.1766666666666" y="382.14666666666665" type="line"/>
    </contour>
    <contour>
      <point x="134.1" y="661.7733333333333" type="line"/>
      <point x="1214.8766666666668" y="661.7733333333333" type="line"/>
      <point x="1214.8766666666668" y="922.52" type="line"/>
      <point x="134.1" y="922.52" type="line"/>
    </contour>
  </outline>
</glyph>
<glyph name="twosuperior" format="2">
  <advance width="801.5833333333334"/>
  <unicode hex="00B2"/>
  <outline>
    <contour>
      <point x="37.85333333333333" y="751.0" type="line"/>
      <point x="759.2133333333334" y="751.0" type="line"/>
      <point x="759.2133333333334" y="939.4633333333334" type="line"/>
      <point x="303.57666666666665" y="939.16" type="line"/>
      <point x="432.9033333333333" y="899.71" type="line"/>
      <point x="432.9033333333333" y="945.5533333333333" type="line"/>
      <point x="522.2266666666667" y="978.08" type="line" smooth="yes"/>
      <point x="676.45" y="1031.6966666666667"/>
      <point x="746.3033333333334" y="1103.4833333333333"/>
      <point x="746.3033333333334" y="1216.82" type="curve" smooth="yes"/>
      <point x="746.3033333333334" y="1224.5166666666667" type="line" smooth="yes"/>
      <point x="746.3033333333334" y="1368.09"/>
      <point x="621.2133333333334" y="1448.5733333333333"/>
      <point x="388.7633333333333" y="1448.5733333333333" type="curve" smooth="yes"/>
      <point x="269.15666666666664" y="1448.5733333333333"/>
      <point x="137.64" y="1417.9666666666667"/>
      <point x="62.336666666666666" y="1383.45" type="curve"/>
      <point x="39.370000000000005" y="1195.9866666666667" type="line"/>
      <point x="130.1" y="1229.7166666666665"/>
      <point x="246.85333333333332" y="1261.3233333333333"/>
      <point x="355.04333333333335" y="1261.3233333333333" type="curve" smooth="yes"/>
      <point x="462.66" y="1261.3233333333333"/>
      <point x="501.63666666666666" y="1239.7733333333333"/>
      <point x="501.63666666666666" y="1192.6733333333332" type="curve" smooth="yes"/>
      <point x="501.63666666666666" y="1190.6733333333332" type="line" smooth="yes"/>
      <point x="501.63666666666666" y="1134.8766666666666"/>
      <point x="432.47" y="1099.6866666666667"/>
      <point x="294.75" y="1044.5966666666668" type="curve" smooth="yes"/>
      <point x="37.85333333333333" y="940.3733333333333" type="line"/>
    </contour>
  </outline>
</glyph>
<glyph name="threesuperior" format="2">
  <advance width="835.6166666666667"/>
  <unicode hex="00B3"/>
  <outline>
    <contour>
      <point x="398.37" y="725.4266666666667" type="curve" smooth="yes"/>
      <point x="664.73" y="725.4266666666667"/>
      <point x="791.5166666666668" y="803.1233333333333"/>
      <point x="791.5166666666668" y="933.4266666666667" type="curve" smooth="yes"/>
      <point x="791.5166666666668" y="941.4266666666666" type="line" smooth="yes"/>
      <point x="791.5166666666668" y="1034.2133333333334"/>
      <point x="739.6966666666667" y="1088.0900000000001"/>
      <point x="602.7966666666666" y="1101.6066666666666" type="curve"/>
      <point x="618.64" y="1083.3366666666666" type="line"/>
      <point x="618.64" y="1107.3033333333333" type="line"/>
      <point x="737.4833333333333" y="1116.82"/>
      <point x="785.91" y="1172.0"/>
      <point x="785.91" y="1254.0" type="curve" smooth="yes"/>
      <point x="785.91" y="1260.0" type="line" smooth="yes"/>
      <point x="785.91" y="1386.6633333333334"/>
      <point x="659.2466666666667" y="1447.5733333333335"/>
      <point x="405.49333333333334" y="1447.5733333333335" type="curve" smooth="yes"/>
      <point x="265.3366666666667" y="1447.5733333333335"/>
      <point x="147.42666666666665" y="1425.8433333333332"/>
      <point x="64.46" y="1398.6299999999999" type="curve"/>
      <point x="44.97666666666667" y="1224.74" type="line"/>
      <point x="119.40333333333335" y="1244.0766666666668"/>
      <point x="239.31333333333333" y="1268.8966666666665"/>
      <point x="373.46999999999997" y="1268.8966666666665" type="curve" smooth="yes"/>
      <point x="492.85" y="1268.8966666666665"/>
      <point x="531.2766666666668" y="1254.74"/>
      <point x="531.2766666666668" y="1219.9766666666665" type="curve" smooth="yes"/>
      <point x="531.2766666666668" y="1218.6733333333334" type="line" smooth="yes"/>
      <point x="531.2766666666668" y="1187.3033333333333"/>
      <point x="504.3" y="1170.7533333333333"/>
      <point x="427.52666666666664" y="1169.45" type="curve" smooth="yes"/>
      <point x="170.86333333333334" y="1163.7533333333333" type="line"/>
      <point x="170.86333333333334" y="1017.1899999999999" type="line"/>
      <point x="428.2233333333333" y="1011.7966666666666" type="line" smooth="yes"/>
      <point x="514.4900000000001" y="1010.4933333333332"/>
      <point x="534.1866666666666" y="994.2133333333333"/>
      <point x="534.1866666666666" y="964.36" type="curve" smooth="yes"/>
      <point x="534.1866666666666" y="962.0566666666666" type="line" smooth="yes"/>
      <point x="534.1866666666666" y="926.4733333333332"/>
      <point x="499.42333333333335" y="905.1033333333334"/>
      <point x="354.6833333333333" y="905.1033333333334" type="curve" smooth="yes"/>
      <point x="239.61666666666667" y="905.1033333333334"/>
      <point x="122.28" y="926.8333333333333"/>
      <point x="40.28" y="950.0466666666666" type="curve"/>
      <point x="59.763333333333335" y="766.4599999999999" type="line"/>
      <point x="132.33666666666667" y="748.1566666666666"/>
      <point x="250.94333333333336" y="725.4266666666667"/>
    </contour>
  </outline>
</glyph>
<glyph name="micro" format="2">
  <advance width="1435.9666666666667"/>
  <unicode hex="00B5"/>
  <outline>
    <contour>
      <point x="1305.2266666666667" y="961.4833333333333" type="line"/>
      <point x="962.5233333333333" y="961.4833333333333" type="line"/>
      <point x="962.5233333333333" y="339.44" type="line"/>
      <point x="975.0066666666667" y="292.93333333333334" type="line"/>
      <point x="966.7033333333334" y="0.0" type="line"/>
      <point x="1305.2266666666667" y="0.0" type="line"/>
    </contour>
    <contour>
      <point x="473.4433333333333" y="492.81" type="curve" smooth="yes"/>
      <point x="473.4433333333333" y="961.4833333333333" type="line"/>
      <point x="130.73999999999998" y="961.4833333333333" type="line"/>
      <point x="130.73999999999998" y="-338.0" type="line"/>
      <point x="470.74666666666667" y="-338.0" type="line"/>
      <point x="470.74666666666667" y="-268.24999999999994" type="line"/>
      <point x="456.56666666666666" y="102.17666666666666" type="line"/>
      <point x="464.87" y="102.17666666666666" type="line"/>
      <point x="501.75666666666666" y="18.246666666666666"/>
      <point x="575.1033333333334" y="-31.09"/>
      <point x="691.0333333333334" y="-31.09" type="curve" smooth="yes"/>
      <point x="864.4699999999999" y="-31.09"/>
      <point x="937.4566666666667" y="82.67333333333333"/>
      <point x="962.6133333333333" y="248.87666666666667" type="curve"/>
      <point x="1010.1866666666666" y="248.87666666666667" type="line"/>
      <point x="970.8266666666667" y="419.45000000000005" type="line"/>
      <point x="931.3433333333334" y="326.61"/>
      <point x="849.6266666666667" y="249.23"/>
      <point x="704.7866666666666" y="249.23" type="curve" smooth="yes"/>
      <point x="532.0466666666667" y="249.23"/>
      <point x="473.4433333333333" y="352.9266666666667"/>
    </contour>
  </outline>
</glyph>
<glyph name="paragraph" format="2">
  <advance width="1001.5766666666666"/>
  <unicode hex="00B6"/>
  <outline>
    <contour>
      <point x="474.0566666666667" y="639.37" type="curve"/>
      <point x="567.0333333333334" y="639.37" type="line"/>
      <point x="566.73" y="1278.0" type="line"/>
      <point x="474.0566666666667" y="1278.0" type="line" smooth="yes"/>
      <point x="203.55" y="1278.0"/>
      <point x="78.19" y="1163.3933333333334"/>
      <point x="78.19" y="963.2466666666667" type="curve" smooth="yes"/>
      <point x="78.19" y="952.73" type="line" smooth="yes"/>
      <point x="78.19" y="756.6733333333334"/>
      <point x="203.55" y="639.37"/>
    </contour>
    <contour>
      <point x="852.1066666666667" y="0.0" type="line"/>
      <point x="852.1066666666667" y="1278.0" type="line"/>
      <point x="510.79666666666674" y="1278.0" type="line"/>
      <point x="510.1" y="0.0" type="line"/>
    </contour>
  </outline>
</glyph>
<glyph name="onesuperior" format="2">
  <advance width="542.6966666666667"/>
  <unicode hex="00B9"/>
  <outline>
    <contour>
      <point x="234.29000000000002" y="751.0" type="line"/>
      <point x="466.08" y="751.0" type="line"/>
      <point x="466.08" y="1425.3933333333334" type="line"/>
      <point x="256.83000000000004" y="1425.3933333333334" type="line"/>
      <point x="33.55" y="1341.5966666666668" type="line"/>
      <point x="25.85333333333333" y="1139.8633333333335" type="line"/>
      <point x="224.89666666666668" y="1212.48" type="line"/>
      <point x="234.29000000000002" y="1212.48" type="line"/>
    </contour>
  </outline>
</glyph>
<glyph name="ordmasculine" format="2">
  <advance width="885.4599999999999"/>
  <unicode hex="00BA"/>
  <outline>
    <contour>
      <point x="442.0333333333333" y="623.1233333333333" type="curve" smooth="yes"/>
      <point x="695.1800000000001" y="623.1233333333333"/>
      <point x="832.9666666666667" y="740.6066666666666"/>
      <point x="832.9666666666667" y="951.3033333333333" type="curve" smooth="yes"/>
      <point x="832.9666666666667" y="966.1233333333333" type="line" smooth="yes"/>
      <point x="832.9666666666667" y="1175.1233333333332"/>
      <point x="696.1800000000001" y="1294.3033333333333"/>
      <point x="442.0333333333333" y="1294.3033333333333" type="curve" smooth="yes"/>
      <point x="190.9766666666667" y="1294.3033333333333"/>
      <point x="52.49333333333334" y="1175.82"/>
      <point x="52.49333333333334" y="966.1233333333333" type="curve" smooth="yes"/>
      <point x="52.49333333333334" y="951.3033333333333" type="line" smooth="yes"/>
      <point x="52.49333333333334" y="740.91"/>
      <point x="189.9766666666667" y="623.1233333333333"/>
    </contour>
    <contour>
      <point x="442.0333333333333" y="809.16" type="curve" smooth="yes"/>
      <point x="345.74333333333334" y="809.16"/>
      <point x="292.03666666666663" y="857.35"/>
      <point x="292.03666666666663" y="954.0" type="curve" smooth="yes"/>
      <point x="292.03666666666663" y="963.73" type="line" smooth="yes"/>
      <point x="292.03666666666663" y="1059.38"/>
      <point x="345.74333333333334" y="1108.2666666666667"/>
      <point x="442.0333333333333" y="1108.2666666666667" type="curve" smooth="yes"/>
      <point x="539.7166666666667" y="1108.2666666666667"/>
      <point x="593.4233333333333" y="1059.38"/>
      <point x="593.4233333333333" y="963.73" type="curve" smooth="yes"/>
      <point x="593.4233333333333" y="954.0" type="line" smooth="yes"/>
      <point x="593.4233333333333" y="857.35"/>
      <point x="539.4133333333333" y="809.16"/>
    </contour>
  </outline>
</glyph>
<glyph name="guillemetright" format="2">
  <advance width="1308.6866666666667"/>
  <unicode hex="00BB"/>
  <outline>
    <contour>
      <point x="380.84000000000003" y="475.0" type="line"/>
      <point x="11.526666666666669" y="63.85333333333334" type="line"/>
      <point x="347.75666666666666" y="63.85333333333334" type="line"/>
      <point x="702.5866666666667" y="463.5733333333333" type="line"/>
      <point x="702.5866666666667" y="508.18" type="line"/>
      <point x="347.75666666666666" y="887.54" type="line"/>
      <point x="11.526666666666669" y="887.54" type="line"/>
    </contour>
    <contour>
      <point x="938.8066666666666" y="475.0" type="line"/>
      <point x="569.4933333333332" y="63.85333333333334" type="line"/>
      <point x="905.7233333333334" y="63.85333333333334" type="line"/>
      <point x="1260.5533333333333" y="463.5733333333333" type="line"/>
      <point x="1260.5533333333333" y="508.18" type="line"/>
      <point x="905.7233333333334" y="887.54" type="line"/>
      <point x="569.4933333333332" y="887.54" type="line"/>
    </contour>
  </outline>
</glyph>
